G04 #@! TF.GenerationSoftware,KiCad,Pcbnew,(5.1.0)-1*
G04 #@! TF.CreationDate,2019-04-26T12:12:41-04:00*
G04 #@! TF.ProjectId,Pluralsight_Floppy,506c7572-616c-4736-9967-68745f466c6f,rev?*
G04 #@! TF.SameCoordinates,Original*
G04 #@! TF.FileFunction,Copper,L1,Top*
G04 #@! TF.FilePolarity,Positive*
%FSLAX46Y46*%
G04 Gerber Fmt 4.6, Leading zero omitted, Abs format (unit mm)*
G04 Created by KiCad (PCBNEW (5.1.0)-1) date 2019-04-26 12:12:41*
%MOMM*%
%LPD*%
G04 APERTURE LIST*
%ADD10C,0.150000*%
%ADD11C,1.727200*%
%ADD12O,1.727200X1.727200*%
%ADD13O,1.727200X2.032000*%
%ADD14C,4.064000*%
%ADD15R,2.400000X2.400000*%
%ADD16O,2.400000X2.400000*%
%ADD17C,2.300000*%
%ADD18C,2.000000*%
%ADD19R,1.700000X1.700000*%
%ADD20O,1.700000X1.700000*%
%ADD21R,2.600000X2.600000*%
%ADD22C,2.600000*%
%ADD23C,1.600000*%
%ADD24O,1.600000X1.600000*%
%ADD25R,2.400000X1.600000*%
%ADD26O,2.400000X1.600000*%
%ADD27C,0.250000*%
%ADD28C,0.254000*%
G04 APERTURE END LIST*
D10*
X202438000Y-121666000D02*
X103378000Y-121666000D01*
X202438000Y-120396000D02*
X202438000Y-121666000D01*
X204978000Y-117856000D02*
X202438000Y-120396000D01*
X204978000Y-83566000D02*
X204978000Y-117856000D01*
X202438000Y-81026000D02*
X204978000Y-83566000D01*
X202438000Y-70866000D02*
X202438000Y-81026000D01*
X199898000Y-68326000D02*
X202438000Y-70866000D01*
X103378000Y-68326000D02*
X199898000Y-68326000D01*
X103378000Y-121666000D02*
X103378000Y-68326000D01*
D11*
X197358000Y-114046000D03*
D12*
X199898000Y-114046000D03*
X197358000Y-111506000D03*
X199898000Y-111506000D03*
X197358000Y-108966000D03*
X199898000Y-108966000D03*
X197358000Y-106426000D03*
X199898000Y-106426000D03*
X197358000Y-103886000D03*
X199898000Y-103886000D03*
X197358000Y-101346000D03*
X199898000Y-101346000D03*
X197358000Y-98806000D03*
X199898000Y-98806000D03*
X197358000Y-96266000D03*
X199898000Y-96266000D03*
X197358000Y-93726000D03*
X199898000Y-93726000D03*
X197358000Y-91186000D03*
X199898000Y-91186000D03*
X197358000Y-88646000D03*
X199898000Y-88646000D03*
X197358000Y-86106000D03*
X199898000Y-86106000D03*
X197358000Y-83566000D03*
X199898000Y-83566000D03*
X197358000Y-81026000D03*
X199898000Y-81026000D03*
X197358000Y-78486000D03*
X199898000Y-78486000D03*
X197358000Y-75946000D03*
X199898000Y-75946000D03*
X197358000Y-73406000D03*
X199898000Y-73406000D03*
X197358000Y-70866000D03*
X199898000Y-70866000D03*
D13*
X131318000Y-119126000D03*
X133858000Y-119126000D03*
X136398000Y-119126000D03*
X138938000Y-119126000D03*
X141478000Y-119126000D03*
X144018000Y-119126000D03*
X146558000Y-119126000D03*
X149098000Y-119126000D03*
X154178000Y-119126000D03*
X156718000Y-119126000D03*
X159258000Y-119126000D03*
X161798000Y-119126000D03*
X164338000Y-119126000D03*
X166878000Y-119126000D03*
X169418000Y-119126000D03*
X171958000Y-119126000D03*
X177038000Y-119126000D03*
X179578000Y-119126000D03*
X182118000Y-119126000D03*
X184658000Y-119126000D03*
X187198000Y-119126000D03*
X189738000Y-119126000D03*
X192278000Y-119126000D03*
X194818000Y-119126000D03*
X122174000Y-70866000D03*
X124714000Y-70866000D03*
X127254000Y-70866000D03*
X129794000Y-70866000D03*
X132334000Y-70866000D03*
X134874000Y-70866000D03*
X137414000Y-70866000D03*
X139954000Y-70866000D03*
X142494000Y-70866000D03*
X145034000Y-70866000D03*
X149098000Y-70866000D03*
X151638000Y-70866000D03*
X154178000Y-70866000D03*
X156718000Y-70866000D03*
X159258000Y-70866000D03*
X161798000Y-70866000D03*
X164338000Y-70866000D03*
X166878000Y-70866000D03*
X171958000Y-70866000D03*
X174498000Y-70866000D03*
X177038000Y-70866000D03*
X179578000Y-70866000D03*
X182118000Y-70866000D03*
X184658000Y-70866000D03*
X187198000Y-70866000D03*
X189738000Y-70866000D03*
D14*
X117348000Y-119126000D03*
X169418000Y-114046000D03*
X199898000Y-119126000D03*
X118618000Y-70866000D03*
X169418000Y-86106000D03*
X193548000Y-70866000D03*
D15*
X130835400Y-98602800D03*
D16*
X130835400Y-113842800D03*
D17*
X119289200Y-92884600D03*
D18*
X106789200Y-100384600D03*
D17*
X116789200Y-90384600D03*
X116789200Y-97884600D03*
X116789200Y-105384600D03*
X119289200Y-102884600D03*
D18*
X106789200Y-95384600D03*
D19*
X127482600Y-89738200D03*
D20*
X124942600Y-89738200D03*
X127736600Y-87198200D03*
X125196600Y-87198200D03*
X127482600Y-84658200D03*
X124942600Y-84658200D03*
X127736600Y-82118200D03*
X125196600Y-82118200D03*
D19*
X141757400Y-89687400D03*
D20*
X139217400Y-89687400D03*
X142011400Y-87147400D03*
X139471400Y-87147400D03*
X141757400Y-84607400D03*
X139217400Y-84607400D03*
X142011400Y-82067400D03*
X139471400Y-82067400D03*
D19*
X156083000Y-89662000D03*
D20*
X153543000Y-89662000D03*
X156337000Y-87122000D03*
X153797000Y-87122000D03*
X156083000Y-84582000D03*
X153543000Y-84582000D03*
X156337000Y-82042000D03*
X153797000Y-82042000D03*
D19*
X180162200Y-79146400D03*
D20*
X182702200Y-79146400D03*
X179908200Y-81686400D03*
X182448200Y-81686400D03*
X180162200Y-84226400D03*
X182702200Y-84226400D03*
X179908200Y-86766400D03*
X182448200Y-86766400D03*
D19*
X180111400Y-91186000D03*
D20*
X182651400Y-91186000D03*
X179857400Y-93726000D03*
X182397400Y-93726000D03*
X180111400Y-96266000D03*
X182651400Y-96266000D03*
X179857400Y-98806000D03*
X182397400Y-98806000D03*
D19*
X180086000Y-103124000D03*
D20*
X182626000Y-103124000D03*
X179832000Y-105664000D03*
X182372000Y-105664000D03*
X180086000Y-108204000D03*
X182626000Y-108204000D03*
X179832000Y-110744000D03*
X182372000Y-110744000D03*
X131343400Y-82092800D03*
X133883400Y-82092800D03*
X131089400Y-84632800D03*
X133629400Y-84632800D03*
X131343400Y-87172800D03*
X133883400Y-87172800D03*
X131089400Y-89712800D03*
D19*
X133629400Y-89712800D03*
D20*
X145618200Y-82067400D03*
X148158200Y-82067400D03*
X145364200Y-84607400D03*
X147904200Y-84607400D03*
X145618200Y-87147400D03*
X148158200Y-87147400D03*
X145364200Y-89687400D03*
D19*
X147904200Y-89687400D03*
D20*
X159969200Y-82016600D03*
X162509200Y-82016600D03*
X159715200Y-84556600D03*
X162255200Y-84556600D03*
X159969200Y-87096600D03*
X162509200Y-87096600D03*
X159715200Y-89636600D03*
D19*
X162255200Y-89636600D03*
D20*
X188595000Y-86766400D03*
X186055000Y-86766400D03*
X188849000Y-84226400D03*
X186309000Y-84226400D03*
X188595000Y-81686400D03*
X186055000Y-81686400D03*
X188849000Y-79146400D03*
D19*
X186309000Y-79146400D03*
D20*
X188544200Y-98806000D03*
X186004200Y-98806000D03*
X188798200Y-96266000D03*
X186258200Y-96266000D03*
X188544200Y-93726000D03*
X186004200Y-93726000D03*
X188798200Y-91186000D03*
D19*
X186258200Y-91186000D03*
D20*
X188544200Y-110744000D03*
X186004200Y-110744000D03*
X188798200Y-108204000D03*
X186258200Y-108204000D03*
X188544200Y-105664000D03*
X186004200Y-105664000D03*
X188798200Y-103124000D03*
D19*
X186258200Y-103124000D03*
X157403800Y-100558600D03*
D20*
X157403800Y-103098600D03*
D21*
X109296200Y-116967000D03*
D22*
X109296200Y-111967000D03*
D23*
X125552200Y-98653600D03*
D24*
X125552200Y-113893600D03*
D23*
X147955000Y-98704400D03*
D24*
X147955000Y-113944400D03*
X152044400Y-98653600D03*
D23*
X152044400Y-113893600D03*
D25*
X135432800Y-102133400D03*
D26*
X143052800Y-109753400D03*
X135432800Y-104673400D03*
X143052800Y-107213400D03*
X135432800Y-107213400D03*
X143052800Y-104673400D03*
X135432800Y-109753400D03*
X143052800Y-102133400D03*
D27*
X131343400Y-84378800D02*
X131089400Y-84632800D01*
X131343400Y-82092800D02*
X131343400Y-84378800D01*
X131089400Y-86918800D02*
X131343400Y-87172800D01*
X131089400Y-84632800D02*
X131089400Y-86918800D01*
X131343400Y-89458800D02*
X131089400Y-89712800D01*
X131343400Y-87172800D02*
X131343400Y-89458800D01*
X145618200Y-84861400D02*
X145364200Y-84607400D01*
X145618200Y-87147400D02*
X145618200Y-84861400D01*
X145364200Y-82321400D02*
X145618200Y-82067400D01*
X145364200Y-84607400D02*
X145364200Y-82321400D01*
X153543000Y-87376000D02*
X153797000Y-87122000D01*
X153543000Y-89662000D02*
X153543000Y-87376000D01*
X153797000Y-84836000D02*
X153543000Y-84582000D01*
X153797000Y-87122000D02*
X153797000Y-84836000D01*
X153543000Y-82296000D02*
X153797000Y-82042000D01*
X153543000Y-84582000D02*
X153543000Y-82296000D01*
X188849000Y-81940400D02*
X188595000Y-81686400D01*
X188849000Y-84226400D02*
X188849000Y-81940400D01*
X182651400Y-93472000D02*
X182397400Y-93726000D01*
X182651400Y-91186000D02*
X182651400Y-93472000D01*
X188544200Y-91440000D02*
X188798200Y-91186000D01*
X188544200Y-93726000D02*
X188544200Y-91440000D01*
X188798200Y-98552000D02*
X188544200Y-98806000D01*
X188798200Y-96266000D02*
X188798200Y-98552000D01*
X182372000Y-103378000D02*
X182626000Y-103124000D01*
X182372000Y-105664000D02*
X182372000Y-103378000D01*
X182626000Y-105918000D02*
X182372000Y-105664000D01*
X182626000Y-108204000D02*
X182626000Y-105918000D01*
X182372000Y-108458000D02*
X182626000Y-108204000D01*
X182372000Y-110744000D02*
X182372000Y-108458000D01*
X188544200Y-108458000D02*
X188798200Y-108204000D01*
X188544200Y-110744000D02*
X188544200Y-108458000D01*
X188849000Y-86512400D02*
X188595000Y-86766400D01*
X188849000Y-84226400D02*
X188849000Y-86512400D01*
X188544200Y-103378000D02*
X188798200Y-103124000D01*
X188544200Y-105664000D02*
X188544200Y-103378000D01*
X188798200Y-105918000D02*
X188544200Y-105664000D01*
X188798200Y-108204000D02*
X188798200Y-105918000D01*
X198546601Y-107777399D02*
X199898000Y-106426000D01*
X196641601Y-107777399D02*
X198546601Y-107777399D01*
X191414400Y-113004600D02*
X196641601Y-107777399D01*
X186715400Y-113004600D02*
X191414400Y-113004600D01*
X186004200Y-110744000D02*
X186004200Y-112293400D01*
X186004200Y-112293400D02*
X186715400Y-113004600D01*
X198546601Y-105237399D02*
X199898000Y-103886000D01*
X195026399Y-106862999D02*
X196651999Y-105237399D01*
X186258200Y-108204000D02*
X187325000Y-109270800D01*
X196651999Y-105237399D02*
X198546601Y-105237399D01*
X187325000Y-109270800D02*
X187325000Y-111353600D01*
X188525990Y-112554590D02*
X191228000Y-112554590D01*
X191228000Y-112554590D02*
X195026399Y-108756191D01*
X187325000Y-111353600D02*
X188525990Y-112554590D01*
X195026399Y-108756191D02*
X195026399Y-106862999D01*
X187179201Y-104488999D02*
X186854199Y-104814001D01*
X186854199Y-104814001D02*
X186004200Y-105664000D01*
X186004200Y-105664000D02*
X187179201Y-104488999D01*
X199034401Y-102209599D02*
X199898000Y-101346000D01*
X195244601Y-102534601D02*
X198709399Y-102534601D01*
X194335400Y-101625400D02*
X195244601Y-102534601D01*
X188353198Y-101625400D02*
X194335400Y-101625400D01*
X187623199Y-102355399D02*
X188353198Y-101625400D01*
X198709399Y-102534601D02*
X199034401Y-102209599D01*
X187623199Y-104045001D02*
X187623199Y-102355399D01*
X186004200Y-105664000D02*
X187623199Y-104045001D01*
X199034401Y-99669599D02*
X199898000Y-98806000D01*
X198709399Y-99994601D02*
X199034401Y-99669599D01*
X186258200Y-103124000D02*
X186258200Y-102024000D01*
X196387601Y-99994601D02*
X198709399Y-99994601D01*
X186258200Y-102024000D02*
X187730790Y-100551410D01*
X195801410Y-100551410D02*
X195816101Y-100566101D01*
X187730790Y-100551410D02*
X195801410Y-100551410D01*
X195816101Y-100566101D02*
X196387601Y-99994601D01*
X199034401Y-97129599D02*
X199898000Y-96266000D01*
X198709399Y-97454601D02*
X199034401Y-97129599D01*
X196463801Y-97454601D02*
X198709399Y-97454601D01*
X193817002Y-100101400D02*
X196463801Y-97454601D01*
X187299600Y-100101400D02*
X193817002Y-100101400D01*
X186004200Y-98806000D02*
X187299600Y-100101400D01*
X199034401Y-94589599D02*
X199898000Y-93726000D01*
X198709399Y-94914601D02*
X199034401Y-94589599D01*
X187609599Y-94914601D02*
X198709399Y-94914601D01*
X186258200Y-96266000D02*
X187609599Y-94914601D01*
X199034401Y-92049599D02*
X199898000Y-91186000D01*
X198709399Y-92374601D02*
X199034401Y-92049599D01*
X196474199Y-92374601D02*
X198709399Y-92374601D01*
X194110597Y-90010999D02*
X196474199Y-92374601D01*
X188234199Y-90010999D02*
X194110597Y-90010999D01*
X187623199Y-90621999D02*
X188234199Y-90010999D01*
X187623199Y-92107001D02*
X187623199Y-90621999D01*
X186004200Y-93726000D02*
X187623199Y-92107001D01*
X199034401Y-89509599D02*
X199898000Y-88646000D01*
X198709399Y-89834601D02*
X199034401Y-89509599D01*
X186258200Y-91186000D02*
X186258200Y-90086000D01*
X186258200Y-90086000D02*
X187146590Y-89197610D01*
X195928410Y-89197610D02*
X196565401Y-89834601D01*
X187146590Y-89197610D02*
X195928410Y-89197610D01*
X196565401Y-89834601D02*
X198709399Y-89834601D01*
X198546601Y-87457399D02*
X199898000Y-86106000D01*
X194533401Y-87457399D02*
X198546601Y-87457399D01*
X193243200Y-88747600D02*
X194533401Y-87457399D01*
X186486800Y-88747600D02*
X193243200Y-88747600D01*
X186055000Y-88315800D02*
X186486800Y-88747600D01*
X186055000Y-86766400D02*
X186055000Y-88315800D01*
X198546601Y-84917399D02*
X199898000Y-83566000D01*
X186309000Y-84226400D02*
X187230001Y-85147401D01*
X187230001Y-87572599D02*
X187947802Y-88290400D01*
X187947802Y-88290400D02*
X193063990Y-88290400D01*
X193063990Y-88290400D02*
X196436991Y-84917399D01*
X187230001Y-85147401D02*
X187230001Y-87572599D01*
X196436991Y-84917399D02*
X198546601Y-84917399D01*
X198709399Y-82214601D02*
X199898000Y-81026000D01*
X192755401Y-82214601D02*
X198709399Y-82214601D01*
X191052199Y-80511399D02*
X192755401Y-82214601D01*
X187230001Y-80511399D02*
X191052199Y-80511399D01*
X186055000Y-81686400D02*
X187230001Y-80511399D01*
X199898000Y-78486000D02*
X198546601Y-79837399D01*
X186309000Y-78046400D02*
X186631400Y-77724000D01*
X186309000Y-79146400D02*
X186309000Y-78046400D01*
X193065400Y-77724000D02*
X195178799Y-79837399D01*
X186631400Y-77724000D02*
X193065400Y-77724000D01*
X198546601Y-79837399D02*
X195178799Y-79837399D01*
X164636199Y-88461599D02*
X165361190Y-89186590D01*
X159151199Y-88461599D02*
X164636199Y-88461599D01*
X156083000Y-89662000D02*
X157950798Y-89662000D01*
X157950798Y-89662000D02*
X159151199Y-88461599D01*
X165361190Y-89186590D02*
X174235400Y-89186590D01*
X174235400Y-89186590D02*
X178283189Y-85138801D01*
X178283190Y-78103998D02*
X179702597Y-76684591D01*
X178283189Y-85138801D02*
X178283190Y-78103998D01*
X179702597Y-76684591D02*
X193751200Y-76684591D01*
X194489791Y-75946000D02*
X197358000Y-75946000D01*
X193751200Y-76684591D02*
X194489791Y-75946000D01*
X199034401Y-76809599D02*
X199898000Y-75946000D01*
X162255200Y-89636600D02*
X174421800Y-89636600D01*
X174421800Y-89636600D02*
X178733199Y-85325201D01*
X178733199Y-85325201D02*
X178733199Y-78290399D01*
X178733199Y-78290399D02*
X179888997Y-77134601D01*
X179888997Y-77134601D02*
X198709399Y-77134601D01*
X198709399Y-77134601D02*
X199034401Y-76809599D01*
X166114039Y-85921599D02*
X168749038Y-83286600D01*
X156337000Y-87122000D02*
X157537401Y-85921599D01*
X157537401Y-85921599D02*
X166114039Y-85921599D01*
X174167800Y-83286600D02*
X177383171Y-80071229D01*
X168749038Y-83286600D02*
X174167800Y-83286600D01*
X177383172Y-77731196D02*
X179329797Y-75784571D01*
X177383171Y-80071229D02*
X177383172Y-77731196D01*
X179329797Y-75784571D02*
X193378400Y-75784571D01*
X195756971Y-73406000D02*
X197358000Y-73406000D01*
X193378400Y-75784571D02*
X195756971Y-73406000D01*
X195204780Y-74594601D02*
X198709399Y-74594601D01*
X179516197Y-76234581D02*
X193564800Y-76234581D01*
X199034401Y-74269599D02*
X199898000Y-73406000D01*
X193564800Y-76234581D02*
X195204780Y-74594601D01*
X177833181Y-77917597D02*
X179516197Y-76234581D01*
X198709399Y-74594601D02*
X199034401Y-74269599D01*
X162509200Y-87096600D02*
X164171219Y-87096600D01*
X164171219Y-87096600D02*
X165537620Y-88463001D01*
X165537620Y-88463001D02*
X174274599Y-88463001D01*
X177833180Y-84952400D02*
X177833181Y-77917597D01*
X174274599Y-88463001D02*
X175260000Y-87477600D01*
X175260000Y-87477600D02*
X175307980Y-87477600D01*
X175307980Y-87477600D02*
X177833180Y-84952400D01*
X132334000Y-72415400D02*
X132334000Y-70866000D01*
X127736600Y-77012800D02*
X132334000Y-72415400D01*
X127736600Y-82118200D02*
X127736600Y-77012800D01*
X137414000Y-71018400D02*
X137414000Y-70866000D01*
X134988300Y-73444100D02*
X137414000Y-71018400D01*
X132372100Y-73444100D02*
X134988300Y-73444100D01*
X128911601Y-76904599D02*
X132372100Y-73444100D01*
X128911601Y-83229199D02*
X128911601Y-76904599D01*
X127482600Y-84658200D02*
X128911601Y-83229199D01*
X142494000Y-71018400D02*
X142494000Y-70866000D01*
X139618290Y-73894110D02*
X142494000Y-71018400D01*
X132734890Y-73894110D02*
X139618290Y-73894110D01*
X129361611Y-77267389D02*
X132734890Y-73894110D01*
X129361611Y-85573189D02*
X129361611Y-77267389D01*
X127736600Y-87198200D02*
X129361611Y-85573189D01*
X129914399Y-88406401D02*
X129914399Y-77351011D01*
X127482600Y-89738200D02*
X128582600Y-89738200D01*
X128582600Y-89738200D02*
X129914399Y-88406401D01*
X147984400Y-70866000D02*
X149098000Y-70866000D01*
X144506280Y-74344120D02*
X147984400Y-70866000D01*
X132921290Y-74344120D02*
X144506280Y-74344120D01*
X129914399Y-77351011D02*
X132921290Y-74344120D01*
X154178000Y-71018400D02*
X154178000Y-70866000D01*
X142011400Y-82067400D02*
X142011400Y-80865319D01*
X142011400Y-80865319D02*
X142036800Y-80839919D01*
X142036800Y-80839919D02*
X142036800Y-77450010D01*
X144692681Y-74794129D02*
X150402271Y-74794129D01*
X142036800Y-77450010D02*
X144692681Y-74794129D01*
X150402271Y-74794129D02*
X154178000Y-71018400D01*
X143186401Y-83178399D02*
X143186401Y-78428599D01*
X141757400Y-84607400D02*
X143186401Y-83178399D01*
X143186401Y-78428599D02*
X146370861Y-75244139D01*
X159258000Y-71018400D02*
X159258000Y-70866000D01*
X155032261Y-75244139D02*
X159258000Y-71018400D01*
X146370861Y-75244139D02*
X155032261Y-75244139D01*
X157950798Y-84582000D02*
X156083000Y-84582000D01*
X159341197Y-83191601D02*
X157950798Y-84582000D01*
X164185870Y-83191601D02*
X159341197Y-83191601D01*
X173837600Y-82219800D02*
X165157671Y-82219800D01*
X165157671Y-82219800D02*
X164185870Y-83191601D01*
X187198000Y-70866000D02*
X187198000Y-71018400D01*
X187198000Y-71018400D02*
X183331849Y-74884551D01*
X183331849Y-74884551D02*
X178956997Y-74884551D01*
X178956997Y-74884551D02*
X176483154Y-77358394D01*
X176483154Y-77358394D02*
X176483153Y-79574247D01*
X176483153Y-79574247D02*
X173837600Y-82219800D01*
X189738000Y-71018400D02*
X189738000Y-70866000D01*
X185421839Y-75334561D02*
X189738000Y-71018400D01*
X162255200Y-84556600D02*
X163457281Y-84556600D01*
X163457281Y-84556600D02*
X165177291Y-82836590D01*
X179143397Y-75334561D02*
X185421839Y-75334561D01*
X165177291Y-82836590D02*
X173981400Y-82836590D01*
X173981400Y-82836590D02*
X176933162Y-79884828D01*
X176933162Y-79884828D02*
X176933163Y-77544795D01*
X176933163Y-77544795D02*
X179143397Y-75334561D01*
X143636411Y-84467391D02*
X143636411Y-78614999D01*
X142011400Y-87147400D02*
X142011400Y-86092402D01*
X142011400Y-86092402D02*
X143636411Y-84467391D01*
X143636411Y-78614999D02*
X146557261Y-75694149D01*
X170844400Y-70866000D02*
X171958000Y-70866000D01*
X166016251Y-75694149D02*
X170844400Y-70866000D01*
X146557261Y-75694149D02*
X166016251Y-75694149D01*
X174498000Y-72132000D02*
X174498000Y-70866000D01*
X167263437Y-79366563D02*
X174498000Y-72132000D01*
X148158200Y-87147400D02*
X149008199Y-86297401D01*
X149008199Y-86297401D02*
X149058999Y-86297401D01*
X149058999Y-86297401D02*
X151322180Y-84034220D01*
X151322180Y-84034220D02*
X151322181Y-81504997D01*
X151322181Y-81504997D02*
X153460615Y-79366563D01*
X153460615Y-79366563D02*
X167263437Y-79366563D01*
X177038000Y-72132000D02*
X169353429Y-79816571D01*
X177038000Y-70866000D02*
X177038000Y-72132000D01*
X151772190Y-81691398D02*
X151772190Y-86961000D01*
X169353429Y-79816571D02*
X153647016Y-79816572D01*
X153647016Y-79816572D02*
X151772190Y-81691398D01*
X142857400Y-89687400D02*
X141757400Y-89687400D01*
X144032401Y-88512399D02*
X142857400Y-89687400D01*
X150220791Y-88512399D02*
X144032401Y-88512399D01*
X151772190Y-86961000D02*
X150220791Y-88512399D01*
X179578000Y-72354319D02*
X179578000Y-70866000D01*
X175133125Y-76799195D02*
X179578000Y-72354319D01*
X175133125Y-79015045D02*
X175133125Y-76799195D01*
X147904200Y-89687400D02*
X149682200Y-89687400D01*
X149682200Y-89687400D02*
X152222200Y-87147400D01*
X152222200Y-81877798D02*
X153833417Y-80266581D01*
X153833417Y-80266581D02*
X173881589Y-80266581D01*
X152222200Y-87147400D02*
X152222200Y-81877798D01*
X173881589Y-80266581D02*
X175133125Y-79015045D01*
X157662409Y-80716591D02*
X156337000Y-82042000D01*
X174067989Y-80716591D02*
X157662409Y-80716591D01*
X182118000Y-70866000D02*
X182118000Y-71018400D01*
X182118000Y-71018400D02*
X179240610Y-73895790D01*
X179240610Y-73895790D02*
X178672940Y-73895790D01*
X178672940Y-73895790D02*
X175583135Y-76985595D01*
X175583135Y-76985595D02*
X175583135Y-79201445D01*
X175583135Y-79201445D02*
X174067989Y-80716591D01*
X163359199Y-81166601D02*
X162509200Y-82016600D01*
X174254389Y-81166601D02*
X163359199Y-81166601D01*
X184658000Y-70866000D02*
X184658000Y-71018400D01*
X184658000Y-71018400D02*
X181330600Y-74345800D01*
X181330600Y-74345800D02*
X178859338Y-74345800D01*
X178859338Y-74345800D02*
X176033145Y-77171995D01*
X176033145Y-77171995D02*
X176033145Y-79387845D01*
X176033145Y-79387845D02*
X174254389Y-81166601D01*
X130784600Y-98653600D02*
X130835400Y-98602800D01*
X125552200Y-98653600D02*
X130784600Y-98653600D01*
X130835400Y-100052800D02*
X130835400Y-98602800D01*
X130835400Y-101526000D02*
X130835400Y-100052800D01*
X133982800Y-104673400D02*
X130835400Y-101526000D01*
X135432800Y-104673400D02*
X133982800Y-104673400D01*
X130835400Y-113842800D02*
X130835400Y-108077000D01*
X119289200Y-96530800D02*
X119289200Y-92884600D01*
X130835400Y-108077000D02*
X119289200Y-96530800D01*
X135032800Y-107213400D02*
X135432800Y-107213400D01*
X132035399Y-110210801D02*
X135032800Y-107213400D01*
X132035399Y-112642801D02*
X132035399Y-110210801D01*
X130835400Y-113842800D02*
X132035399Y-112642801D01*
X119289200Y-107630600D02*
X125552200Y-113893600D01*
X119289200Y-102884600D02*
X119289200Y-107630600D01*
X151244401Y-99453599D02*
X152044400Y-98653600D01*
X143484600Y-107213400D02*
X151244401Y-99453599D01*
X143052800Y-107213400D02*
X143484600Y-107213400D01*
X156489400Y-103098600D02*
X157403800Y-103098600D01*
X152044400Y-98653600D02*
X156489400Y-103098600D01*
X147955000Y-99835770D02*
X147955000Y-98704400D01*
X147955000Y-101221200D02*
X147955000Y-99835770D01*
X144502800Y-104673400D02*
X147955000Y-101221200D01*
X143052800Y-104673400D02*
X144502800Y-104673400D01*
D28*
G36*
X116546406Y-69165887D02*
G01*
X116254536Y-69602702D01*
X116053492Y-70088065D01*
X115951000Y-70603323D01*
X115951000Y-71128677D01*
X116053492Y-71643935D01*
X116254536Y-72129298D01*
X116546406Y-72566113D01*
X116917887Y-72937594D01*
X117354702Y-73229464D01*
X117840065Y-73430508D01*
X118355323Y-73533000D01*
X118880677Y-73533000D01*
X119395935Y-73430508D01*
X119881298Y-73229464D01*
X120318113Y-72937594D01*
X120689594Y-72566113D01*
X120981464Y-72129298D01*
X121037001Y-71995219D01*
X121109203Y-72083197D01*
X121337395Y-72270469D01*
X121597737Y-72409625D01*
X121880224Y-72495316D01*
X122174000Y-72524251D01*
X122467777Y-72495316D01*
X122750264Y-72409625D01*
X123010606Y-72270469D01*
X123238797Y-72083197D01*
X123426069Y-71855006D01*
X123444000Y-71821459D01*
X123461931Y-71855006D01*
X123649203Y-72083197D01*
X123877395Y-72270469D01*
X124137737Y-72409625D01*
X124420224Y-72495316D01*
X124714000Y-72524251D01*
X125007777Y-72495316D01*
X125290264Y-72409625D01*
X125550606Y-72270469D01*
X125778797Y-72083197D01*
X125966069Y-71855006D01*
X125984000Y-71821459D01*
X126001931Y-71855006D01*
X126189203Y-72083197D01*
X126417395Y-72270469D01*
X126677737Y-72409625D01*
X126960224Y-72495316D01*
X127254000Y-72524251D01*
X127547777Y-72495316D01*
X127830264Y-72409625D01*
X128090606Y-72270469D01*
X128318797Y-72083197D01*
X128506069Y-71855006D01*
X128524000Y-71821459D01*
X128541931Y-71855006D01*
X128729203Y-72083197D01*
X128957395Y-72270469D01*
X129217737Y-72409625D01*
X129500224Y-72495316D01*
X129794000Y-72524251D01*
X130087777Y-72495316D01*
X130370264Y-72409625D01*
X130630606Y-72270469D01*
X130858797Y-72083197D01*
X131046069Y-71855006D01*
X131064000Y-71821459D01*
X131081931Y-71855006D01*
X131269203Y-72083197D01*
X131446169Y-72228429D01*
X127225598Y-76449001D01*
X127196600Y-76472799D01*
X127172802Y-76501797D01*
X127172801Y-76501798D01*
X127101626Y-76588524D01*
X127031054Y-76720554D01*
X127004044Y-76809599D01*
X126987598Y-76863814D01*
X126977730Y-76964000D01*
X126972924Y-77012800D01*
X126976601Y-77050132D01*
X126976600Y-80840605D01*
X126907586Y-80877494D01*
X126681466Y-81063066D01*
X126495894Y-81289186D01*
X126466600Y-81343991D01*
X126437306Y-81289186D01*
X126251734Y-81063066D01*
X126025614Y-80877494D01*
X125767634Y-80739601D01*
X125487711Y-80654687D01*
X125269550Y-80633200D01*
X125123650Y-80633200D01*
X124905489Y-80654687D01*
X124625566Y-80739601D01*
X124367586Y-80877494D01*
X124141466Y-81063066D01*
X123955894Y-81289186D01*
X123818001Y-81547166D01*
X123733087Y-81827089D01*
X123704415Y-82118200D01*
X123733087Y-82409311D01*
X123818001Y-82689234D01*
X123955894Y-82947214D01*
X124141466Y-83173334D01*
X124310636Y-83312169D01*
X124113586Y-83417494D01*
X123887466Y-83603066D01*
X123701894Y-83829186D01*
X123564001Y-84087166D01*
X123479087Y-84367089D01*
X123450415Y-84658200D01*
X123479087Y-84949311D01*
X123564001Y-85229234D01*
X123701894Y-85487214D01*
X123887466Y-85713334D01*
X124113586Y-85898906D01*
X124310636Y-86004231D01*
X124141466Y-86143066D01*
X123955894Y-86369186D01*
X123818001Y-86627166D01*
X123733087Y-86907089D01*
X123704415Y-87198200D01*
X123733087Y-87489311D01*
X123818001Y-87769234D01*
X123955894Y-88027214D01*
X124141466Y-88253334D01*
X124310636Y-88392169D01*
X124113586Y-88497494D01*
X123887466Y-88683066D01*
X123701894Y-88909186D01*
X123564001Y-89167166D01*
X123479087Y-89447089D01*
X123450415Y-89738200D01*
X123479087Y-90029311D01*
X123564001Y-90309234D01*
X123701894Y-90567214D01*
X123887466Y-90793334D01*
X124113586Y-90978906D01*
X124371566Y-91116799D01*
X124651489Y-91201713D01*
X124869650Y-91223200D01*
X125015550Y-91223200D01*
X125233711Y-91201713D01*
X125513634Y-91116799D01*
X125771614Y-90978906D01*
X125997734Y-90793334D01*
X126022207Y-90763513D01*
X126043098Y-90832380D01*
X126102063Y-90942694D01*
X126181415Y-91039385D01*
X126278106Y-91118737D01*
X126388420Y-91177702D01*
X126508118Y-91214012D01*
X126632600Y-91226272D01*
X128332600Y-91226272D01*
X128457082Y-91214012D01*
X128576780Y-91177702D01*
X128687094Y-91118737D01*
X128783785Y-91039385D01*
X128863137Y-90942694D01*
X128922102Y-90832380D01*
X128958412Y-90712682D01*
X128970672Y-90588200D01*
X128970672Y-90392526D01*
X129006876Y-90373174D01*
X129122601Y-90278201D01*
X129146404Y-90249197D01*
X129604889Y-89790713D01*
X129625887Y-90003911D01*
X129710801Y-90283834D01*
X129848694Y-90541814D01*
X130034266Y-90767934D01*
X130260386Y-90953506D01*
X130518366Y-91091399D01*
X130798289Y-91176313D01*
X131016450Y-91197800D01*
X131162350Y-91197800D01*
X131380511Y-91176313D01*
X131660434Y-91091399D01*
X131918414Y-90953506D01*
X132144534Y-90767934D01*
X132169007Y-90738113D01*
X132189898Y-90806980D01*
X132248863Y-90917294D01*
X132328215Y-91013985D01*
X132424906Y-91093337D01*
X132535220Y-91152302D01*
X132654918Y-91188612D01*
X132779400Y-91200872D01*
X134479400Y-91200872D01*
X134603882Y-91188612D01*
X134723580Y-91152302D01*
X134833894Y-91093337D01*
X134930585Y-91013985D01*
X135009937Y-90917294D01*
X135068902Y-90806980D01*
X135105212Y-90687282D01*
X135117472Y-90562800D01*
X135117472Y-88862800D01*
X135105212Y-88738318D01*
X135068902Y-88618620D01*
X135009937Y-88508306D01*
X134930585Y-88411615D01*
X134833894Y-88332263D01*
X134820277Y-88324985D01*
X134938534Y-88227934D01*
X135124106Y-88001814D01*
X135261999Y-87743834D01*
X135346913Y-87463911D01*
X135375585Y-87172800D01*
X135346913Y-86881689D01*
X135261999Y-86601766D01*
X135124106Y-86343786D01*
X134938534Y-86117666D01*
X134712414Y-85932094D01*
X134515364Y-85826769D01*
X134684534Y-85687934D01*
X134870106Y-85461814D01*
X135007999Y-85203834D01*
X135092913Y-84923911D01*
X135121585Y-84632800D01*
X135092913Y-84341689D01*
X135007999Y-84061766D01*
X134870106Y-83803786D01*
X134684534Y-83577666D01*
X134515364Y-83438831D01*
X134712414Y-83333506D01*
X134938534Y-83147934D01*
X135124106Y-82921814D01*
X135261999Y-82663834D01*
X135346913Y-82383911D01*
X135375585Y-82092800D01*
X135346913Y-81801689D01*
X135261999Y-81521766D01*
X135124106Y-81263786D01*
X134938534Y-81037666D01*
X134712414Y-80852094D01*
X134454434Y-80714201D01*
X134174511Y-80629287D01*
X133956350Y-80607800D01*
X133810450Y-80607800D01*
X133592289Y-80629287D01*
X133312366Y-80714201D01*
X133054386Y-80852094D01*
X132828266Y-81037666D01*
X132642694Y-81263786D01*
X132613400Y-81318591D01*
X132584106Y-81263786D01*
X132398534Y-81037666D01*
X132172414Y-80852094D01*
X131914434Y-80714201D01*
X131634511Y-80629287D01*
X131416350Y-80607800D01*
X131270450Y-80607800D01*
X131052289Y-80629287D01*
X130772366Y-80714201D01*
X130674399Y-80766565D01*
X130674399Y-77665812D01*
X133236092Y-75104120D01*
X143307888Y-75104120D01*
X141525798Y-76886211D01*
X141496800Y-76910009D01*
X141473002Y-76939007D01*
X141473001Y-76939008D01*
X141401826Y-77025734D01*
X141331254Y-77157764D01*
X141308167Y-77233875D01*
X141287798Y-77301024D01*
X141281694Y-77362994D01*
X141273124Y-77450010D01*
X141276801Y-77487342D01*
X141276800Y-80668855D01*
X141262398Y-80716333D01*
X141255371Y-80787683D01*
X141182386Y-80826694D01*
X140956266Y-81012266D01*
X140770694Y-81238386D01*
X140741400Y-81293191D01*
X140712106Y-81238386D01*
X140526534Y-81012266D01*
X140300414Y-80826694D01*
X140042434Y-80688801D01*
X139762511Y-80603887D01*
X139544350Y-80582400D01*
X139398450Y-80582400D01*
X139180289Y-80603887D01*
X138900366Y-80688801D01*
X138642386Y-80826694D01*
X138416266Y-81012266D01*
X138230694Y-81238386D01*
X138092801Y-81496366D01*
X138007887Y-81776289D01*
X137979215Y-82067400D01*
X138007887Y-82358511D01*
X138092801Y-82638434D01*
X138230694Y-82896414D01*
X138416266Y-83122534D01*
X138585436Y-83261369D01*
X138388386Y-83366694D01*
X138162266Y-83552266D01*
X137976694Y-83778386D01*
X137838801Y-84036366D01*
X137753887Y-84316289D01*
X137725215Y-84607400D01*
X137753887Y-84898511D01*
X137838801Y-85178434D01*
X137976694Y-85436414D01*
X138162266Y-85662534D01*
X138388386Y-85848106D01*
X138585436Y-85953431D01*
X138416266Y-86092266D01*
X138230694Y-86318386D01*
X138092801Y-86576366D01*
X138007887Y-86856289D01*
X137979215Y-87147400D01*
X138007887Y-87438511D01*
X138092801Y-87718434D01*
X138230694Y-87976414D01*
X138416266Y-88202534D01*
X138585436Y-88341369D01*
X138388386Y-88446694D01*
X138162266Y-88632266D01*
X137976694Y-88858386D01*
X137838801Y-89116366D01*
X137753887Y-89396289D01*
X137725215Y-89687400D01*
X137753887Y-89978511D01*
X137838801Y-90258434D01*
X137976694Y-90516414D01*
X138162266Y-90742534D01*
X138388386Y-90928106D01*
X138646366Y-91065999D01*
X138926289Y-91150913D01*
X139144450Y-91172400D01*
X139290350Y-91172400D01*
X139508511Y-91150913D01*
X139788434Y-91065999D01*
X140046414Y-90928106D01*
X140272534Y-90742534D01*
X140297007Y-90712713D01*
X140317898Y-90781580D01*
X140376863Y-90891894D01*
X140456215Y-90988585D01*
X140552906Y-91067937D01*
X140663220Y-91126902D01*
X140782918Y-91163212D01*
X140907400Y-91175472D01*
X142607400Y-91175472D01*
X142731882Y-91163212D01*
X142851580Y-91126902D01*
X142961894Y-91067937D01*
X143058585Y-90988585D01*
X143137937Y-90891894D01*
X143196902Y-90781580D01*
X143233212Y-90661882D01*
X143245472Y-90537400D01*
X143245472Y-90341726D01*
X143281676Y-90322374D01*
X143397401Y-90227401D01*
X143421204Y-90198397D01*
X143877411Y-89742190D01*
X143900687Y-89978511D01*
X143985601Y-90258434D01*
X144123494Y-90516414D01*
X144309066Y-90742534D01*
X144535186Y-90928106D01*
X144793166Y-91065999D01*
X145073089Y-91150913D01*
X145291250Y-91172400D01*
X145437150Y-91172400D01*
X145655311Y-91150913D01*
X145935234Y-91065999D01*
X146193214Y-90928106D01*
X146419334Y-90742534D01*
X146443807Y-90712713D01*
X146464698Y-90781580D01*
X146523663Y-90891894D01*
X146603015Y-90988585D01*
X146699706Y-91067937D01*
X146810020Y-91126902D01*
X146929718Y-91163212D01*
X147054200Y-91175472D01*
X148754200Y-91175472D01*
X148878682Y-91163212D01*
X148998380Y-91126902D01*
X149108694Y-91067937D01*
X149205385Y-90988585D01*
X149284737Y-90891894D01*
X149343702Y-90781580D01*
X149380012Y-90661882D01*
X149392272Y-90537400D01*
X149392272Y-90447400D01*
X149644878Y-90447400D01*
X149682200Y-90451076D01*
X149719522Y-90447400D01*
X149719533Y-90447400D01*
X149831186Y-90436403D01*
X149974447Y-90392946D01*
X150106476Y-90322374D01*
X150222201Y-90227401D01*
X150246004Y-90198397D01*
X152534382Y-87910020D01*
X152556294Y-87951014D01*
X152741866Y-88177134D01*
X152783001Y-88210892D01*
X152783001Y-88384405D01*
X152713986Y-88421294D01*
X152487866Y-88606866D01*
X152302294Y-88832986D01*
X152164401Y-89090966D01*
X152079487Y-89370889D01*
X152050815Y-89662000D01*
X152079487Y-89953111D01*
X152164401Y-90233034D01*
X152302294Y-90491014D01*
X152487866Y-90717134D01*
X152713986Y-90902706D01*
X152971966Y-91040599D01*
X153251889Y-91125513D01*
X153470050Y-91147000D01*
X153615950Y-91147000D01*
X153834111Y-91125513D01*
X154114034Y-91040599D01*
X154372014Y-90902706D01*
X154598134Y-90717134D01*
X154622607Y-90687313D01*
X154643498Y-90756180D01*
X154702463Y-90866494D01*
X154781815Y-90963185D01*
X154878506Y-91042537D01*
X154988820Y-91101502D01*
X155108518Y-91137812D01*
X155233000Y-91150072D01*
X156933000Y-91150072D01*
X157057482Y-91137812D01*
X157177180Y-91101502D01*
X157287494Y-91042537D01*
X157384185Y-90963185D01*
X157463537Y-90866494D01*
X157522502Y-90756180D01*
X157558812Y-90636482D01*
X157571072Y-90512000D01*
X157571072Y-90422000D01*
X157913476Y-90422000D01*
X157950798Y-90425676D01*
X157988120Y-90422000D01*
X157988131Y-90422000D01*
X158099784Y-90411003D01*
X158243045Y-90367546D01*
X158375074Y-90296974D01*
X158381525Y-90291680D01*
X158474494Y-90465614D01*
X158660066Y-90691734D01*
X158886186Y-90877306D01*
X159144166Y-91015199D01*
X159424089Y-91100113D01*
X159642250Y-91121600D01*
X159788150Y-91121600D01*
X160006311Y-91100113D01*
X160286234Y-91015199D01*
X160544214Y-90877306D01*
X160770334Y-90691734D01*
X160794807Y-90661913D01*
X160815698Y-90730780D01*
X160874663Y-90841094D01*
X160954015Y-90937785D01*
X161050706Y-91017137D01*
X161161020Y-91076102D01*
X161280718Y-91112412D01*
X161405200Y-91124672D01*
X163105200Y-91124672D01*
X163229682Y-91112412D01*
X163349380Y-91076102D01*
X163459694Y-91017137D01*
X163556385Y-90937785D01*
X163635737Y-90841094D01*
X163694702Y-90730780D01*
X163731012Y-90611082D01*
X163743272Y-90486600D01*
X163743272Y-90396600D01*
X174384478Y-90396600D01*
X174421800Y-90400276D01*
X174459122Y-90396600D01*
X174459133Y-90396600D01*
X174570786Y-90385603D01*
X174714047Y-90342146D01*
X174846076Y-90271574D01*
X174961801Y-90176601D01*
X174985604Y-90147597D01*
X178421392Y-86711810D01*
X178416015Y-86766400D01*
X178444687Y-87057511D01*
X178529601Y-87337434D01*
X178667494Y-87595414D01*
X178853066Y-87821534D01*
X179079186Y-88007106D01*
X179337166Y-88144999D01*
X179617089Y-88229913D01*
X179835250Y-88251400D01*
X179981150Y-88251400D01*
X180199311Y-88229913D01*
X180479234Y-88144999D01*
X180737214Y-88007106D01*
X180963334Y-87821534D01*
X181148906Y-87595414D01*
X181178200Y-87540609D01*
X181207494Y-87595414D01*
X181393066Y-87821534D01*
X181619186Y-88007106D01*
X181877166Y-88144999D01*
X182157089Y-88229913D01*
X182375250Y-88251400D01*
X182521150Y-88251400D01*
X182739311Y-88229913D01*
X183019234Y-88144999D01*
X183277214Y-88007106D01*
X183503334Y-87821534D01*
X183688906Y-87595414D01*
X183826799Y-87337434D01*
X183911713Y-87057511D01*
X183940385Y-86766400D01*
X183911713Y-86475289D01*
X183826799Y-86195366D01*
X183688906Y-85937386D01*
X183503334Y-85711266D01*
X183334164Y-85572431D01*
X183531214Y-85467106D01*
X183757334Y-85281534D01*
X183942906Y-85055414D01*
X184080799Y-84797434D01*
X184165713Y-84517511D01*
X184194385Y-84226400D01*
X184165713Y-83935289D01*
X184080799Y-83655366D01*
X183942906Y-83397386D01*
X183757334Y-83171266D01*
X183531214Y-82985694D01*
X183334164Y-82880369D01*
X183503334Y-82741534D01*
X183688906Y-82515414D01*
X183826799Y-82257434D01*
X183911713Y-81977511D01*
X183940385Y-81686400D01*
X183911713Y-81395289D01*
X183826799Y-81115366D01*
X183688906Y-80857386D01*
X183503334Y-80631266D01*
X183334164Y-80492431D01*
X183531214Y-80387106D01*
X183757334Y-80201534D01*
X183942906Y-79975414D01*
X184080799Y-79717434D01*
X184165713Y-79437511D01*
X184194385Y-79146400D01*
X184165713Y-78855289D01*
X184080799Y-78575366D01*
X183942906Y-78317386D01*
X183757334Y-78091266D01*
X183531214Y-77905694D01*
X183510460Y-77894601D01*
X184967285Y-77894601D01*
X184928463Y-77941906D01*
X184869498Y-78052220D01*
X184833188Y-78171918D01*
X184820928Y-78296400D01*
X184820928Y-79996400D01*
X184833188Y-80120882D01*
X184869498Y-80240580D01*
X184928463Y-80350894D01*
X185007815Y-80447585D01*
X185104506Y-80526937D01*
X185118123Y-80534215D01*
X184999866Y-80631266D01*
X184814294Y-80857386D01*
X184676401Y-81115366D01*
X184591487Y-81395289D01*
X184562815Y-81686400D01*
X184591487Y-81977511D01*
X184676401Y-82257434D01*
X184814294Y-82515414D01*
X184999866Y-82741534D01*
X185225986Y-82927106D01*
X185423036Y-83032431D01*
X185253866Y-83171266D01*
X185068294Y-83397386D01*
X184930401Y-83655366D01*
X184845487Y-83935289D01*
X184816815Y-84226400D01*
X184845487Y-84517511D01*
X184930401Y-84797434D01*
X185068294Y-85055414D01*
X185253866Y-85281534D01*
X185423036Y-85420369D01*
X185225986Y-85525694D01*
X184999866Y-85711266D01*
X184814294Y-85937386D01*
X184676401Y-86195366D01*
X184591487Y-86475289D01*
X184562815Y-86766400D01*
X184591487Y-87057511D01*
X184676401Y-87337434D01*
X184814294Y-87595414D01*
X184999866Y-87821534D01*
X185225986Y-88007106D01*
X185295001Y-88043995D01*
X185295001Y-88278468D01*
X185291324Y-88315800D01*
X185295001Y-88353133D01*
X185304405Y-88448607D01*
X185305998Y-88464785D01*
X185349454Y-88608046D01*
X185420026Y-88740076D01*
X185491201Y-88826802D01*
X185515000Y-88855801D01*
X185543998Y-88879599D01*
X185923000Y-89258602D01*
X185946799Y-89287601D01*
X185966022Y-89303377D01*
X185747198Y-89522201D01*
X185718200Y-89545999D01*
X185694402Y-89574997D01*
X185694401Y-89574998D01*
X185623226Y-89661724D01*
X185603874Y-89697928D01*
X185408200Y-89697928D01*
X185283718Y-89710188D01*
X185164020Y-89746498D01*
X185053706Y-89805463D01*
X184957015Y-89884815D01*
X184877663Y-89981506D01*
X184818698Y-90091820D01*
X184782388Y-90211518D01*
X184770128Y-90336000D01*
X184770128Y-92036000D01*
X184782388Y-92160482D01*
X184818698Y-92280180D01*
X184877663Y-92390494D01*
X184957015Y-92487185D01*
X185053706Y-92566537D01*
X185067323Y-92573815D01*
X184949066Y-92670866D01*
X184763494Y-92896986D01*
X184625601Y-93154966D01*
X184540687Y-93434889D01*
X184512015Y-93726000D01*
X184540687Y-94017111D01*
X184625601Y-94297034D01*
X184763494Y-94555014D01*
X184949066Y-94781134D01*
X185175186Y-94966706D01*
X185372236Y-95072031D01*
X185203066Y-95210866D01*
X185017494Y-95436986D01*
X184879601Y-95694966D01*
X184794687Y-95974889D01*
X184766015Y-96266000D01*
X184794687Y-96557111D01*
X184879601Y-96837034D01*
X185017494Y-97095014D01*
X185203066Y-97321134D01*
X185372236Y-97459969D01*
X185175186Y-97565294D01*
X184949066Y-97750866D01*
X184763494Y-97976986D01*
X184625601Y-98234966D01*
X184540687Y-98514889D01*
X184512015Y-98806000D01*
X184540687Y-99097111D01*
X184625601Y-99377034D01*
X184763494Y-99635014D01*
X184949066Y-99861134D01*
X185175186Y-100046706D01*
X185433166Y-100184599D01*
X185713089Y-100269513D01*
X185931250Y-100291000D01*
X186077150Y-100291000D01*
X186295311Y-100269513D01*
X186370195Y-100246797D01*
X186665398Y-100542000D01*
X185747198Y-101460201D01*
X185718200Y-101483999D01*
X185694402Y-101512997D01*
X185694401Y-101512998D01*
X185623226Y-101599724D01*
X185603874Y-101635928D01*
X185408200Y-101635928D01*
X185283718Y-101648188D01*
X185164020Y-101684498D01*
X185053706Y-101743463D01*
X184957015Y-101822815D01*
X184877663Y-101919506D01*
X184818698Y-102029820D01*
X184782388Y-102149518D01*
X184770128Y-102274000D01*
X184770128Y-103974000D01*
X184782388Y-104098482D01*
X184818698Y-104218180D01*
X184877663Y-104328494D01*
X184957015Y-104425185D01*
X185053706Y-104504537D01*
X185067323Y-104511815D01*
X184949066Y-104608866D01*
X184763494Y-104834986D01*
X184625601Y-105092966D01*
X184540687Y-105372889D01*
X184512015Y-105664000D01*
X184540687Y-105955111D01*
X184625601Y-106235034D01*
X184763494Y-106493014D01*
X184949066Y-106719134D01*
X185175186Y-106904706D01*
X185372236Y-107010031D01*
X185203066Y-107148866D01*
X185017494Y-107374986D01*
X184879601Y-107632966D01*
X184794687Y-107912889D01*
X184766015Y-108204000D01*
X184794687Y-108495111D01*
X184879601Y-108775034D01*
X185017494Y-109033014D01*
X185203066Y-109259134D01*
X185372236Y-109397969D01*
X185175186Y-109503294D01*
X184949066Y-109688866D01*
X184763494Y-109914986D01*
X184625601Y-110172966D01*
X184540687Y-110452889D01*
X184512015Y-110744000D01*
X184540687Y-111035111D01*
X184625601Y-111315034D01*
X184763494Y-111573014D01*
X184949066Y-111799134D01*
X185175186Y-111984706D01*
X185244201Y-112021595D01*
X185244201Y-112256068D01*
X185240524Y-112293400D01*
X185244201Y-112330733D01*
X185255198Y-112442386D01*
X185266415Y-112479364D01*
X185298654Y-112585646D01*
X185369226Y-112717676D01*
X185422592Y-112782702D01*
X185464200Y-112833401D01*
X185493198Y-112857199D01*
X186151601Y-113515602D01*
X186175399Y-113544601D01*
X186291124Y-113639574D01*
X186423153Y-113710146D01*
X186566414Y-113753603D01*
X186678067Y-113764600D01*
X186678075Y-113764600D01*
X186715400Y-113768276D01*
X186752725Y-113764600D01*
X191377078Y-113764600D01*
X191414400Y-113768276D01*
X191451722Y-113764600D01*
X191451733Y-113764600D01*
X191563386Y-113753603D01*
X191706647Y-113710146D01*
X191838676Y-113639574D01*
X191954401Y-113544601D01*
X191978204Y-113515597D01*
X195963229Y-109530573D01*
X195966775Y-109542264D01*
X196105931Y-109802606D01*
X196293203Y-110030797D01*
X196521394Y-110218069D01*
X196554940Y-110236000D01*
X196521394Y-110253931D01*
X196293203Y-110441203D01*
X196105931Y-110669394D01*
X195966775Y-110929736D01*
X195881084Y-111212223D01*
X195852149Y-111506000D01*
X195881084Y-111799777D01*
X195966775Y-112082264D01*
X196105931Y-112342606D01*
X196293203Y-112570797D01*
X196521394Y-112758069D01*
X196558463Y-112777883D01*
X196402698Y-112881961D01*
X196193961Y-113090698D01*
X196029958Y-113336147D01*
X195916990Y-113608875D01*
X195859400Y-113898401D01*
X195859400Y-114193599D01*
X195916990Y-114483125D01*
X196029958Y-114755853D01*
X196193961Y-115001302D01*
X196402698Y-115210039D01*
X196648147Y-115374042D01*
X196920875Y-115487010D01*
X197210401Y-115544600D01*
X197505599Y-115544600D01*
X197795125Y-115487010D01*
X198067853Y-115374042D01*
X198313302Y-115210039D01*
X198522039Y-115001302D01*
X198626117Y-114845537D01*
X198645931Y-114882606D01*
X198833203Y-115110797D01*
X199061394Y-115298069D01*
X199321736Y-115437225D01*
X199604223Y-115522916D01*
X199824381Y-115544600D01*
X199971619Y-115544600D01*
X200191777Y-115522916D01*
X200474264Y-115437225D01*
X200734606Y-115298069D01*
X200962797Y-115110797D01*
X201150069Y-114882606D01*
X201289225Y-114622264D01*
X201374916Y-114339777D01*
X201403851Y-114046000D01*
X201374916Y-113752223D01*
X201289225Y-113469736D01*
X201150069Y-113209394D01*
X200962797Y-112981203D01*
X200734606Y-112793931D01*
X200701060Y-112776000D01*
X200734606Y-112758069D01*
X200962797Y-112570797D01*
X201150069Y-112342606D01*
X201289225Y-112082264D01*
X201374916Y-111799777D01*
X201403851Y-111506000D01*
X201374916Y-111212223D01*
X201289225Y-110929736D01*
X201150069Y-110669394D01*
X200962797Y-110441203D01*
X200734606Y-110253931D01*
X200701060Y-110236000D01*
X200734606Y-110218069D01*
X200962797Y-110030797D01*
X201150069Y-109802606D01*
X201289225Y-109542264D01*
X201374916Y-109259777D01*
X201403851Y-108966000D01*
X201374916Y-108672223D01*
X201289225Y-108389736D01*
X201150069Y-108129394D01*
X200962797Y-107901203D01*
X200734606Y-107713931D01*
X200701060Y-107696000D01*
X200734606Y-107678069D01*
X200962797Y-107490797D01*
X201150069Y-107262606D01*
X201289225Y-107002264D01*
X201374916Y-106719777D01*
X201403851Y-106426000D01*
X201374916Y-106132223D01*
X201289225Y-105849736D01*
X201150069Y-105589394D01*
X200962797Y-105361203D01*
X200734606Y-105173931D01*
X200701060Y-105156000D01*
X200734606Y-105138069D01*
X200962797Y-104950797D01*
X201150069Y-104722606D01*
X201289225Y-104462264D01*
X201374916Y-104179777D01*
X201403851Y-103886000D01*
X201374916Y-103592223D01*
X201289225Y-103309736D01*
X201150069Y-103049394D01*
X200962797Y-102821203D01*
X200734606Y-102633931D01*
X200701060Y-102616000D01*
X200734606Y-102598069D01*
X200962797Y-102410797D01*
X201150069Y-102182606D01*
X201289225Y-101922264D01*
X201374916Y-101639777D01*
X201403851Y-101346000D01*
X201374916Y-101052223D01*
X201289225Y-100769736D01*
X201150069Y-100509394D01*
X200962797Y-100281203D01*
X200734606Y-100093931D01*
X200701060Y-100076000D01*
X200734606Y-100058069D01*
X200962797Y-99870797D01*
X201150069Y-99642606D01*
X201289225Y-99382264D01*
X201374916Y-99099777D01*
X201403851Y-98806000D01*
X201374916Y-98512223D01*
X201289225Y-98229736D01*
X201150069Y-97969394D01*
X200962797Y-97741203D01*
X200734606Y-97553931D01*
X200701060Y-97536000D01*
X200734606Y-97518069D01*
X200962797Y-97330797D01*
X201150069Y-97102606D01*
X201289225Y-96842264D01*
X201374916Y-96559777D01*
X201403851Y-96266000D01*
X201374916Y-95972223D01*
X201289225Y-95689736D01*
X201150069Y-95429394D01*
X200962797Y-95201203D01*
X200734606Y-95013931D01*
X200701060Y-94996000D01*
X200734606Y-94978069D01*
X200962797Y-94790797D01*
X201150069Y-94562606D01*
X201289225Y-94302264D01*
X201374916Y-94019777D01*
X201403851Y-93726000D01*
X201374916Y-93432223D01*
X201289225Y-93149736D01*
X201150069Y-92889394D01*
X200962797Y-92661203D01*
X200734606Y-92473931D01*
X200701060Y-92456000D01*
X200734606Y-92438069D01*
X200962797Y-92250797D01*
X201150069Y-92022606D01*
X201289225Y-91762264D01*
X201374916Y-91479777D01*
X201403851Y-91186000D01*
X201374916Y-90892223D01*
X201289225Y-90609736D01*
X201150069Y-90349394D01*
X200962797Y-90121203D01*
X200734606Y-89933931D01*
X200701060Y-89916000D01*
X200734606Y-89898069D01*
X200962797Y-89710797D01*
X201150069Y-89482606D01*
X201289225Y-89222264D01*
X201374916Y-88939777D01*
X201403851Y-88646000D01*
X201374916Y-88352223D01*
X201289225Y-88069736D01*
X201150069Y-87809394D01*
X200962797Y-87581203D01*
X200734606Y-87393931D01*
X200701060Y-87376000D01*
X200734606Y-87358069D01*
X200962797Y-87170797D01*
X201150069Y-86942606D01*
X201289225Y-86682264D01*
X201374916Y-86399777D01*
X201403851Y-86106000D01*
X201374916Y-85812223D01*
X201289225Y-85529736D01*
X201150069Y-85269394D01*
X200962797Y-85041203D01*
X200734606Y-84853931D01*
X200701060Y-84836000D01*
X200734606Y-84818069D01*
X200962797Y-84630797D01*
X201150069Y-84402606D01*
X201289225Y-84142264D01*
X201374916Y-83859777D01*
X201403851Y-83566000D01*
X201374916Y-83272223D01*
X201289225Y-82989736D01*
X201150069Y-82729394D01*
X200962797Y-82501203D01*
X200734606Y-82313931D01*
X200701060Y-82296000D01*
X200734606Y-82278069D01*
X200962797Y-82090797D01*
X201150069Y-81862606D01*
X201289225Y-81602264D01*
X201374916Y-81319777D01*
X201403851Y-81026000D01*
X201374916Y-80732223D01*
X201289225Y-80449736D01*
X201150069Y-80189394D01*
X200962797Y-79961203D01*
X200734606Y-79773931D01*
X200701060Y-79756000D01*
X200734606Y-79738069D01*
X200962797Y-79550797D01*
X201150069Y-79322606D01*
X201289225Y-79062264D01*
X201374916Y-78779777D01*
X201403851Y-78486000D01*
X201374916Y-78192223D01*
X201289225Y-77909736D01*
X201150069Y-77649394D01*
X200962797Y-77421203D01*
X200734606Y-77233931D01*
X200701060Y-77216000D01*
X200734606Y-77198069D01*
X200962797Y-77010797D01*
X201150069Y-76782606D01*
X201289225Y-76522264D01*
X201374916Y-76239777D01*
X201403851Y-75946000D01*
X201374916Y-75652223D01*
X201289225Y-75369736D01*
X201150069Y-75109394D01*
X200962797Y-74881203D01*
X200734606Y-74693931D01*
X200701060Y-74676000D01*
X200734606Y-74658069D01*
X200962797Y-74470797D01*
X201150069Y-74242606D01*
X201289225Y-73982264D01*
X201374916Y-73699777D01*
X201403851Y-73406000D01*
X201374916Y-73112223D01*
X201289225Y-72829736D01*
X201150069Y-72569394D01*
X200962797Y-72341203D01*
X200734606Y-72153931D01*
X200694567Y-72132530D01*
X200908293Y-71972854D01*
X201104817Y-71754488D01*
X201254964Y-71501978D01*
X201352963Y-71225027D01*
X201232464Y-70993000D01*
X200025000Y-70993000D01*
X200025000Y-71013000D01*
X199771000Y-71013000D01*
X199771000Y-70993000D01*
X197485000Y-70993000D01*
X197485000Y-71013000D01*
X197231000Y-71013000D01*
X197231000Y-70993000D01*
X197211000Y-70993000D01*
X197211000Y-70739000D01*
X197231000Y-70739000D01*
X197231000Y-69532183D01*
X197485000Y-69532183D01*
X197485000Y-70739000D01*
X199771000Y-70739000D01*
X199771000Y-69532183D01*
X199538974Y-69411042D01*
X199388186Y-69456778D01*
X199123056Y-69583316D01*
X198887707Y-69759146D01*
X198691183Y-69977512D01*
X198628000Y-70083770D01*
X198564817Y-69977512D01*
X198368293Y-69759146D01*
X198132944Y-69583316D01*
X197867814Y-69456778D01*
X197717026Y-69411042D01*
X197485000Y-69532183D01*
X197231000Y-69532183D01*
X196998974Y-69411042D01*
X196848186Y-69456778D01*
X196583056Y-69583316D01*
X196347707Y-69759146D01*
X196151183Y-69977512D01*
X196101397Y-70061240D01*
X195911464Y-69602702D01*
X195619594Y-69165887D01*
X195489707Y-69036000D01*
X199603909Y-69036000D01*
X200074334Y-69506426D01*
X200025000Y-69532183D01*
X200025000Y-70739000D01*
X201232464Y-70739000D01*
X201257910Y-70690002D01*
X201728000Y-71160092D01*
X201728001Y-80991115D01*
X201724565Y-81026000D01*
X201738274Y-81165184D01*
X201778872Y-81299019D01*
X201844801Y-81422363D01*
X201905534Y-81496366D01*
X201933526Y-81530475D01*
X201960617Y-81552708D01*
X204268000Y-83860092D01*
X204268001Y-117561907D01*
X202565000Y-119264909D01*
X202565000Y-118863323D01*
X202462508Y-118348065D01*
X202261464Y-117862702D01*
X201969594Y-117425887D01*
X201598113Y-117054406D01*
X201161298Y-116762536D01*
X200675935Y-116561492D01*
X200160677Y-116459000D01*
X199635323Y-116459000D01*
X199120065Y-116561492D01*
X198634702Y-116762536D01*
X198197887Y-117054406D01*
X197826406Y-117425887D01*
X197534536Y-117862702D01*
X197333492Y-118348065D01*
X197231000Y-118863323D01*
X197231000Y-119388677D01*
X197333492Y-119903935D01*
X197534536Y-120389298D01*
X197826406Y-120826113D01*
X197956293Y-120956000D01*
X119289707Y-120956000D01*
X119419594Y-120826113D01*
X119711464Y-120389298D01*
X119912508Y-119903935D01*
X120015000Y-119388677D01*
X120015000Y-118899982D01*
X129819400Y-118899982D01*
X129819400Y-119352019D01*
X129841084Y-119572177D01*
X129926775Y-119854664D01*
X130065931Y-120115006D01*
X130253203Y-120343197D01*
X130481395Y-120530469D01*
X130741737Y-120669625D01*
X131024224Y-120755316D01*
X131318000Y-120784251D01*
X131611777Y-120755316D01*
X131894264Y-120669625D01*
X132154606Y-120530469D01*
X132382797Y-120343197D01*
X132570069Y-120115006D01*
X132588000Y-120081459D01*
X132605931Y-120115006D01*
X132793203Y-120343197D01*
X133021395Y-120530469D01*
X133281737Y-120669625D01*
X133564224Y-120755316D01*
X133858000Y-120784251D01*
X134151777Y-120755316D01*
X134434264Y-120669625D01*
X134694606Y-120530469D01*
X134922797Y-120343197D01*
X135110069Y-120115006D01*
X135128000Y-120081459D01*
X135145931Y-120115006D01*
X135333203Y-120343197D01*
X135561395Y-120530469D01*
X135821737Y-120669625D01*
X136104224Y-120755316D01*
X136398000Y-120784251D01*
X136691777Y-120755316D01*
X136974264Y-120669625D01*
X137234606Y-120530469D01*
X137462797Y-120343197D01*
X137650069Y-120115006D01*
X137668000Y-120081459D01*
X137685931Y-120115006D01*
X137873203Y-120343197D01*
X138101395Y-120530469D01*
X138361737Y-120669625D01*
X138644224Y-120755316D01*
X138938000Y-120784251D01*
X139231777Y-120755316D01*
X139514264Y-120669625D01*
X139774606Y-120530469D01*
X140002797Y-120343197D01*
X140190069Y-120115006D01*
X140211424Y-120075053D01*
X140359514Y-120277729D01*
X140575965Y-120476733D01*
X140827081Y-120629686D01*
X141103211Y-120730709D01*
X141118974Y-120733358D01*
X141351000Y-120612217D01*
X141351000Y-119253000D01*
X141331000Y-119253000D01*
X141331000Y-118999000D01*
X141351000Y-118999000D01*
X141351000Y-117639783D01*
X141605000Y-117639783D01*
X141605000Y-118999000D01*
X141625000Y-118999000D01*
X141625000Y-119253000D01*
X141605000Y-119253000D01*
X141605000Y-120612217D01*
X141837026Y-120733358D01*
X141852789Y-120730709D01*
X142128919Y-120629686D01*
X142380035Y-120476733D01*
X142596486Y-120277729D01*
X142744576Y-120075053D01*
X142765931Y-120115006D01*
X142953203Y-120343197D01*
X143181395Y-120530469D01*
X143441737Y-120669625D01*
X143724224Y-120755316D01*
X144018000Y-120784251D01*
X144311777Y-120755316D01*
X144594264Y-120669625D01*
X144854606Y-120530469D01*
X145082797Y-120343197D01*
X145270069Y-120115006D01*
X145288000Y-120081459D01*
X145305931Y-120115006D01*
X145493203Y-120343197D01*
X145721395Y-120530469D01*
X145981737Y-120669625D01*
X146264224Y-120755316D01*
X146558000Y-120784251D01*
X146851777Y-120755316D01*
X147134264Y-120669625D01*
X147394606Y-120530469D01*
X147622797Y-120343197D01*
X147810069Y-120115006D01*
X147828000Y-120081459D01*
X147845931Y-120115006D01*
X148033203Y-120343197D01*
X148261395Y-120530469D01*
X148521737Y-120669625D01*
X148804224Y-120755316D01*
X149098000Y-120784251D01*
X149391777Y-120755316D01*
X149674264Y-120669625D01*
X149934606Y-120530469D01*
X150162797Y-120343197D01*
X150350069Y-120115006D01*
X150489225Y-119854663D01*
X150574916Y-119572176D01*
X150596600Y-119352018D01*
X150596600Y-118899982D01*
X152679400Y-118899982D01*
X152679400Y-119352019D01*
X152701084Y-119572177D01*
X152786775Y-119854664D01*
X152925931Y-120115006D01*
X153113203Y-120343197D01*
X153341395Y-120530469D01*
X153601737Y-120669625D01*
X153884224Y-120755316D01*
X154178000Y-120784251D01*
X154471777Y-120755316D01*
X154754264Y-120669625D01*
X155014606Y-120530469D01*
X155242797Y-120343197D01*
X155430069Y-120115006D01*
X155448000Y-120081459D01*
X155465931Y-120115006D01*
X155653203Y-120343197D01*
X155881395Y-120530469D01*
X156141737Y-120669625D01*
X156424224Y-120755316D01*
X156718000Y-120784251D01*
X157011777Y-120755316D01*
X157294264Y-120669625D01*
X157554606Y-120530469D01*
X157782797Y-120343197D01*
X157970069Y-120115006D01*
X157988000Y-120081459D01*
X158005931Y-120115006D01*
X158193203Y-120343197D01*
X158421395Y-120530469D01*
X158681737Y-120669625D01*
X158964224Y-120755316D01*
X159258000Y-120784251D01*
X159551777Y-120755316D01*
X159834264Y-120669625D01*
X160094606Y-120530469D01*
X160322797Y-120343197D01*
X160510069Y-120115006D01*
X160528000Y-120081459D01*
X160545931Y-120115006D01*
X160733203Y-120343197D01*
X160961395Y-120530469D01*
X161221737Y-120669625D01*
X161504224Y-120755316D01*
X161798000Y-120784251D01*
X162091777Y-120755316D01*
X162374264Y-120669625D01*
X162634606Y-120530469D01*
X162862797Y-120343197D01*
X163050069Y-120115006D01*
X163068000Y-120081459D01*
X163085931Y-120115006D01*
X163273203Y-120343197D01*
X163501395Y-120530469D01*
X163761737Y-120669625D01*
X164044224Y-120755316D01*
X164338000Y-120784251D01*
X164631777Y-120755316D01*
X164914264Y-120669625D01*
X165174606Y-120530469D01*
X165402797Y-120343197D01*
X165590069Y-120115006D01*
X165608000Y-120081459D01*
X165625931Y-120115006D01*
X165813203Y-120343197D01*
X166041395Y-120530469D01*
X166301737Y-120669625D01*
X166584224Y-120755316D01*
X166878000Y-120784251D01*
X167171777Y-120755316D01*
X167454264Y-120669625D01*
X167714606Y-120530469D01*
X167942797Y-120343197D01*
X168130069Y-120115006D01*
X168148000Y-120081459D01*
X168165931Y-120115006D01*
X168353203Y-120343197D01*
X168581395Y-120530469D01*
X168841737Y-120669625D01*
X169124224Y-120755316D01*
X169418000Y-120784251D01*
X169711777Y-120755316D01*
X169994264Y-120669625D01*
X170254606Y-120530469D01*
X170482797Y-120343197D01*
X170670069Y-120115006D01*
X170688000Y-120081459D01*
X170705931Y-120115006D01*
X170893203Y-120343197D01*
X171121395Y-120530469D01*
X171381737Y-120669625D01*
X171664224Y-120755316D01*
X171958000Y-120784251D01*
X172251777Y-120755316D01*
X172534264Y-120669625D01*
X172794606Y-120530469D01*
X173022797Y-120343197D01*
X173210069Y-120115006D01*
X173349225Y-119854663D01*
X173434916Y-119572176D01*
X173456600Y-119352018D01*
X173456600Y-118899982D01*
X175539400Y-118899982D01*
X175539400Y-119352019D01*
X175561084Y-119572177D01*
X175646775Y-119854664D01*
X175785931Y-120115006D01*
X175973203Y-120343197D01*
X176201395Y-120530469D01*
X176461737Y-120669625D01*
X176744224Y-120755316D01*
X177038000Y-120784251D01*
X177331777Y-120755316D01*
X177614264Y-120669625D01*
X177874606Y-120530469D01*
X178102797Y-120343197D01*
X178290069Y-120115006D01*
X178308000Y-120081459D01*
X178325931Y-120115006D01*
X178513203Y-120343197D01*
X178741395Y-120530469D01*
X179001737Y-120669625D01*
X179284224Y-120755316D01*
X179578000Y-120784251D01*
X179871777Y-120755316D01*
X180154264Y-120669625D01*
X180414606Y-120530469D01*
X180642797Y-120343197D01*
X180830069Y-120115006D01*
X180848000Y-120081459D01*
X180865931Y-120115006D01*
X181053203Y-120343197D01*
X181281395Y-120530469D01*
X181541737Y-120669625D01*
X181824224Y-120755316D01*
X182118000Y-120784251D01*
X182411777Y-120755316D01*
X182694264Y-120669625D01*
X182954606Y-120530469D01*
X183182797Y-120343197D01*
X183370069Y-120115006D01*
X183388000Y-120081459D01*
X183405931Y-120115006D01*
X183593203Y-120343197D01*
X183821395Y-120530469D01*
X184081737Y-120669625D01*
X184364224Y-120755316D01*
X184658000Y-120784251D01*
X184951777Y-120755316D01*
X185234264Y-120669625D01*
X185494606Y-120530469D01*
X185722797Y-120343197D01*
X185910069Y-120115006D01*
X185928000Y-120081459D01*
X185945931Y-120115006D01*
X186133203Y-120343197D01*
X186361395Y-120530469D01*
X186621737Y-120669625D01*
X186904224Y-120755316D01*
X187198000Y-120784251D01*
X187491777Y-120755316D01*
X187774264Y-120669625D01*
X188034606Y-120530469D01*
X188262797Y-120343197D01*
X188450069Y-120115006D01*
X188468000Y-120081459D01*
X188485931Y-120115006D01*
X188673203Y-120343197D01*
X188901395Y-120530469D01*
X189161737Y-120669625D01*
X189444224Y-120755316D01*
X189738000Y-120784251D01*
X190031777Y-120755316D01*
X190314264Y-120669625D01*
X190574606Y-120530469D01*
X190802797Y-120343197D01*
X190990069Y-120115006D01*
X191008000Y-120081459D01*
X191025931Y-120115006D01*
X191213203Y-120343197D01*
X191441395Y-120530469D01*
X191701737Y-120669625D01*
X191984224Y-120755316D01*
X192278000Y-120784251D01*
X192571777Y-120755316D01*
X192854264Y-120669625D01*
X193114606Y-120530469D01*
X193342797Y-120343197D01*
X193530069Y-120115006D01*
X193548000Y-120081459D01*
X193565931Y-120115006D01*
X193753203Y-120343197D01*
X193981395Y-120530469D01*
X194241737Y-120669625D01*
X194524224Y-120755316D01*
X194818000Y-120784251D01*
X195111777Y-120755316D01*
X195394264Y-120669625D01*
X195654606Y-120530469D01*
X195882797Y-120343197D01*
X196070069Y-120115006D01*
X196209225Y-119854663D01*
X196294916Y-119572176D01*
X196316600Y-119352018D01*
X196316600Y-118899981D01*
X196294916Y-118679823D01*
X196209225Y-118397336D01*
X196070069Y-118136994D01*
X195882797Y-117908803D01*
X195654605Y-117721531D01*
X195394263Y-117582375D01*
X195111776Y-117496684D01*
X194818000Y-117467749D01*
X194524223Y-117496684D01*
X194241736Y-117582375D01*
X193981394Y-117721531D01*
X193753203Y-117908803D01*
X193565931Y-118136995D01*
X193548000Y-118170541D01*
X193530069Y-118136994D01*
X193342797Y-117908803D01*
X193114605Y-117721531D01*
X192854263Y-117582375D01*
X192571776Y-117496684D01*
X192278000Y-117467749D01*
X191984223Y-117496684D01*
X191701736Y-117582375D01*
X191441394Y-117721531D01*
X191213203Y-117908803D01*
X191025931Y-118136995D01*
X191008000Y-118170541D01*
X190990069Y-118136994D01*
X190802797Y-117908803D01*
X190574605Y-117721531D01*
X190314263Y-117582375D01*
X190031776Y-117496684D01*
X189738000Y-117467749D01*
X189444223Y-117496684D01*
X189161736Y-117582375D01*
X188901394Y-117721531D01*
X188673203Y-117908803D01*
X188485931Y-118136995D01*
X188468000Y-118170541D01*
X188450069Y-118136994D01*
X188262797Y-117908803D01*
X188034605Y-117721531D01*
X187774263Y-117582375D01*
X187491776Y-117496684D01*
X187198000Y-117467749D01*
X186904223Y-117496684D01*
X186621736Y-117582375D01*
X186361394Y-117721531D01*
X186133203Y-117908803D01*
X185945931Y-118136995D01*
X185928000Y-118170541D01*
X185910069Y-118136994D01*
X185722797Y-117908803D01*
X185494605Y-117721531D01*
X185234263Y-117582375D01*
X184951776Y-117496684D01*
X184658000Y-117467749D01*
X184364223Y-117496684D01*
X184081736Y-117582375D01*
X183821394Y-117721531D01*
X183593203Y-117908803D01*
X183405931Y-118136995D01*
X183388000Y-118170541D01*
X183370069Y-118136994D01*
X183182797Y-117908803D01*
X182954605Y-117721531D01*
X182694263Y-117582375D01*
X182411776Y-117496684D01*
X182118000Y-117467749D01*
X181824223Y-117496684D01*
X181541736Y-117582375D01*
X181281394Y-117721531D01*
X181053203Y-117908803D01*
X180865931Y-118136995D01*
X180848000Y-118170541D01*
X180830069Y-118136994D01*
X180642797Y-117908803D01*
X180414605Y-117721531D01*
X180154263Y-117582375D01*
X179871776Y-117496684D01*
X179578000Y-117467749D01*
X179284223Y-117496684D01*
X179001736Y-117582375D01*
X178741394Y-117721531D01*
X178513203Y-117908803D01*
X178325931Y-118136995D01*
X178308000Y-118170541D01*
X178290069Y-118136994D01*
X178102797Y-117908803D01*
X177874605Y-117721531D01*
X177614263Y-117582375D01*
X177331776Y-117496684D01*
X177038000Y-117467749D01*
X176744223Y-117496684D01*
X176461736Y-117582375D01*
X176201394Y-117721531D01*
X175973203Y-117908803D01*
X175785931Y-118136995D01*
X175646775Y-118397337D01*
X175561084Y-118679824D01*
X175539400Y-118899982D01*
X173456600Y-118899982D01*
X173456600Y-118899981D01*
X173434916Y-118679823D01*
X173349225Y-118397336D01*
X173210069Y-118136994D01*
X173022797Y-117908803D01*
X172794605Y-117721531D01*
X172534263Y-117582375D01*
X172251776Y-117496684D01*
X171958000Y-117467749D01*
X171664223Y-117496684D01*
X171381736Y-117582375D01*
X171121394Y-117721531D01*
X170893203Y-117908803D01*
X170705931Y-118136995D01*
X170688000Y-118170541D01*
X170670069Y-118136994D01*
X170482797Y-117908803D01*
X170254605Y-117721531D01*
X169994263Y-117582375D01*
X169711776Y-117496684D01*
X169418000Y-117467749D01*
X169124223Y-117496684D01*
X168841736Y-117582375D01*
X168581394Y-117721531D01*
X168353203Y-117908803D01*
X168165931Y-118136995D01*
X168148000Y-118170541D01*
X168130069Y-118136994D01*
X167942797Y-117908803D01*
X167714605Y-117721531D01*
X167454263Y-117582375D01*
X167171776Y-117496684D01*
X166878000Y-117467749D01*
X166584223Y-117496684D01*
X166301736Y-117582375D01*
X166041394Y-117721531D01*
X165813203Y-117908803D01*
X165625931Y-118136995D01*
X165608000Y-118170541D01*
X165590069Y-118136994D01*
X165402797Y-117908803D01*
X165174605Y-117721531D01*
X164914263Y-117582375D01*
X164631776Y-117496684D01*
X164338000Y-117467749D01*
X164044223Y-117496684D01*
X163761736Y-117582375D01*
X163501394Y-117721531D01*
X163273203Y-117908803D01*
X163085931Y-118136995D01*
X163068000Y-118170541D01*
X163050069Y-118136994D01*
X162862797Y-117908803D01*
X162634605Y-117721531D01*
X162374263Y-117582375D01*
X162091776Y-117496684D01*
X161798000Y-117467749D01*
X161504223Y-117496684D01*
X161221736Y-117582375D01*
X160961394Y-117721531D01*
X160733203Y-117908803D01*
X160545931Y-118136995D01*
X160528000Y-118170541D01*
X160510069Y-118136994D01*
X160322797Y-117908803D01*
X160094605Y-117721531D01*
X159834263Y-117582375D01*
X159551776Y-117496684D01*
X159258000Y-117467749D01*
X158964223Y-117496684D01*
X158681736Y-117582375D01*
X158421394Y-117721531D01*
X158193203Y-117908803D01*
X158005931Y-118136995D01*
X157988000Y-118170541D01*
X157970069Y-118136994D01*
X157782797Y-117908803D01*
X157554605Y-117721531D01*
X157294263Y-117582375D01*
X157011776Y-117496684D01*
X156718000Y-117467749D01*
X156424223Y-117496684D01*
X156141736Y-117582375D01*
X155881394Y-117721531D01*
X155653203Y-117908803D01*
X155465931Y-118136995D01*
X155448000Y-118170541D01*
X155430069Y-118136994D01*
X155242797Y-117908803D01*
X155014605Y-117721531D01*
X154754263Y-117582375D01*
X154471776Y-117496684D01*
X154178000Y-117467749D01*
X153884223Y-117496684D01*
X153601736Y-117582375D01*
X153341394Y-117721531D01*
X153113203Y-117908803D01*
X152925931Y-118136995D01*
X152786775Y-118397337D01*
X152701084Y-118679824D01*
X152679400Y-118899982D01*
X150596600Y-118899982D01*
X150596600Y-118899981D01*
X150574916Y-118679823D01*
X150489225Y-118397336D01*
X150350069Y-118136994D01*
X150162797Y-117908803D01*
X149934605Y-117721531D01*
X149674263Y-117582375D01*
X149391776Y-117496684D01*
X149098000Y-117467749D01*
X148804223Y-117496684D01*
X148521736Y-117582375D01*
X148261394Y-117721531D01*
X148033203Y-117908803D01*
X147845931Y-118136995D01*
X147828000Y-118170541D01*
X147810069Y-118136994D01*
X147622797Y-117908803D01*
X147394605Y-117721531D01*
X147134263Y-117582375D01*
X146851776Y-117496684D01*
X146558000Y-117467749D01*
X146264223Y-117496684D01*
X145981736Y-117582375D01*
X145721394Y-117721531D01*
X145493203Y-117908803D01*
X145305931Y-118136995D01*
X145288000Y-118170541D01*
X145270069Y-118136994D01*
X145082797Y-117908803D01*
X144854605Y-117721531D01*
X144594263Y-117582375D01*
X144311776Y-117496684D01*
X144018000Y-117467749D01*
X143724223Y-117496684D01*
X143441736Y-117582375D01*
X143181394Y-117721531D01*
X142953203Y-117908803D01*
X142765931Y-118136995D01*
X142744576Y-118176947D01*
X142596486Y-117974271D01*
X142380035Y-117775267D01*
X142128919Y-117622314D01*
X141852789Y-117521291D01*
X141837026Y-117518642D01*
X141605000Y-117639783D01*
X141351000Y-117639783D01*
X141118974Y-117518642D01*
X141103211Y-117521291D01*
X140827081Y-117622314D01*
X140575965Y-117775267D01*
X140359514Y-117974271D01*
X140211424Y-118176947D01*
X140190069Y-118136994D01*
X140002797Y-117908803D01*
X139774605Y-117721531D01*
X139514263Y-117582375D01*
X139231776Y-117496684D01*
X138938000Y-117467749D01*
X138644223Y-117496684D01*
X138361736Y-117582375D01*
X138101394Y-117721531D01*
X137873203Y-117908803D01*
X137685931Y-118136995D01*
X137668000Y-118170541D01*
X137650069Y-118136994D01*
X137462797Y-117908803D01*
X137234605Y-117721531D01*
X136974263Y-117582375D01*
X136691776Y-117496684D01*
X136398000Y-117467749D01*
X136104223Y-117496684D01*
X135821736Y-117582375D01*
X135561394Y-117721531D01*
X135333203Y-117908803D01*
X135145931Y-118136995D01*
X135128000Y-118170541D01*
X135110069Y-118136994D01*
X134922797Y-117908803D01*
X134694605Y-117721531D01*
X134434263Y-117582375D01*
X134151776Y-117496684D01*
X133858000Y-117467749D01*
X133564223Y-117496684D01*
X133281736Y-117582375D01*
X133021394Y-117721531D01*
X132793203Y-117908803D01*
X132605931Y-118136995D01*
X132588000Y-118170541D01*
X132570069Y-118136994D01*
X132382797Y-117908803D01*
X132154605Y-117721531D01*
X131894263Y-117582375D01*
X131611776Y-117496684D01*
X131318000Y-117467749D01*
X131024223Y-117496684D01*
X130741736Y-117582375D01*
X130481394Y-117721531D01*
X130253203Y-117908803D01*
X130065931Y-118136995D01*
X129926775Y-118397337D01*
X129841084Y-118679824D01*
X129819400Y-118899982D01*
X120015000Y-118899982D01*
X120015000Y-118863323D01*
X119912508Y-118348065D01*
X119711464Y-117862702D01*
X119419594Y-117425887D01*
X119048113Y-117054406D01*
X118611298Y-116762536D01*
X118125935Y-116561492D01*
X117610677Y-116459000D01*
X117085323Y-116459000D01*
X116570065Y-116561492D01*
X116084702Y-116762536D01*
X115647887Y-117054406D01*
X115276406Y-117425887D01*
X114984536Y-117862702D01*
X114783492Y-118348065D01*
X114681000Y-118863323D01*
X114681000Y-119388677D01*
X114783492Y-119903935D01*
X114984536Y-120389298D01*
X115276406Y-120826113D01*
X115406293Y-120956000D01*
X104088000Y-120956000D01*
X104088000Y-118267000D01*
X107358128Y-118267000D01*
X107370388Y-118391482D01*
X107406698Y-118511180D01*
X107465663Y-118621494D01*
X107545015Y-118718185D01*
X107641706Y-118797537D01*
X107752020Y-118856502D01*
X107871718Y-118892812D01*
X107996200Y-118905072D01*
X109010450Y-118902000D01*
X109169200Y-118743250D01*
X109169200Y-117094000D01*
X109423200Y-117094000D01*
X109423200Y-118743250D01*
X109581950Y-118902000D01*
X110596200Y-118905072D01*
X110720682Y-118892812D01*
X110840380Y-118856502D01*
X110950694Y-118797537D01*
X111047385Y-118718185D01*
X111126737Y-118621494D01*
X111185702Y-118511180D01*
X111222012Y-118391482D01*
X111234272Y-118267000D01*
X111231200Y-117252750D01*
X111072450Y-117094000D01*
X109423200Y-117094000D01*
X109169200Y-117094000D01*
X107519950Y-117094000D01*
X107361200Y-117252750D01*
X107358128Y-118267000D01*
X104088000Y-118267000D01*
X104088000Y-115667000D01*
X107358128Y-115667000D01*
X107361200Y-116681250D01*
X107519950Y-116840000D01*
X109169200Y-116840000D01*
X109169200Y-115190750D01*
X109423200Y-115190750D01*
X109423200Y-116840000D01*
X111072450Y-116840000D01*
X111231200Y-116681250D01*
X111234272Y-115667000D01*
X111222012Y-115542518D01*
X111185702Y-115422820D01*
X111126737Y-115312506D01*
X111047385Y-115215815D01*
X110950694Y-115136463D01*
X110840380Y-115077498D01*
X110720682Y-115041188D01*
X110596200Y-115028928D01*
X109581950Y-115032000D01*
X109423200Y-115190750D01*
X109169200Y-115190750D01*
X109010450Y-115032000D01*
X107996200Y-115028928D01*
X107871718Y-115041188D01*
X107752020Y-115077498D01*
X107641706Y-115136463D01*
X107545015Y-115215815D01*
X107465663Y-115312506D01*
X107406698Y-115422820D01*
X107370388Y-115542518D01*
X107358128Y-115667000D01*
X104088000Y-115667000D01*
X104088000Y-111776419D01*
X107361200Y-111776419D01*
X107361200Y-112157581D01*
X107435561Y-112531419D01*
X107581425Y-112883566D01*
X107793187Y-113200491D01*
X108062709Y-113470013D01*
X108379634Y-113681775D01*
X108731781Y-113827639D01*
X109105619Y-113902000D01*
X109486781Y-113902000D01*
X109860619Y-113827639D01*
X110212766Y-113681775D01*
X110529691Y-113470013D01*
X110799213Y-113200491D01*
X111010975Y-112883566D01*
X111156839Y-112531419D01*
X111231200Y-112157581D01*
X111231200Y-111776419D01*
X111156839Y-111402581D01*
X111010975Y-111050434D01*
X110799213Y-110733509D01*
X110529691Y-110463987D01*
X110212766Y-110252225D01*
X109860619Y-110106361D01*
X109486781Y-110032000D01*
X109105619Y-110032000D01*
X108731781Y-110106361D01*
X108379634Y-110252225D01*
X108062709Y-110463987D01*
X107793187Y-110733509D01*
X107581425Y-111050434D01*
X107435561Y-111402581D01*
X107361200Y-111776419D01*
X104088000Y-111776419D01*
X104088000Y-105208793D01*
X115004200Y-105208793D01*
X115004200Y-105560407D01*
X115072796Y-105905265D01*
X115207353Y-106230115D01*
X115402700Y-106522471D01*
X115651329Y-106771100D01*
X115943685Y-106966447D01*
X116268535Y-107101004D01*
X116613393Y-107169600D01*
X116965007Y-107169600D01*
X117309865Y-107101004D01*
X117634715Y-106966447D01*
X117927071Y-106771100D01*
X118175700Y-106522471D01*
X118371047Y-106230115D01*
X118505604Y-105905265D01*
X118529201Y-105786636D01*
X118529201Y-107593268D01*
X118525524Y-107630600D01*
X118529201Y-107667933D01*
X118540198Y-107779586D01*
X118553375Y-107823026D01*
X118583654Y-107922846D01*
X118654226Y-108054876D01*
X118708672Y-108121218D01*
X118749200Y-108170601D01*
X118778198Y-108194399D01*
X124151492Y-113567694D01*
X124137964Y-113612291D01*
X124110257Y-113893600D01*
X124137964Y-114174909D01*
X124220018Y-114445408D01*
X124353268Y-114694701D01*
X124532592Y-114913208D01*
X124751099Y-115092532D01*
X125000392Y-115225782D01*
X125270891Y-115307836D01*
X125481708Y-115328600D01*
X125622692Y-115328600D01*
X125833509Y-115307836D01*
X126104008Y-115225782D01*
X126353301Y-115092532D01*
X126571808Y-114913208D01*
X126751132Y-114694701D01*
X126884382Y-114445408D01*
X126966436Y-114174909D01*
X126994143Y-113893600D01*
X126966436Y-113612291D01*
X126884382Y-113341792D01*
X126751132Y-113092499D01*
X126571808Y-112873992D01*
X126353301Y-112694668D01*
X126104008Y-112561418D01*
X125833509Y-112479364D01*
X125622692Y-112458600D01*
X125481708Y-112458600D01*
X125270891Y-112479364D01*
X125226294Y-112492892D01*
X120049200Y-107315799D01*
X120049200Y-104501868D01*
X120134715Y-104466447D01*
X120427071Y-104271100D01*
X120675700Y-104022471D01*
X120871047Y-103730115D01*
X121005604Y-103405265D01*
X121074200Y-103060407D01*
X121074200Y-102708793D01*
X121005604Y-102363935D01*
X120871047Y-102039085D01*
X120675700Y-101746729D01*
X120427071Y-101498100D01*
X120134715Y-101302753D01*
X119809865Y-101168196D01*
X119465007Y-101099600D01*
X119113393Y-101099600D01*
X118768535Y-101168196D01*
X118443685Y-101302753D01*
X118151329Y-101498100D01*
X117902700Y-101746729D01*
X117707353Y-102039085D01*
X117572796Y-102363935D01*
X117504200Y-102708793D01*
X117504200Y-103060407D01*
X117572796Y-103405265D01*
X117707353Y-103730115D01*
X117853624Y-103949024D01*
X117634715Y-103802753D01*
X117309865Y-103668196D01*
X116965007Y-103599600D01*
X116613393Y-103599600D01*
X116268535Y-103668196D01*
X115943685Y-103802753D01*
X115651329Y-103998100D01*
X115402700Y-104246729D01*
X115207353Y-104539085D01*
X115072796Y-104863935D01*
X115004200Y-105208793D01*
X104088000Y-105208793D01*
X104088000Y-100223567D01*
X105154200Y-100223567D01*
X105154200Y-100545633D01*
X105217032Y-100861512D01*
X105340282Y-101159063D01*
X105519213Y-101426852D01*
X105746948Y-101654587D01*
X106014737Y-101833518D01*
X106312288Y-101956768D01*
X106628167Y-102019600D01*
X106950233Y-102019600D01*
X107266112Y-101956768D01*
X107563663Y-101833518D01*
X107831452Y-101654587D01*
X108059187Y-101426852D01*
X108238118Y-101159063D01*
X108361368Y-100861512D01*
X108424200Y-100545633D01*
X108424200Y-100223567D01*
X108361368Y-99907688D01*
X108238118Y-99610137D01*
X108059187Y-99342348D01*
X107831452Y-99114613D01*
X107563663Y-98935682D01*
X107266112Y-98812432D01*
X106950233Y-98749600D01*
X106628167Y-98749600D01*
X106312288Y-98812432D01*
X106014737Y-98935682D01*
X105746948Y-99114613D01*
X105519213Y-99342348D01*
X105340282Y-99610137D01*
X105217032Y-99907688D01*
X105154200Y-100223567D01*
X104088000Y-100223567D01*
X104088000Y-97708793D01*
X115004200Y-97708793D01*
X115004200Y-98060407D01*
X115072796Y-98405265D01*
X115207353Y-98730115D01*
X115402700Y-99022471D01*
X115651329Y-99271100D01*
X115943685Y-99466447D01*
X116268535Y-99601004D01*
X116613393Y-99669600D01*
X116965007Y-99669600D01*
X117309865Y-99601004D01*
X117634715Y-99466447D01*
X117927071Y-99271100D01*
X118175700Y-99022471D01*
X118371047Y-98730115D01*
X118505604Y-98405265D01*
X118574200Y-98060407D01*
X118574200Y-97708793D01*
X118505604Y-97363935D01*
X118371047Y-97039085D01*
X118175700Y-96746729D01*
X117927071Y-96498100D01*
X117634715Y-96302753D01*
X117309865Y-96168196D01*
X116965007Y-96099600D01*
X116613393Y-96099600D01*
X116268535Y-96168196D01*
X115943685Y-96302753D01*
X115651329Y-96498100D01*
X115402700Y-96746729D01*
X115207353Y-97039085D01*
X115072796Y-97363935D01*
X115004200Y-97708793D01*
X104088000Y-97708793D01*
X104088000Y-95223567D01*
X105154200Y-95223567D01*
X105154200Y-95545633D01*
X105217032Y-95861512D01*
X105340282Y-96159063D01*
X105519213Y-96426852D01*
X105746948Y-96654587D01*
X106014737Y-96833518D01*
X106312288Y-96956768D01*
X106628167Y-97019600D01*
X106950233Y-97019600D01*
X107266112Y-96956768D01*
X107563663Y-96833518D01*
X107831452Y-96654587D01*
X108059187Y-96426852D01*
X108238118Y-96159063D01*
X108361368Y-95861512D01*
X108424200Y-95545633D01*
X108424200Y-95223567D01*
X108361368Y-94907688D01*
X108238118Y-94610137D01*
X108059187Y-94342348D01*
X107831452Y-94114613D01*
X107563663Y-93935682D01*
X107266112Y-93812432D01*
X106950233Y-93749600D01*
X106628167Y-93749600D01*
X106312288Y-93812432D01*
X106014737Y-93935682D01*
X105746948Y-94114613D01*
X105519213Y-94342348D01*
X105340282Y-94610137D01*
X105217032Y-94907688D01*
X105154200Y-95223567D01*
X104088000Y-95223567D01*
X104088000Y-90208793D01*
X115004200Y-90208793D01*
X115004200Y-90560407D01*
X115072796Y-90905265D01*
X115207353Y-91230115D01*
X115402700Y-91522471D01*
X115651329Y-91771100D01*
X115943685Y-91966447D01*
X116268535Y-92101004D01*
X116613393Y-92169600D01*
X116965007Y-92169600D01*
X117309865Y-92101004D01*
X117634715Y-91966447D01*
X117853624Y-91820176D01*
X117707353Y-92039085D01*
X117572796Y-92363935D01*
X117504200Y-92708793D01*
X117504200Y-93060407D01*
X117572796Y-93405265D01*
X117707353Y-93730115D01*
X117902700Y-94022471D01*
X118151329Y-94271100D01*
X118443685Y-94466447D01*
X118529201Y-94501869D01*
X118529200Y-96493477D01*
X118525524Y-96530800D01*
X118529200Y-96568122D01*
X118529200Y-96568132D01*
X118540197Y-96679785D01*
X118565964Y-96764728D01*
X118583654Y-96823046D01*
X118654226Y-96955076D01*
X118655615Y-96956768D01*
X118749199Y-97070801D01*
X118778203Y-97094604D01*
X130075401Y-108391803D01*
X130075400Y-112168344D01*
X129810996Y-112309671D01*
X129531581Y-112538981D01*
X129302271Y-112818396D01*
X129131879Y-113137178D01*
X129026952Y-113483077D01*
X128991522Y-113842800D01*
X129026952Y-114202523D01*
X129131879Y-114548422D01*
X129302271Y-114867204D01*
X129531581Y-115146619D01*
X129810996Y-115375929D01*
X130129778Y-115546321D01*
X130475677Y-115651248D01*
X130745261Y-115677800D01*
X130925539Y-115677800D01*
X131195123Y-115651248D01*
X131541022Y-115546321D01*
X131859804Y-115375929D01*
X132139219Y-115146619D01*
X132368529Y-114867204D01*
X132538921Y-114548422D01*
X132643848Y-114202523D01*
X132669271Y-113944400D01*
X146513057Y-113944400D01*
X146540764Y-114225709D01*
X146622818Y-114496208D01*
X146756068Y-114745501D01*
X146935392Y-114964008D01*
X147153899Y-115143332D01*
X147403192Y-115276582D01*
X147673691Y-115358636D01*
X147884508Y-115379400D01*
X148025492Y-115379400D01*
X148236309Y-115358636D01*
X148506808Y-115276582D01*
X148756101Y-115143332D01*
X148974608Y-114964008D01*
X149038379Y-114886302D01*
X151231303Y-114886302D01*
X151302886Y-115130271D01*
X151558396Y-115251171D01*
X151832584Y-115319900D01*
X152114912Y-115333817D01*
X152394530Y-115292387D01*
X152660692Y-115197203D01*
X152785914Y-115130271D01*
X152857497Y-114886302D01*
X152044400Y-114073205D01*
X151231303Y-114886302D01*
X149038379Y-114886302D01*
X149153932Y-114745501D01*
X149287182Y-114496208D01*
X149369236Y-114225709D01*
X149395001Y-113964112D01*
X150604183Y-113964112D01*
X150645613Y-114243730D01*
X150740797Y-114509892D01*
X150807729Y-114635114D01*
X151051698Y-114706697D01*
X151864795Y-113893600D01*
X152224005Y-113893600D01*
X153037102Y-114706697D01*
X153281071Y-114635114D01*
X153401971Y-114379604D01*
X153470700Y-114105416D01*
X153484617Y-113823088D01*
X153478726Y-113783323D01*
X166751000Y-113783323D01*
X166751000Y-114308677D01*
X166853492Y-114823935D01*
X167054536Y-115309298D01*
X167346406Y-115746113D01*
X167717887Y-116117594D01*
X168154702Y-116409464D01*
X168640065Y-116610508D01*
X169155323Y-116713000D01*
X169680677Y-116713000D01*
X170195935Y-116610508D01*
X170681298Y-116409464D01*
X171118113Y-116117594D01*
X171489594Y-115746113D01*
X171781464Y-115309298D01*
X171982508Y-114823935D01*
X172085000Y-114308677D01*
X172085000Y-113783323D01*
X171982508Y-113268065D01*
X171781464Y-112782702D01*
X171489594Y-112345887D01*
X171118113Y-111974406D01*
X170681298Y-111682536D01*
X170195935Y-111481492D01*
X169680677Y-111379000D01*
X169155323Y-111379000D01*
X168640065Y-111481492D01*
X168154702Y-111682536D01*
X167717887Y-111974406D01*
X167346406Y-112345887D01*
X167054536Y-112782702D01*
X166853492Y-113268065D01*
X166751000Y-113783323D01*
X153478726Y-113783323D01*
X153443187Y-113543470D01*
X153348003Y-113277308D01*
X153281071Y-113152086D01*
X153037102Y-113080503D01*
X152224005Y-113893600D01*
X151864795Y-113893600D01*
X151051698Y-113080503D01*
X150807729Y-113152086D01*
X150686829Y-113407596D01*
X150618100Y-113681784D01*
X150604183Y-113964112D01*
X149395001Y-113964112D01*
X149396943Y-113944400D01*
X149369236Y-113663091D01*
X149287182Y-113392592D01*
X149153932Y-113143299D01*
X148974608Y-112924792D01*
X148945494Y-112900898D01*
X151231303Y-112900898D01*
X152044400Y-113713995D01*
X152857497Y-112900898D01*
X152785914Y-112656929D01*
X152530404Y-112536029D01*
X152256216Y-112467300D01*
X151973888Y-112453383D01*
X151694270Y-112494813D01*
X151428108Y-112589997D01*
X151302886Y-112656929D01*
X151231303Y-112900898D01*
X148945494Y-112900898D01*
X148756101Y-112745468D01*
X148506808Y-112612218D01*
X148236309Y-112530164D01*
X148025492Y-112509400D01*
X147884508Y-112509400D01*
X147673691Y-112530164D01*
X147403192Y-112612218D01*
X147153899Y-112745468D01*
X146935392Y-112924792D01*
X146756068Y-113143299D01*
X146622818Y-113392592D01*
X146540764Y-113663091D01*
X146513057Y-113944400D01*
X132669271Y-113944400D01*
X132679278Y-113842800D01*
X132643848Y-113483077D01*
X132557273Y-113197678D01*
X132575400Y-113182802D01*
X132670373Y-113067077D01*
X132740945Y-112935048D01*
X132784402Y-112791787D01*
X132795399Y-112680134D01*
X132795399Y-112680124D01*
X132799075Y-112642801D01*
X132795399Y-112605478D01*
X132795399Y-110525602D01*
X133593398Y-109727604D01*
X133590857Y-109753400D01*
X133618564Y-110034709D01*
X133700618Y-110305208D01*
X133833868Y-110554501D01*
X134013192Y-110773008D01*
X134231699Y-110952332D01*
X134480992Y-111085582D01*
X134751491Y-111167636D01*
X134962308Y-111188400D01*
X135903292Y-111188400D01*
X136114109Y-111167636D01*
X136384608Y-111085582D01*
X136633901Y-110952332D01*
X136852408Y-110773008D01*
X137031732Y-110554501D01*
X137164982Y-110305208D01*
X137247036Y-110034709D01*
X137274743Y-109753400D01*
X137247036Y-109472091D01*
X137164982Y-109201592D01*
X137031732Y-108952299D01*
X136852408Y-108733792D01*
X136633901Y-108554468D01*
X136500942Y-108483400D01*
X136633901Y-108412332D01*
X136852408Y-108233008D01*
X137031732Y-108014501D01*
X137164982Y-107765208D01*
X137247036Y-107494709D01*
X137274743Y-107213400D01*
X137247036Y-106932091D01*
X137164982Y-106661592D01*
X137031732Y-106412299D01*
X136852408Y-106193792D01*
X136633901Y-106014468D01*
X136500942Y-105943400D01*
X136633901Y-105872332D01*
X136852408Y-105693008D01*
X137031732Y-105474501D01*
X137164982Y-105225208D01*
X137247036Y-104954709D01*
X137274743Y-104673400D01*
X141210857Y-104673400D01*
X141238564Y-104954709D01*
X141320618Y-105225208D01*
X141453868Y-105474501D01*
X141633192Y-105693008D01*
X141851699Y-105872332D01*
X141984658Y-105943400D01*
X141851699Y-106014468D01*
X141633192Y-106193792D01*
X141453868Y-106412299D01*
X141320618Y-106661592D01*
X141238564Y-106932091D01*
X141210857Y-107213400D01*
X141238564Y-107494709D01*
X141320618Y-107765208D01*
X141453868Y-108014501D01*
X141633192Y-108233008D01*
X141851699Y-108412332D01*
X141984658Y-108483400D01*
X141851699Y-108554468D01*
X141633192Y-108733792D01*
X141453868Y-108952299D01*
X141320618Y-109201592D01*
X141238564Y-109472091D01*
X141210857Y-109753400D01*
X141238564Y-110034709D01*
X141320618Y-110305208D01*
X141453868Y-110554501D01*
X141633192Y-110773008D01*
X141851699Y-110952332D01*
X142100992Y-111085582D01*
X142371491Y-111167636D01*
X142582308Y-111188400D01*
X143523292Y-111188400D01*
X143734109Y-111167636D01*
X144004608Y-111085582D01*
X144253901Y-110952332D01*
X144472408Y-110773008D01*
X144651732Y-110554501D01*
X144784982Y-110305208D01*
X144867036Y-110034709D01*
X144894743Y-109753400D01*
X144867036Y-109472091D01*
X144784982Y-109201592D01*
X144651732Y-108952299D01*
X144472408Y-108733792D01*
X144253901Y-108554468D01*
X144120942Y-108483400D01*
X144253901Y-108412332D01*
X144472408Y-108233008D01*
X144651732Y-108014501D01*
X144784982Y-107765208D01*
X144867036Y-107494709D01*
X144894743Y-107213400D01*
X144867036Y-106932091D01*
X144860909Y-106911892D01*
X146108801Y-105664000D01*
X178339815Y-105664000D01*
X178368487Y-105955111D01*
X178453401Y-106235034D01*
X178591294Y-106493014D01*
X178776866Y-106719134D01*
X179002986Y-106904706D01*
X179200036Y-107010031D01*
X179030866Y-107148866D01*
X178845294Y-107374986D01*
X178707401Y-107632966D01*
X178622487Y-107912889D01*
X178593815Y-108204000D01*
X178622487Y-108495111D01*
X178707401Y-108775034D01*
X178845294Y-109033014D01*
X179030866Y-109259134D01*
X179200036Y-109397969D01*
X179002986Y-109503294D01*
X178776866Y-109688866D01*
X178591294Y-109914986D01*
X178453401Y-110172966D01*
X178368487Y-110452889D01*
X178339815Y-110744000D01*
X178368487Y-111035111D01*
X178453401Y-111315034D01*
X178591294Y-111573014D01*
X178776866Y-111799134D01*
X179002986Y-111984706D01*
X179260966Y-112122599D01*
X179540889Y-112207513D01*
X179759050Y-112229000D01*
X179904950Y-112229000D01*
X180123111Y-112207513D01*
X180403034Y-112122599D01*
X180661014Y-111984706D01*
X180887134Y-111799134D01*
X181072706Y-111573014D01*
X181102000Y-111518209D01*
X181131294Y-111573014D01*
X181316866Y-111799134D01*
X181542986Y-111984706D01*
X181800966Y-112122599D01*
X182080889Y-112207513D01*
X182299050Y-112229000D01*
X182444950Y-112229000D01*
X182663111Y-112207513D01*
X182943034Y-112122599D01*
X183201014Y-111984706D01*
X183427134Y-111799134D01*
X183612706Y-111573014D01*
X183750599Y-111315034D01*
X183835513Y-111035111D01*
X183864185Y-110744000D01*
X183835513Y-110452889D01*
X183750599Y-110172966D01*
X183612706Y-109914986D01*
X183427134Y-109688866D01*
X183257964Y-109550031D01*
X183455014Y-109444706D01*
X183681134Y-109259134D01*
X183866706Y-109033014D01*
X184004599Y-108775034D01*
X184089513Y-108495111D01*
X184118185Y-108204000D01*
X184089513Y-107912889D01*
X184004599Y-107632966D01*
X183866706Y-107374986D01*
X183681134Y-107148866D01*
X183455014Y-106963294D01*
X183386000Y-106926405D01*
X183386000Y-106752892D01*
X183427134Y-106719134D01*
X183612706Y-106493014D01*
X183750599Y-106235034D01*
X183835513Y-105955111D01*
X183864185Y-105664000D01*
X183835513Y-105372889D01*
X183750599Y-105092966D01*
X183612706Y-104834986D01*
X183427134Y-104608866D01*
X183257964Y-104470031D01*
X183455014Y-104364706D01*
X183681134Y-104179134D01*
X183866706Y-103953014D01*
X184004599Y-103695034D01*
X184089513Y-103415111D01*
X184118185Y-103124000D01*
X184089513Y-102832889D01*
X184004599Y-102552966D01*
X183866706Y-102294986D01*
X183681134Y-102068866D01*
X183455014Y-101883294D01*
X183197034Y-101745401D01*
X182917111Y-101660487D01*
X182698950Y-101639000D01*
X182553050Y-101639000D01*
X182334889Y-101660487D01*
X182054966Y-101745401D01*
X181796986Y-101883294D01*
X181570866Y-102068866D01*
X181546393Y-102098687D01*
X181525502Y-102029820D01*
X181466537Y-101919506D01*
X181387185Y-101822815D01*
X181290494Y-101743463D01*
X181180180Y-101684498D01*
X181060482Y-101648188D01*
X180936000Y-101635928D01*
X179236000Y-101635928D01*
X179111518Y-101648188D01*
X178991820Y-101684498D01*
X178881506Y-101743463D01*
X178784815Y-101822815D01*
X178705463Y-101919506D01*
X178646498Y-102029820D01*
X178610188Y-102149518D01*
X178597928Y-102274000D01*
X178597928Y-103974000D01*
X178610188Y-104098482D01*
X178646498Y-104218180D01*
X178705463Y-104328494D01*
X178784815Y-104425185D01*
X178881506Y-104504537D01*
X178895123Y-104511815D01*
X178776866Y-104608866D01*
X178591294Y-104834986D01*
X178453401Y-105092966D01*
X178368487Y-105372889D01*
X178339815Y-105664000D01*
X146108801Y-105664000D01*
X151718494Y-100054308D01*
X151763091Y-100067836D01*
X151973908Y-100088600D01*
X152114892Y-100088600D01*
X152325709Y-100067836D01*
X152370306Y-100054308D01*
X155925601Y-103609603D01*
X155949399Y-103638601D01*
X156054887Y-103725173D01*
X156163094Y-103927614D01*
X156348666Y-104153734D01*
X156574786Y-104339306D01*
X156832766Y-104477199D01*
X157112689Y-104562113D01*
X157330850Y-104583600D01*
X157476750Y-104583600D01*
X157694911Y-104562113D01*
X157974834Y-104477199D01*
X158232814Y-104339306D01*
X158458934Y-104153734D01*
X158644506Y-103927614D01*
X158782399Y-103669634D01*
X158867313Y-103389711D01*
X158895985Y-103098600D01*
X158867313Y-102807489D01*
X158782399Y-102527566D01*
X158644506Y-102269586D01*
X158458934Y-102043466D01*
X158429113Y-102018993D01*
X158497980Y-101998102D01*
X158608294Y-101939137D01*
X158704985Y-101859785D01*
X158784337Y-101763094D01*
X158843302Y-101652780D01*
X158879612Y-101533082D01*
X158891872Y-101408600D01*
X158891872Y-99708600D01*
X158879612Y-99584118D01*
X158843302Y-99464420D01*
X158784337Y-99354106D01*
X158704985Y-99257415D01*
X158608294Y-99178063D01*
X158497980Y-99119098D01*
X158378282Y-99082788D01*
X158253800Y-99070528D01*
X156553800Y-99070528D01*
X156429318Y-99082788D01*
X156309620Y-99119098D01*
X156199306Y-99178063D01*
X156102615Y-99257415D01*
X156023263Y-99354106D01*
X155964298Y-99464420D01*
X155927988Y-99584118D01*
X155915728Y-99708600D01*
X155915728Y-101408600D01*
X155920265Y-101454663D01*
X153445108Y-98979506D01*
X153458636Y-98934909D01*
X153486343Y-98653600D01*
X153458636Y-98372291D01*
X153376582Y-98101792D01*
X153243332Y-97852499D01*
X153064008Y-97633992D01*
X152845501Y-97454668D01*
X152596208Y-97321418D01*
X152325709Y-97239364D01*
X152114892Y-97218600D01*
X151973908Y-97218600D01*
X151763091Y-97239364D01*
X151492592Y-97321418D01*
X151243299Y-97454668D01*
X151024792Y-97633992D01*
X150845468Y-97852499D01*
X150712218Y-98101792D01*
X150630164Y-98372291D01*
X150602457Y-98653600D01*
X150630164Y-98934909D01*
X150643692Y-98979506D01*
X148715000Y-100908198D01*
X148715000Y-99922443D01*
X148869759Y-99819037D01*
X149069637Y-99619159D01*
X149226680Y-99384127D01*
X149334853Y-99122974D01*
X149390000Y-98845735D01*
X149390000Y-98563065D01*
X149334853Y-98285826D01*
X149226680Y-98024673D01*
X149069637Y-97789641D01*
X148869759Y-97589763D01*
X148634727Y-97432720D01*
X148373574Y-97324547D01*
X148096335Y-97269400D01*
X147813665Y-97269400D01*
X147536426Y-97324547D01*
X147275273Y-97432720D01*
X147040241Y-97589763D01*
X146840363Y-97789641D01*
X146683320Y-98024673D01*
X146575147Y-98285826D01*
X146520000Y-98563065D01*
X146520000Y-98845735D01*
X146575147Y-99122974D01*
X146683320Y-99384127D01*
X146840363Y-99619159D01*
X147040241Y-99819037D01*
X147195001Y-99922444D01*
X147195000Y-100906398D01*
X144458786Y-103642613D01*
X144253901Y-103474468D01*
X144126059Y-103406135D01*
X144355639Y-103256001D01*
X144557300Y-103058295D01*
X144716515Y-102825046D01*
X144827167Y-102565218D01*
X144844704Y-102482439D01*
X144722715Y-102260400D01*
X143179800Y-102260400D01*
X143179800Y-102280400D01*
X142925800Y-102280400D01*
X142925800Y-102260400D01*
X141382885Y-102260400D01*
X141260896Y-102482439D01*
X141278433Y-102565218D01*
X141389085Y-102825046D01*
X141548300Y-103058295D01*
X141749961Y-103256001D01*
X141979541Y-103406135D01*
X141851699Y-103474468D01*
X141633192Y-103653792D01*
X141453868Y-103872299D01*
X141320618Y-104121592D01*
X141238564Y-104392091D01*
X141210857Y-104673400D01*
X137274743Y-104673400D01*
X137247036Y-104392091D01*
X137164982Y-104121592D01*
X137031732Y-103872299D01*
X136852408Y-103653792D01*
X136739318Y-103560981D01*
X136757282Y-103559212D01*
X136876980Y-103522902D01*
X136987294Y-103463937D01*
X137083985Y-103384585D01*
X137163337Y-103287894D01*
X137222302Y-103177580D01*
X137258612Y-103057882D01*
X137270872Y-102933400D01*
X137270872Y-101784361D01*
X141260896Y-101784361D01*
X141382885Y-102006400D01*
X142925800Y-102006400D01*
X142925800Y-101986400D01*
X143179800Y-101986400D01*
X143179800Y-102006400D01*
X144722715Y-102006400D01*
X144844704Y-101784361D01*
X144827167Y-101701582D01*
X144716515Y-101441754D01*
X144557300Y-101208505D01*
X144355639Y-101010799D01*
X144119283Y-100856234D01*
X143857314Y-100750750D01*
X143579800Y-100698400D01*
X142525800Y-100698400D01*
X142248286Y-100750750D01*
X141986317Y-100856234D01*
X141749961Y-101010799D01*
X141548300Y-101208505D01*
X141389085Y-101441754D01*
X141278433Y-101701582D01*
X141260896Y-101784361D01*
X137270872Y-101784361D01*
X137270872Y-101333400D01*
X137258612Y-101208918D01*
X137222302Y-101089220D01*
X137163337Y-100978906D01*
X137083985Y-100882215D01*
X136987294Y-100802863D01*
X136876980Y-100743898D01*
X136757282Y-100707588D01*
X136632800Y-100695328D01*
X134232800Y-100695328D01*
X134108318Y-100707588D01*
X133988620Y-100743898D01*
X133878306Y-100802863D01*
X133781615Y-100882215D01*
X133702263Y-100978906D01*
X133643298Y-101089220D01*
X133606988Y-101208918D01*
X133594728Y-101333400D01*
X133594728Y-102933400D01*
X133606988Y-103057882D01*
X133643298Y-103177580D01*
X133702263Y-103287894D01*
X133781615Y-103384585D01*
X133878306Y-103463937D01*
X133988620Y-103522902D01*
X134108318Y-103559212D01*
X134126282Y-103560981D01*
X134026814Y-103642612D01*
X131595400Y-101211199D01*
X131595400Y-100440872D01*
X132035400Y-100440872D01*
X132159882Y-100428612D01*
X132279580Y-100392302D01*
X132389894Y-100333337D01*
X132486585Y-100253985D01*
X132565937Y-100157294D01*
X132624902Y-100046980D01*
X132661212Y-99927282D01*
X132673472Y-99802800D01*
X132673472Y-97402800D01*
X132661212Y-97278318D01*
X132624902Y-97158620D01*
X132565937Y-97048306D01*
X132486585Y-96951615D01*
X132389894Y-96872263D01*
X132279580Y-96813298D01*
X132159882Y-96776988D01*
X132035400Y-96764728D01*
X129635400Y-96764728D01*
X129510918Y-96776988D01*
X129391220Y-96813298D01*
X129280906Y-96872263D01*
X129184215Y-96951615D01*
X129104863Y-97048306D01*
X129045898Y-97158620D01*
X129009588Y-97278318D01*
X128997328Y-97402800D01*
X128997328Y-97893600D01*
X126770243Y-97893600D01*
X126666837Y-97738841D01*
X126466959Y-97538963D01*
X126231927Y-97381920D01*
X125970774Y-97273747D01*
X125693535Y-97218600D01*
X125410865Y-97218600D01*
X125133626Y-97273747D01*
X124872473Y-97381920D01*
X124637441Y-97538963D01*
X124437563Y-97738841D01*
X124280520Y-97973873D01*
X124172347Y-98235026D01*
X124117200Y-98512265D01*
X124117200Y-98794935D01*
X124172347Y-99072174D01*
X124280520Y-99333327D01*
X124437563Y-99568359D01*
X124637441Y-99768237D01*
X124872473Y-99925280D01*
X125133626Y-100033453D01*
X125410865Y-100088600D01*
X125693535Y-100088600D01*
X125970774Y-100033453D01*
X126231927Y-99925280D01*
X126466959Y-99768237D01*
X126666837Y-99568359D01*
X126770243Y-99413600D01*
X128997328Y-99413600D01*
X128997328Y-99802800D01*
X129009588Y-99927282D01*
X129045898Y-100046980D01*
X129104863Y-100157294D01*
X129184215Y-100253985D01*
X129280906Y-100333337D01*
X129391220Y-100392302D01*
X129510918Y-100428612D01*
X129635400Y-100440872D01*
X130075401Y-100440872D01*
X130075400Y-101488677D01*
X130071724Y-101526000D01*
X130075400Y-101563322D01*
X130075400Y-101563332D01*
X130086397Y-101674985D01*
X130119951Y-101785598D01*
X130129854Y-101818246D01*
X130200426Y-101950276D01*
X130216780Y-101970203D01*
X130295399Y-102066001D01*
X130324403Y-102089804D01*
X133419001Y-105184403D01*
X133442799Y-105213401D01*
X133558524Y-105308374D01*
X133690553Y-105378946D01*
X133800643Y-105412341D01*
X133833868Y-105474501D01*
X134013192Y-105693008D01*
X134231699Y-105872332D01*
X134364658Y-105943400D01*
X134231699Y-106014468D01*
X134013192Y-106193792D01*
X133833868Y-106412299D01*
X133700618Y-106661592D01*
X133618564Y-106932091D01*
X133590857Y-107213400D01*
X133618564Y-107494709D01*
X133632092Y-107539306D01*
X131595400Y-109575999D01*
X131595400Y-108114325D01*
X131599076Y-108077000D01*
X131595400Y-108039675D01*
X131595400Y-108039667D01*
X131584403Y-107928014D01*
X131540946Y-107784753D01*
X131470374Y-107652724D01*
X131375401Y-107536999D01*
X131346403Y-107513201D01*
X120049200Y-96215999D01*
X120049200Y-94501868D01*
X120134715Y-94466447D01*
X120427071Y-94271100D01*
X120675700Y-94022471D01*
X120871047Y-93730115D01*
X120872751Y-93726000D01*
X178365215Y-93726000D01*
X178393887Y-94017111D01*
X178478801Y-94297034D01*
X178616694Y-94555014D01*
X178802266Y-94781134D01*
X179028386Y-94966706D01*
X179225436Y-95072031D01*
X179056266Y-95210866D01*
X178870694Y-95436986D01*
X178732801Y-95694966D01*
X178647887Y-95974889D01*
X178619215Y-96266000D01*
X178647887Y-96557111D01*
X178732801Y-96837034D01*
X178870694Y-97095014D01*
X179056266Y-97321134D01*
X179225436Y-97459969D01*
X179028386Y-97565294D01*
X178802266Y-97750866D01*
X178616694Y-97976986D01*
X178478801Y-98234966D01*
X178393887Y-98514889D01*
X178365215Y-98806000D01*
X178393887Y-99097111D01*
X178478801Y-99377034D01*
X178616694Y-99635014D01*
X178802266Y-99861134D01*
X179028386Y-100046706D01*
X179286366Y-100184599D01*
X179566289Y-100269513D01*
X179784450Y-100291000D01*
X179930350Y-100291000D01*
X180148511Y-100269513D01*
X180428434Y-100184599D01*
X180686414Y-100046706D01*
X180912534Y-99861134D01*
X181098106Y-99635014D01*
X181127400Y-99580209D01*
X181156694Y-99635014D01*
X181342266Y-99861134D01*
X181568386Y-100046706D01*
X181826366Y-100184599D01*
X182106289Y-100269513D01*
X182324450Y-100291000D01*
X182470350Y-100291000D01*
X182688511Y-100269513D01*
X182968434Y-100184599D01*
X183226414Y-100046706D01*
X183452534Y-99861134D01*
X183638106Y-99635014D01*
X183775999Y-99377034D01*
X183860913Y-99097111D01*
X183889585Y-98806000D01*
X183860913Y-98514889D01*
X183775999Y-98234966D01*
X183638106Y-97976986D01*
X183452534Y-97750866D01*
X183283364Y-97612031D01*
X183480414Y-97506706D01*
X183706534Y-97321134D01*
X183892106Y-97095014D01*
X184029999Y-96837034D01*
X184114913Y-96557111D01*
X184143585Y-96266000D01*
X184114913Y-95974889D01*
X184029999Y-95694966D01*
X183892106Y-95436986D01*
X183706534Y-95210866D01*
X183480414Y-95025294D01*
X183283364Y-94919969D01*
X183452534Y-94781134D01*
X183638106Y-94555014D01*
X183775999Y-94297034D01*
X183860913Y-94017111D01*
X183889585Y-93726000D01*
X183860913Y-93434889D01*
X183775999Y-93154966D01*
X183638106Y-92896986D01*
X183452534Y-92670866D01*
X183411400Y-92637108D01*
X183411400Y-92463595D01*
X183480414Y-92426706D01*
X183706534Y-92241134D01*
X183892106Y-92015014D01*
X184029999Y-91757034D01*
X184114913Y-91477111D01*
X184143585Y-91186000D01*
X184114913Y-90894889D01*
X184029999Y-90614966D01*
X183892106Y-90356986D01*
X183706534Y-90130866D01*
X183480414Y-89945294D01*
X183222434Y-89807401D01*
X182942511Y-89722487D01*
X182724350Y-89701000D01*
X182578450Y-89701000D01*
X182360289Y-89722487D01*
X182080366Y-89807401D01*
X181822386Y-89945294D01*
X181596266Y-90130866D01*
X181571793Y-90160687D01*
X181550902Y-90091820D01*
X181491937Y-89981506D01*
X181412585Y-89884815D01*
X181315894Y-89805463D01*
X181205580Y-89746498D01*
X181085882Y-89710188D01*
X180961400Y-89697928D01*
X179261400Y-89697928D01*
X179136918Y-89710188D01*
X179017220Y-89746498D01*
X178906906Y-89805463D01*
X178810215Y-89884815D01*
X178730863Y-89981506D01*
X178671898Y-90091820D01*
X178635588Y-90211518D01*
X178623328Y-90336000D01*
X178623328Y-92036000D01*
X178635588Y-92160482D01*
X178671898Y-92280180D01*
X178730863Y-92390494D01*
X178810215Y-92487185D01*
X178906906Y-92566537D01*
X178920523Y-92573815D01*
X178802266Y-92670866D01*
X178616694Y-92896986D01*
X178478801Y-93154966D01*
X178393887Y-93434889D01*
X178365215Y-93726000D01*
X120872751Y-93726000D01*
X121005604Y-93405265D01*
X121074200Y-93060407D01*
X121074200Y-92708793D01*
X121005604Y-92363935D01*
X120871047Y-92039085D01*
X120675700Y-91746729D01*
X120427071Y-91498100D01*
X120134715Y-91302753D01*
X119809865Y-91168196D01*
X119465007Y-91099600D01*
X119113393Y-91099600D01*
X118768535Y-91168196D01*
X118443685Y-91302753D01*
X118224776Y-91449024D01*
X118371047Y-91230115D01*
X118505604Y-90905265D01*
X118574200Y-90560407D01*
X118574200Y-90208793D01*
X118505604Y-89863935D01*
X118371047Y-89539085D01*
X118175700Y-89246729D01*
X117927071Y-88998100D01*
X117634715Y-88802753D01*
X117309865Y-88668196D01*
X116965007Y-88599600D01*
X116613393Y-88599600D01*
X116268535Y-88668196D01*
X115943685Y-88802753D01*
X115651329Y-88998100D01*
X115402700Y-89246729D01*
X115207353Y-89539085D01*
X115072796Y-89863935D01*
X115004200Y-90208793D01*
X104088000Y-90208793D01*
X104088000Y-69036000D01*
X116676293Y-69036000D01*
X116546406Y-69165887D01*
X116546406Y-69165887D01*
G37*
X116546406Y-69165887D02*
X116254536Y-69602702D01*
X116053492Y-70088065D01*
X115951000Y-70603323D01*
X115951000Y-71128677D01*
X116053492Y-71643935D01*
X116254536Y-72129298D01*
X116546406Y-72566113D01*
X116917887Y-72937594D01*
X117354702Y-73229464D01*
X117840065Y-73430508D01*
X118355323Y-73533000D01*
X118880677Y-73533000D01*
X119395935Y-73430508D01*
X119881298Y-73229464D01*
X120318113Y-72937594D01*
X120689594Y-72566113D01*
X120981464Y-72129298D01*
X121037001Y-71995219D01*
X121109203Y-72083197D01*
X121337395Y-72270469D01*
X121597737Y-72409625D01*
X121880224Y-72495316D01*
X122174000Y-72524251D01*
X122467777Y-72495316D01*
X122750264Y-72409625D01*
X123010606Y-72270469D01*
X123238797Y-72083197D01*
X123426069Y-71855006D01*
X123444000Y-71821459D01*
X123461931Y-71855006D01*
X123649203Y-72083197D01*
X123877395Y-72270469D01*
X124137737Y-72409625D01*
X124420224Y-72495316D01*
X124714000Y-72524251D01*
X125007777Y-72495316D01*
X125290264Y-72409625D01*
X125550606Y-72270469D01*
X125778797Y-72083197D01*
X125966069Y-71855006D01*
X125984000Y-71821459D01*
X126001931Y-71855006D01*
X126189203Y-72083197D01*
X126417395Y-72270469D01*
X126677737Y-72409625D01*
X126960224Y-72495316D01*
X127254000Y-72524251D01*
X127547777Y-72495316D01*
X127830264Y-72409625D01*
X128090606Y-72270469D01*
X128318797Y-72083197D01*
X128506069Y-71855006D01*
X128524000Y-71821459D01*
X128541931Y-71855006D01*
X128729203Y-72083197D01*
X128957395Y-72270469D01*
X129217737Y-72409625D01*
X129500224Y-72495316D01*
X129794000Y-72524251D01*
X130087777Y-72495316D01*
X130370264Y-72409625D01*
X130630606Y-72270469D01*
X130858797Y-72083197D01*
X131046069Y-71855006D01*
X131064000Y-71821459D01*
X131081931Y-71855006D01*
X131269203Y-72083197D01*
X131446169Y-72228429D01*
X127225598Y-76449001D01*
X127196600Y-76472799D01*
X127172802Y-76501797D01*
X127172801Y-76501798D01*
X127101626Y-76588524D01*
X127031054Y-76720554D01*
X127004044Y-76809599D01*
X126987598Y-76863814D01*
X126977730Y-76964000D01*
X126972924Y-77012800D01*
X126976601Y-77050132D01*
X126976600Y-80840605D01*
X126907586Y-80877494D01*
X126681466Y-81063066D01*
X126495894Y-81289186D01*
X126466600Y-81343991D01*
X126437306Y-81289186D01*
X126251734Y-81063066D01*
X126025614Y-80877494D01*
X125767634Y-80739601D01*
X125487711Y-80654687D01*
X125269550Y-80633200D01*
X125123650Y-80633200D01*
X124905489Y-80654687D01*
X124625566Y-80739601D01*
X124367586Y-80877494D01*
X124141466Y-81063066D01*
X123955894Y-81289186D01*
X123818001Y-81547166D01*
X123733087Y-81827089D01*
X123704415Y-82118200D01*
X123733087Y-82409311D01*
X123818001Y-82689234D01*
X123955894Y-82947214D01*
X124141466Y-83173334D01*
X124310636Y-83312169D01*
X124113586Y-83417494D01*
X123887466Y-83603066D01*
X123701894Y-83829186D01*
X123564001Y-84087166D01*
X123479087Y-84367089D01*
X123450415Y-84658200D01*
X123479087Y-84949311D01*
X123564001Y-85229234D01*
X123701894Y-85487214D01*
X123887466Y-85713334D01*
X124113586Y-85898906D01*
X124310636Y-86004231D01*
X124141466Y-86143066D01*
X123955894Y-86369186D01*
X123818001Y-86627166D01*
X123733087Y-86907089D01*
X123704415Y-87198200D01*
X123733087Y-87489311D01*
X123818001Y-87769234D01*
X123955894Y-88027214D01*
X124141466Y-88253334D01*
X124310636Y-88392169D01*
X124113586Y-88497494D01*
X123887466Y-88683066D01*
X123701894Y-88909186D01*
X123564001Y-89167166D01*
X123479087Y-89447089D01*
X123450415Y-89738200D01*
X123479087Y-90029311D01*
X123564001Y-90309234D01*
X123701894Y-90567214D01*
X123887466Y-90793334D01*
X124113586Y-90978906D01*
X124371566Y-91116799D01*
X124651489Y-91201713D01*
X124869650Y-91223200D01*
X125015550Y-91223200D01*
X125233711Y-91201713D01*
X125513634Y-91116799D01*
X125771614Y-90978906D01*
X125997734Y-90793334D01*
X126022207Y-90763513D01*
X126043098Y-90832380D01*
X126102063Y-90942694D01*
X126181415Y-91039385D01*
X126278106Y-91118737D01*
X126388420Y-91177702D01*
X126508118Y-91214012D01*
X126632600Y-91226272D01*
X128332600Y-91226272D01*
X128457082Y-91214012D01*
X128576780Y-91177702D01*
X128687094Y-91118737D01*
X128783785Y-91039385D01*
X128863137Y-90942694D01*
X128922102Y-90832380D01*
X128958412Y-90712682D01*
X128970672Y-90588200D01*
X128970672Y-90392526D01*
X129006876Y-90373174D01*
X129122601Y-90278201D01*
X129146404Y-90249197D01*
X129604889Y-89790713D01*
X129625887Y-90003911D01*
X129710801Y-90283834D01*
X129848694Y-90541814D01*
X130034266Y-90767934D01*
X130260386Y-90953506D01*
X130518366Y-91091399D01*
X130798289Y-91176313D01*
X131016450Y-91197800D01*
X131162350Y-91197800D01*
X131380511Y-91176313D01*
X131660434Y-91091399D01*
X131918414Y-90953506D01*
X132144534Y-90767934D01*
X132169007Y-90738113D01*
X132189898Y-90806980D01*
X132248863Y-90917294D01*
X132328215Y-91013985D01*
X132424906Y-91093337D01*
X132535220Y-91152302D01*
X132654918Y-91188612D01*
X132779400Y-91200872D01*
X134479400Y-91200872D01*
X134603882Y-91188612D01*
X134723580Y-91152302D01*
X134833894Y-91093337D01*
X134930585Y-91013985D01*
X135009937Y-90917294D01*
X135068902Y-90806980D01*
X135105212Y-90687282D01*
X135117472Y-90562800D01*
X135117472Y-88862800D01*
X135105212Y-88738318D01*
X135068902Y-88618620D01*
X135009937Y-88508306D01*
X134930585Y-88411615D01*
X134833894Y-88332263D01*
X134820277Y-88324985D01*
X134938534Y-88227934D01*
X135124106Y-88001814D01*
X135261999Y-87743834D01*
X135346913Y-87463911D01*
X135375585Y-87172800D01*
X135346913Y-86881689D01*
X135261999Y-86601766D01*
X135124106Y-86343786D01*
X134938534Y-86117666D01*
X134712414Y-85932094D01*
X134515364Y-85826769D01*
X134684534Y-85687934D01*
X134870106Y-85461814D01*
X135007999Y-85203834D01*
X135092913Y-84923911D01*
X135121585Y-84632800D01*
X135092913Y-84341689D01*
X135007999Y-84061766D01*
X134870106Y-83803786D01*
X134684534Y-83577666D01*
X134515364Y-83438831D01*
X134712414Y-83333506D01*
X134938534Y-83147934D01*
X135124106Y-82921814D01*
X135261999Y-82663834D01*
X135346913Y-82383911D01*
X135375585Y-82092800D01*
X135346913Y-81801689D01*
X135261999Y-81521766D01*
X135124106Y-81263786D01*
X134938534Y-81037666D01*
X134712414Y-80852094D01*
X134454434Y-80714201D01*
X134174511Y-80629287D01*
X133956350Y-80607800D01*
X133810450Y-80607800D01*
X133592289Y-80629287D01*
X133312366Y-80714201D01*
X133054386Y-80852094D01*
X132828266Y-81037666D01*
X132642694Y-81263786D01*
X132613400Y-81318591D01*
X132584106Y-81263786D01*
X132398534Y-81037666D01*
X132172414Y-80852094D01*
X131914434Y-80714201D01*
X131634511Y-80629287D01*
X131416350Y-80607800D01*
X131270450Y-80607800D01*
X131052289Y-80629287D01*
X130772366Y-80714201D01*
X130674399Y-80766565D01*
X130674399Y-77665812D01*
X133236092Y-75104120D01*
X143307888Y-75104120D01*
X141525798Y-76886211D01*
X141496800Y-76910009D01*
X141473002Y-76939007D01*
X141473001Y-76939008D01*
X141401826Y-77025734D01*
X141331254Y-77157764D01*
X141308167Y-77233875D01*
X141287798Y-77301024D01*
X141281694Y-77362994D01*
X141273124Y-77450010D01*
X141276801Y-77487342D01*
X141276800Y-80668855D01*
X141262398Y-80716333D01*
X141255371Y-80787683D01*
X141182386Y-80826694D01*
X140956266Y-81012266D01*
X140770694Y-81238386D01*
X140741400Y-81293191D01*
X140712106Y-81238386D01*
X140526534Y-81012266D01*
X140300414Y-80826694D01*
X140042434Y-80688801D01*
X139762511Y-80603887D01*
X139544350Y-80582400D01*
X139398450Y-80582400D01*
X139180289Y-80603887D01*
X138900366Y-80688801D01*
X138642386Y-80826694D01*
X138416266Y-81012266D01*
X138230694Y-81238386D01*
X138092801Y-81496366D01*
X138007887Y-81776289D01*
X137979215Y-82067400D01*
X138007887Y-82358511D01*
X138092801Y-82638434D01*
X138230694Y-82896414D01*
X138416266Y-83122534D01*
X138585436Y-83261369D01*
X138388386Y-83366694D01*
X138162266Y-83552266D01*
X137976694Y-83778386D01*
X137838801Y-84036366D01*
X137753887Y-84316289D01*
X137725215Y-84607400D01*
X137753887Y-84898511D01*
X137838801Y-85178434D01*
X137976694Y-85436414D01*
X138162266Y-85662534D01*
X138388386Y-85848106D01*
X138585436Y-85953431D01*
X138416266Y-86092266D01*
X138230694Y-86318386D01*
X138092801Y-86576366D01*
X138007887Y-86856289D01*
X137979215Y-87147400D01*
X138007887Y-87438511D01*
X138092801Y-87718434D01*
X138230694Y-87976414D01*
X138416266Y-88202534D01*
X138585436Y-88341369D01*
X138388386Y-88446694D01*
X138162266Y-88632266D01*
X137976694Y-88858386D01*
X137838801Y-89116366D01*
X137753887Y-89396289D01*
X137725215Y-89687400D01*
X137753887Y-89978511D01*
X137838801Y-90258434D01*
X137976694Y-90516414D01*
X138162266Y-90742534D01*
X138388386Y-90928106D01*
X138646366Y-91065999D01*
X138926289Y-91150913D01*
X139144450Y-91172400D01*
X139290350Y-91172400D01*
X139508511Y-91150913D01*
X139788434Y-91065999D01*
X140046414Y-90928106D01*
X140272534Y-90742534D01*
X140297007Y-90712713D01*
X140317898Y-90781580D01*
X140376863Y-90891894D01*
X140456215Y-90988585D01*
X140552906Y-91067937D01*
X140663220Y-91126902D01*
X140782918Y-91163212D01*
X140907400Y-91175472D01*
X142607400Y-91175472D01*
X142731882Y-91163212D01*
X142851580Y-91126902D01*
X142961894Y-91067937D01*
X143058585Y-90988585D01*
X143137937Y-90891894D01*
X143196902Y-90781580D01*
X143233212Y-90661882D01*
X143245472Y-90537400D01*
X143245472Y-90341726D01*
X143281676Y-90322374D01*
X143397401Y-90227401D01*
X143421204Y-90198397D01*
X143877411Y-89742190D01*
X143900687Y-89978511D01*
X143985601Y-90258434D01*
X144123494Y-90516414D01*
X144309066Y-90742534D01*
X144535186Y-90928106D01*
X144793166Y-91065999D01*
X145073089Y-91150913D01*
X145291250Y-91172400D01*
X145437150Y-91172400D01*
X145655311Y-91150913D01*
X145935234Y-91065999D01*
X146193214Y-90928106D01*
X146419334Y-90742534D01*
X146443807Y-90712713D01*
X146464698Y-90781580D01*
X146523663Y-90891894D01*
X146603015Y-90988585D01*
X146699706Y-91067937D01*
X146810020Y-91126902D01*
X146929718Y-91163212D01*
X147054200Y-91175472D01*
X148754200Y-91175472D01*
X148878682Y-91163212D01*
X148998380Y-91126902D01*
X149108694Y-91067937D01*
X149205385Y-90988585D01*
X149284737Y-90891894D01*
X149343702Y-90781580D01*
X149380012Y-90661882D01*
X149392272Y-90537400D01*
X149392272Y-90447400D01*
X149644878Y-90447400D01*
X149682200Y-90451076D01*
X149719522Y-90447400D01*
X149719533Y-90447400D01*
X149831186Y-90436403D01*
X149974447Y-90392946D01*
X150106476Y-90322374D01*
X150222201Y-90227401D01*
X150246004Y-90198397D01*
X152534382Y-87910020D01*
X152556294Y-87951014D01*
X152741866Y-88177134D01*
X152783001Y-88210892D01*
X152783001Y-88384405D01*
X152713986Y-88421294D01*
X152487866Y-88606866D01*
X152302294Y-88832986D01*
X152164401Y-89090966D01*
X152079487Y-89370889D01*
X152050815Y-89662000D01*
X152079487Y-89953111D01*
X152164401Y-90233034D01*
X152302294Y-90491014D01*
X152487866Y-90717134D01*
X152713986Y-90902706D01*
X152971966Y-91040599D01*
X153251889Y-91125513D01*
X153470050Y-91147000D01*
X153615950Y-91147000D01*
X153834111Y-91125513D01*
X154114034Y-91040599D01*
X154372014Y-90902706D01*
X154598134Y-90717134D01*
X154622607Y-90687313D01*
X154643498Y-90756180D01*
X154702463Y-90866494D01*
X154781815Y-90963185D01*
X154878506Y-91042537D01*
X154988820Y-91101502D01*
X155108518Y-91137812D01*
X155233000Y-91150072D01*
X156933000Y-91150072D01*
X157057482Y-91137812D01*
X157177180Y-91101502D01*
X157287494Y-91042537D01*
X157384185Y-90963185D01*
X157463537Y-90866494D01*
X157522502Y-90756180D01*
X157558812Y-90636482D01*
X157571072Y-90512000D01*
X157571072Y-90422000D01*
X157913476Y-90422000D01*
X157950798Y-90425676D01*
X157988120Y-90422000D01*
X157988131Y-90422000D01*
X158099784Y-90411003D01*
X158243045Y-90367546D01*
X158375074Y-90296974D01*
X158381525Y-90291680D01*
X158474494Y-90465614D01*
X158660066Y-90691734D01*
X158886186Y-90877306D01*
X159144166Y-91015199D01*
X159424089Y-91100113D01*
X159642250Y-91121600D01*
X159788150Y-91121600D01*
X160006311Y-91100113D01*
X160286234Y-91015199D01*
X160544214Y-90877306D01*
X160770334Y-90691734D01*
X160794807Y-90661913D01*
X160815698Y-90730780D01*
X160874663Y-90841094D01*
X160954015Y-90937785D01*
X161050706Y-91017137D01*
X161161020Y-91076102D01*
X161280718Y-91112412D01*
X161405200Y-91124672D01*
X163105200Y-91124672D01*
X163229682Y-91112412D01*
X163349380Y-91076102D01*
X163459694Y-91017137D01*
X163556385Y-90937785D01*
X163635737Y-90841094D01*
X163694702Y-90730780D01*
X163731012Y-90611082D01*
X163743272Y-90486600D01*
X163743272Y-90396600D01*
X174384478Y-90396600D01*
X174421800Y-90400276D01*
X174459122Y-90396600D01*
X174459133Y-90396600D01*
X174570786Y-90385603D01*
X174714047Y-90342146D01*
X174846076Y-90271574D01*
X174961801Y-90176601D01*
X174985604Y-90147597D01*
X178421392Y-86711810D01*
X178416015Y-86766400D01*
X178444687Y-87057511D01*
X178529601Y-87337434D01*
X178667494Y-87595414D01*
X178853066Y-87821534D01*
X179079186Y-88007106D01*
X179337166Y-88144999D01*
X179617089Y-88229913D01*
X179835250Y-88251400D01*
X179981150Y-88251400D01*
X180199311Y-88229913D01*
X180479234Y-88144999D01*
X180737214Y-88007106D01*
X180963334Y-87821534D01*
X181148906Y-87595414D01*
X181178200Y-87540609D01*
X181207494Y-87595414D01*
X181393066Y-87821534D01*
X181619186Y-88007106D01*
X181877166Y-88144999D01*
X182157089Y-88229913D01*
X182375250Y-88251400D01*
X182521150Y-88251400D01*
X182739311Y-88229913D01*
X183019234Y-88144999D01*
X183277214Y-88007106D01*
X183503334Y-87821534D01*
X183688906Y-87595414D01*
X183826799Y-87337434D01*
X183911713Y-87057511D01*
X183940385Y-86766400D01*
X183911713Y-86475289D01*
X183826799Y-86195366D01*
X183688906Y-85937386D01*
X183503334Y-85711266D01*
X183334164Y-85572431D01*
X183531214Y-85467106D01*
X183757334Y-85281534D01*
X183942906Y-85055414D01*
X184080799Y-84797434D01*
X184165713Y-84517511D01*
X184194385Y-84226400D01*
X184165713Y-83935289D01*
X184080799Y-83655366D01*
X183942906Y-83397386D01*
X183757334Y-83171266D01*
X183531214Y-82985694D01*
X183334164Y-82880369D01*
X183503334Y-82741534D01*
X183688906Y-82515414D01*
X183826799Y-82257434D01*
X183911713Y-81977511D01*
X183940385Y-81686400D01*
X183911713Y-81395289D01*
X183826799Y-81115366D01*
X183688906Y-80857386D01*
X183503334Y-80631266D01*
X183334164Y-80492431D01*
X183531214Y-80387106D01*
X183757334Y-80201534D01*
X183942906Y-79975414D01*
X184080799Y-79717434D01*
X184165713Y-79437511D01*
X184194385Y-79146400D01*
X184165713Y-78855289D01*
X184080799Y-78575366D01*
X183942906Y-78317386D01*
X183757334Y-78091266D01*
X183531214Y-77905694D01*
X183510460Y-77894601D01*
X184967285Y-77894601D01*
X184928463Y-77941906D01*
X184869498Y-78052220D01*
X184833188Y-78171918D01*
X184820928Y-78296400D01*
X184820928Y-79996400D01*
X184833188Y-80120882D01*
X184869498Y-80240580D01*
X184928463Y-80350894D01*
X185007815Y-80447585D01*
X185104506Y-80526937D01*
X185118123Y-80534215D01*
X184999866Y-80631266D01*
X184814294Y-80857386D01*
X184676401Y-81115366D01*
X184591487Y-81395289D01*
X184562815Y-81686400D01*
X184591487Y-81977511D01*
X184676401Y-82257434D01*
X184814294Y-82515414D01*
X184999866Y-82741534D01*
X185225986Y-82927106D01*
X185423036Y-83032431D01*
X185253866Y-83171266D01*
X185068294Y-83397386D01*
X184930401Y-83655366D01*
X184845487Y-83935289D01*
X184816815Y-84226400D01*
X184845487Y-84517511D01*
X184930401Y-84797434D01*
X185068294Y-85055414D01*
X185253866Y-85281534D01*
X185423036Y-85420369D01*
X185225986Y-85525694D01*
X184999866Y-85711266D01*
X184814294Y-85937386D01*
X184676401Y-86195366D01*
X184591487Y-86475289D01*
X184562815Y-86766400D01*
X184591487Y-87057511D01*
X184676401Y-87337434D01*
X184814294Y-87595414D01*
X184999866Y-87821534D01*
X185225986Y-88007106D01*
X185295001Y-88043995D01*
X185295001Y-88278468D01*
X185291324Y-88315800D01*
X185295001Y-88353133D01*
X185304405Y-88448607D01*
X185305998Y-88464785D01*
X185349454Y-88608046D01*
X185420026Y-88740076D01*
X185491201Y-88826802D01*
X185515000Y-88855801D01*
X185543998Y-88879599D01*
X185923000Y-89258602D01*
X185946799Y-89287601D01*
X185966022Y-89303377D01*
X185747198Y-89522201D01*
X185718200Y-89545999D01*
X185694402Y-89574997D01*
X185694401Y-89574998D01*
X185623226Y-89661724D01*
X185603874Y-89697928D01*
X185408200Y-89697928D01*
X185283718Y-89710188D01*
X185164020Y-89746498D01*
X185053706Y-89805463D01*
X184957015Y-89884815D01*
X184877663Y-89981506D01*
X184818698Y-90091820D01*
X184782388Y-90211518D01*
X184770128Y-90336000D01*
X184770128Y-92036000D01*
X184782388Y-92160482D01*
X184818698Y-92280180D01*
X184877663Y-92390494D01*
X184957015Y-92487185D01*
X185053706Y-92566537D01*
X185067323Y-92573815D01*
X184949066Y-92670866D01*
X184763494Y-92896986D01*
X184625601Y-93154966D01*
X184540687Y-93434889D01*
X184512015Y-93726000D01*
X184540687Y-94017111D01*
X184625601Y-94297034D01*
X184763494Y-94555014D01*
X184949066Y-94781134D01*
X185175186Y-94966706D01*
X185372236Y-95072031D01*
X185203066Y-95210866D01*
X185017494Y-95436986D01*
X184879601Y-95694966D01*
X184794687Y-95974889D01*
X184766015Y-96266000D01*
X184794687Y-96557111D01*
X184879601Y-96837034D01*
X185017494Y-97095014D01*
X185203066Y-97321134D01*
X185372236Y-97459969D01*
X185175186Y-97565294D01*
X184949066Y-97750866D01*
X184763494Y-97976986D01*
X184625601Y-98234966D01*
X184540687Y-98514889D01*
X184512015Y-98806000D01*
X184540687Y-99097111D01*
X184625601Y-99377034D01*
X184763494Y-99635014D01*
X184949066Y-99861134D01*
X185175186Y-100046706D01*
X185433166Y-100184599D01*
X185713089Y-100269513D01*
X185931250Y-100291000D01*
X186077150Y-100291000D01*
X186295311Y-100269513D01*
X186370195Y-100246797D01*
X186665398Y-100542000D01*
X185747198Y-101460201D01*
X185718200Y-101483999D01*
X185694402Y-101512997D01*
X185694401Y-101512998D01*
X185623226Y-101599724D01*
X185603874Y-101635928D01*
X185408200Y-101635928D01*
X185283718Y-101648188D01*
X185164020Y-101684498D01*
X185053706Y-101743463D01*
X184957015Y-101822815D01*
X184877663Y-101919506D01*
X184818698Y-102029820D01*
X184782388Y-102149518D01*
X184770128Y-102274000D01*
X184770128Y-103974000D01*
X184782388Y-104098482D01*
X184818698Y-104218180D01*
X184877663Y-104328494D01*
X184957015Y-104425185D01*
X185053706Y-104504537D01*
X185067323Y-104511815D01*
X184949066Y-104608866D01*
X184763494Y-104834986D01*
X184625601Y-105092966D01*
X184540687Y-105372889D01*
X184512015Y-105664000D01*
X184540687Y-105955111D01*
X184625601Y-106235034D01*
X184763494Y-106493014D01*
X184949066Y-106719134D01*
X185175186Y-106904706D01*
X185372236Y-107010031D01*
X185203066Y-107148866D01*
X185017494Y-107374986D01*
X184879601Y-107632966D01*
X184794687Y-107912889D01*
X184766015Y-108204000D01*
X184794687Y-108495111D01*
X184879601Y-108775034D01*
X185017494Y-109033014D01*
X185203066Y-109259134D01*
X185372236Y-109397969D01*
X185175186Y-109503294D01*
X184949066Y-109688866D01*
X184763494Y-109914986D01*
X184625601Y-110172966D01*
X184540687Y-110452889D01*
X184512015Y-110744000D01*
X184540687Y-111035111D01*
X184625601Y-111315034D01*
X184763494Y-111573014D01*
X184949066Y-111799134D01*
X185175186Y-111984706D01*
X185244201Y-112021595D01*
X185244201Y-112256068D01*
X185240524Y-112293400D01*
X185244201Y-112330733D01*
X185255198Y-112442386D01*
X185266415Y-112479364D01*
X185298654Y-112585646D01*
X185369226Y-112717676D01*
X185422592Y-112782702D01*
X185464200Y-112833401D01*
X185493198Y-112857199D01*
X186151601Y-113515602D01*
X186175399Y-113544601D01*
X186291124Y-113639574D01*
X186423153Y-113710146D01*
X186566414Y-113753603D01*
X186678067Y-113764600D01*
X186678075Y-113764600D01*
X186715400Y-113768276D01*
X186752725Y-113764600D01*
X191377078Y-113764600D01*
X191414400Y-113768276D01*
X191451722Y-113764600D01*
X191451733Y-113764600D01*
X191563386Y-113753603D01*
X191706647Y-113710146D01*
X191838676Y-113639574D01*
X191954401Y-113544601D01*
X191978204Y-113515597D01*
X195963229Y-109530573D01*
X195966775Y-109542264D01*
X196105931Y-109802606D01*
X196293203Y-110030797D01*
X196521394Y-110218069D01*
X196554940Y-110236000D01*
X196521394Y-110253931D01*
X196293203Y-110441203D01*
X196105931Y-110669394D01*
X195966775Y-110929736D01*
X195881084Y-111212223D01*
X195852149Y-111506000D01*
X195881084Y-111799777D01*
X195966775Y-112082264D01*
X196105931Y-112342606D01*
X196293203Y-112570797D01*
X196521394Y-112758069D01*
X196558463Y-112777883D01*
X196402698Y-112881961D01*
X196193961Y-113090698D01*
X196029958Y-113336147D01*
X195916990Y-113608875D01*
X195859400Y-113898401D01*
X195859400Y-114193599D01*
X195916990Y-114483125D01*
X196029958Y-114755853D01*
X196193961Y-115001302D01*
X196402698Y-115210039D01*
X196648147Y-115374042D01*
X196920875Y-115487010D01*
X197210401Y-115544600D01*
X197505599Y-115544600D01*
X197795125Y-115487010D01*
X198067853Y-115374042D01*
X198313302Y-115210039D01*
X198522039Y-115001302D01*
X198626117Y-114845537D01*
X198645931Y-114882606D01*
X198833203Y-115110797D01*
X199061394Y-115298069D01*
X199321736Y-115437225D01*
X199604223Y-115522916D01*
X199824381Y-115544600D01*
X199971619Y-115544600D01*
X200191777Y-115522916D01*
X200474264Y-115437225D01*
X200734606Y-115298069D01*
X200962797Y-115110797D01*
X201150069Y-114882606D01*
X201289225Y-114622264D01*
X201374916Y-114339777D01*
X201403851Y-114046000D01*
X201374916Y-113752223D01*
X201289225Y-113469736D01*
X201150069Y-113209394D01*
X200962797Y-112981203D01*
X200734606Y-112793931D01*
X200701060Y-112776000D01*
X200734606Y-112758069D01*
X200962797Y-112570797D01*
X201150069Y-112342606D01*
X201289225Y-112082264D01*
X201374916Y-111799777D01*
X201403851Y-111506000D01*
X201374916Y-111212223D01*
X201289225Y-110929736D01*
X201150069Y-110669394D01*
X200962797Y-110441203D01*
X200734606Y-110253931D01*
X200701060Y-110236000D01*
X200734606Y-110218069D01*
X200962797Y-110030797D01*
X201150069Y-109802606D01*
X201289225Y-109542264D01*
X201374916Y-109259777D01*
X201403851Y-108966000D01*
X201374916Y-108672223D01*
X201289225Y-108389736D01*
X201150069Y-108129394D01*
X200962797Y-107901203D01*
X200734606Y-107713931D01*
X200701060Y-107696000D01*
X200734606Y-107678069D01*
X200962797Y-107490797D01*
X201150069Y-107262606D01*
X201289225Y-107002264D01*
X201374916Y-106719777D01*
X201403851Y-106426000D01*
X201374916Y-106132223D01*
X201289225Y-105849736D01*
X201150069Y-105589394D01*
X200962797Y-105361203D01*
X200734606Y-105173931D01*
X200701060Y-105156000D01*
X200734606Y-105138069D01*
X200962797Y-104950797D01*
X201150069Y-104722606D01*
X201289225Y-104462264D01*
X201374916Y-104179777D01*
X201403851Y-103886000D01*
X201374916Y-103592223D01*
X201289225Y-103309736D01*
X201150069Y-103049394D01*
X200962797Y-102821203D01*
X200734606Y-102633931D01*
X200701060Y-102616000D01*
X200734606Y-102598069D01*
X200962797Y-102410797D01*
X201150069Y-102182606D01*
X201289225Y-101922264D01*
X201374916Y-101639777D01*
X201403851Y-101346000D01*
X201374916Y-101052223D01*
X201289225Y-100769736D01*
X201150069Y-100509394D01*
X200962797Y-100281203D01*
X200734606Y-100093931D01*
X200701060Y-100076000D01*
X200734606Y-100058069D01*
X200962797Y-99870797D01*
X201150069Y-99642606D01*
X201289225Y-99382264D01*
X201374916Y-99099777D01*
X201403851Y-98806000D01*
X201374916Y-98512223D01*
X201289225Y-98229736D01*
X201150069Y-97969394D01*
X200962797Y-97741203D01*
X200734606Y-97553931D01*
X200701060Y-97536000D01*
X200734606Y-97518069D01*
X200962797Y-97330797D01*
X201150069Y-97102606D01*
X201289225Y-96842264D01*
X201374916Y-96559777D01*
X201403851Y-96266000D01*
X201374916Y-95972223D01*
X201289225Y-95689736D01*
X201150069Y-95429394D01*
X200962797Y-95201203D01*
X200734606Y-95013931D01*
X200701060Y-94996000D01*
X200734606Y-94978069D01*
X200962797Y-94790797D01*
X201150069Y-94562606D01*
X201289225Y-94302264D01*
X201374916Y-94019777D01*
X201403851Y-93726000D01*
X201374916Y-93432223D01*
X201289225Y-93149736D01*
X201150069Y-92889394D01*
X200962797Y-92661203D01*
X200734606Y-92473931D01*
X200701060Y-92456000D01*
X200734606Y-92438069D01*
X200962797Y-92250797D01*
X201150069Y-92022606D01*
X201289225Y-91762264D01*
X201374916Y-91479777D01*
X201403851Y-91186000D01*
X201374916Y-90892223D01*
X201289225Y-90609736D01*
X201150069Y-90349394D01*
X200962797Y-90121203D01*
X200734606Y-89933931D01*
X200701060Y-89916000D01*
X200734606Y-89898069D01*
X200962797Y-89710797D01*
X201150069Y-89482606D01*
X201289225Y-89222264D01*
X201374916Y-88939777D01*
X201403851Y-88646000D01*
X201374916Y-88352223D01*
X201289225Y-88069736D01*
X201150069Y-87809394D01*
X200962797Y-87581203D01*
X200734606Y-87393931D01*
X200701060Y-87376000D01*
X200734606Y-87358069D01*
X200962797Y-87170797D01*
X201150069Y-86942606D01*
X201289225Y-86682264D01*
X201374916Y-86399777D01*
X201403851Y-86106000D01*
X201374916Y-85812223D01*
X201289225Y-85529736D01*
X201150069Y-85269394D01*
X200962797Y-85041203D01*
X200734606Y-84853931D01*
X200701060Y-84836000D01*
X200734606Y-84818069D01*
X200962797Y-84630797D01*
X201150069Y-84402606D01*
X201289225Y-84142264D01*
X201374916Y-83859777D01*
X201403851Y-83566000D01*
X201374916Y-83272223D01*
X201289225Y-82989736D01*
X201150069Y-82729394D01*
X200962797Y-82501203D01*
X200734606Y-82313931D01*
X200701060Y-82296000D01*
X200734606Y-82278069D01*
X200962797Y-82090797D01*
X201150069Y-81862606D01*
X201289225Y-81602264D01*
X201374916Y-81319777D01*
X201403851Y-81026000D01*
X201374916Y-80732223D01*
X201289225Y-80449736D01*
X201150069Y-80189394D01*
X200962797Y-79961203D01*
X200734606Y-79773931D01*
X200701060Y-79756000D01*
X200734606Y-79738069D01*
X200962797Y-79550797D01*
X201150069Y-79322606D01*
X201289225Y-79062264D01*
X201374916Y-78779777D01*
X201403851Y-78486000D01*
X201374916Y-78192223D01*
X201289225Y-77909736D01*
X201150069Y-77649394D01*
X200962797Y-77421203D01*
X200734606Y-77233931D01*
X200701060Y-77216000D01*
X200734606Y-77198069D01*
X200962797Y-77010797D01*
X201150069Y-76782606D01*
X201289225Y-76522264D01*
X201374916Y-76239777D01*
X201403851Y-75946000D01*
X201374916Y-75652223D01*
X201289225Y-75369736D01*
X201150069Y-75109394D01*
X200962797Y-74881203D01*
X200734606Y-74693931D01*
X200701060Y-74676000D01*
X200734606Y-74658069D01*
X200962797Y-74470797D01*
X201150069Y-74242606D01*
X201289225Y-73982264D01*
X201374916Y-73699777D01*
X201403851Y-73406000D01*
X201374916Y-73112223D01*
X201289225Y-72829736D01*
X201150069Y-72569394D01*
X200962797Y-72341203D01*
X200734606Y-72153931D01*
X200694567Y-72132530D01*
X200908293Y-71972854D01*
X201104817Y-71754488D01*
X201254964Y-71501978D01*
X201352963Y-71225027D01*
X201232464Y-70993000D01*
X200025000Y-70993000D01*
X200025000Y-71013000D01*
X199771000Y-71013000D01*
X199771000Y-70993000D01*
X197485000Y-70993000D01*
X197485000Y-71013000D01*
X197231000Y-71013000D01*
X197231000Y-70993000D01*
X197211000Y-70993000D01*
X197211000Y-70739000D01*
X197231000Y-70739000D01*
X197231000Y-69532183D01*
X197485000Y-69532183D01*
X197485000Y-70739000D01*
X199771000Y-70739000D01*
X199771000Y-69532183D01*
X199538974Y-69411042D01*
X199388186Y-69456778D01*
X199123056Y-69583316D01*
X198887707Y-69759146D01*
X198691183Y-69977512D01*
X198628000Y-70083770D01*
X198564817Y-69977512D01*
X198368293Y-69759146D01*
X198132944Y-69583316D01*
X197867814Y-69456778D01*
X197717026Y-69411042D01*
X197485000Y-69532183D01*
X197231000Y-69532183D01*
X196998974Y-69411042D01*
X196848186Y-69456778D01*
X196583056Y-69583316D01*
X196347707Y-69759146D01*
X196151183Y-69977512D01*
X196101397Y-70061240D01*
X195911464Y-69602702D01*
X195619594Y-69165887D01*
X195489707Y-69036000D01*
X199603909Y-69036000D01*
X200074334Y-69506426D01*
X200025000Y-69532183D01*
X200025000Y-70739000D01*
X201232464Y-70739000D01*
X201257910Y-70690002D01*
X201728000Y-71160092D01*
X201728001Y-80991115D01*
X201724565Y-81026000D01*
X201738274Y-81165184D01*
X201778872Y-81299019D01*
X201844801Y-81422363D01*
X201905534Y-81496366D01*
X201933526Y-81530475D01*
X201960617Y-81552708D01*
X204268000Y-83860092D01*
X204268001Y-117561907D01*
X202565000Y-119264909D01*
X202565000Y-118863323D01*
X202462508Y-118348065D01*
X202261464Y-117862702D01*
X201969594Y-117425887D01*
X201598113Y-117054406D01*
X201161298Y-116762536D01*
X200675935Y-116561492D01*
X200160677Y-116459000D01*
X199635323Y-116459000D01*
X199120065Y-116561492D01*
X198634702Y-116762536D01*
X198197887Y-117054406D01*
X197826406Y-117425887D01*
X197534536Y-117862702D01*
X197333492Y-118348065D01*
X197231000Y-118863323D01*
X197231000Y-119388677D01*
X197333492Y-119903935D01*
X197534536Y-120389298D01*
X197826406Y-120826113D01*
X197956293Y-120956000D01*
X119289707Y-120956000D01*
X119419594Y-120826113D01*
X119711464Y-120389298D01*
X119912508Y-119903935D01*
X120015000Y-119388677D01*
X120015000Y-118899982D01*
X129819400Y-118899982D01*
X129819400Y-119352019D01*
X129841084Y-119572177D01*
X129926775Y-119854664D01*
X130065931Y-120115006D01*
X130253203Y-120343197D01*
X130481395Y-120530469D01*
X130741737Y-120669625D01*
X131024224Y-120755316D01*
X131318000Y-120784251D01*
X131611777Y-120755316D01*
X131894264Y-120669625D01*
X132154606Y-120530469D01*
X132382797Y-120343197D01*
X132570069Y-120115006D01*
X132588000Y-120081459D01*
X132605931Y-120115006D01*
X132793203Y-120343197D01*
X133021395Y-120530469D01*
X133281737Y-120669625D01*
X133564224Y-120755316D01*
X133858000Y-120784251D01*
X134151777Y-120755316D01*
X134434264Y-120669625D01*
X134694606Y-120530469D01*
X134922797Y-120343197D01*
X135110069Y-120115006D01*
X135128000Y-120081459D01*
X135145931Y-120115006D01*
X135333203Y-120343197D01*
X135561395Y-120530469D01*
X135821737Y-120669625D01*
X136104224Y-120755316D01*
X136398000Y-120784251D01*
X136691777Y-120755316D01*
X136974264Y-120669625D01*
X137234606Y-120530469D01*
X137462797Y-120343197D01*
X137650069Y-120115006D01*
X137668000Y-120081459D01*
X137685931Y-120115006D01*
X137873203Y-120343197D01*
X138101395Y-120530469D01*
X138361737Y-120669625D01*
X138644224Y-120755316D01*
X138938000Y-120784251D01*
X139231777Y-120755316D01*
X139514264Y-120669625D01*
X139774606Y-120530469D01*
X140002797Y-120343197D01*
X140190069Y-120115006D01*
X140211424Y-120075053D01*
X140359514Y-120277729D01*
X140575965Y-120476733D01*
X140827081Y-120629686D01*
X141103211Y-120730709D01*
X141118974Y-120733358D01*
X141351000Y-120612217D01*
X141351000Y-119253000D01*
X141331000Y-119253000D01*
X141331000Y-118999000D01*
X141351000Y-118999000D01*
X141351000Y-117639783D01*
X141605000Y-117639783D01*
X141605000Y-118999000D01*
X141625000Y-118999000D01*
X141625000Y-119253000D01*
X141605000Y-119253000D01*
X141605000Y-120612217D01*
X141837026Y-120733358D01*
X141852789Y-120730709D01*
X142128919Y-120629686D01*
X142380035Y-120476733D01*
X142596486Y-120277729D01*
X142744576Y-120075053D01*
X142765931Y-120115006D01*
X142953203Y-120343197D01*
X143181395Y-120530469D01*
X143441737Y-120669625D01*
X143724224Y-120755316D01*
X144018000Y-120784251D01*
X144311777Y-120755316D01*
X144594264Y-120669625D01*
X144854606Y-120530469D01*
X145082797Y-120343197D01*
X145270069Y-120115006D01*
X145288000Y-120081459D01*
X145305931Y-120115006D01*
X145493203Y-120343197D01*
X145721395Y-120530469D01*
X145981737Y-120669625D01*
X146264224Y-120755316D01*
X146558000Y-120784251D01*
X146851777Y-120755316D01*
X147134264Y-120669625D01*
X147394606Y-120530469D01*
X147622797Y-120343197D01*
X147810069Y-120115006D01*
X147828000Y-120081459D01*
X147845931Y-120115006D01*
X148033203Y-120343197D01*
X148261395Y-120530469D01*
X148521737Y-120669625D01*
X148804224Y-120755316D01*
X149098000Y-120784251D01*
X149391777Y-120755316D01*
X149674264Y-120669625D01*
X149934606Y-120530469D01*
X150162797Y-120343197D01*
X150350069Y-120115006D01*
X150489225Y-119854663D01*
X150574916Y-119572176D01*
X150596600Y-119352018D01*
X150596600Y-118899982D01*
X152679400Y-118899982D01*
X152679400Y-119352019D01*
X152701084Y-119572177D01*
X152786775Y-119854664D01*
X152925931Y-120115006D01*
X153113203Y-120343197D01*
X153341395Y-120530469D01*
X153601737Y-120669625D01*
X153884224Y-120755316D01*
X154178000Y-120784251D01*
X154471777Y-120755316D01*
X154754264Y-120669625D01*
X155014606Y-120530469D01*
X155242797Y-120343197D01*
X155430069Y-120115006D01*
X155448000Y-120081459D01*
X155465931Y-120115006D01*
X155653203Y-120343197D01*
X155881395Y-120530469D01*
X156141737Y-120669625D01*
X156424224Y-120755316D01*
X156718000Y-120784251D01*
X157011777Y-120755316D01*
X157294264Y-120669625D01*
X157554606Y-120530469D01*
X157782797Y-120343197D01*
X157970069Y-120115006D01*
X157988000Y-120081459D01*
X158005931Y-120115006D01*
X158193203Y-120343197D01*
X158421395Y-120530469D01*
X158681737Y-120669625D01*
X158964224Y-120755316D01*
X159258000Y-120784251D01*
X159551777Y-120755316D01*
X159834264Y-120669625D01*
X160094606Y-120530469D01*
X160322797Y-120343197D01*
X160510069Y-120115006D01*
X160528000Y-120081459D01*
X160545931Y-120115006D01*
X160733203Y-120343197D01*
X160961395Y-120530469D01*
X161221737Y-120669625D01*
X161504224Y-120755316D01*
X161798000Y-120784251D01*
X162091777Y-120755316D01*
X162374264Y-120669625D01*
X162634606Y-120530469D01*
X162862797Y-120343197D01*
X163050069Y-120115006D01*
X163068000Y-120081459D01*
X163085931Y-120115006D01*
X163273203Y-120343197D01*
X163501395Y-120530469D01*
X163761737Y-120669625D01*
X164044224Y-120755316D01*
X164338000Y-120784251D01*
X164631777Y-120755316D01*
X164914264Y-120669625D01*
X165174606Y-120530469D01*
X165402797Y-120343197D01*
X165590069Y-120115006D01*
X165608000Y-120081459D01*
X165625931Y-120115006D01*
X165813203Y-120343197D01*
X166041395Y-120530469D01*
X166301737Y-120669625D01*
X166584224Y-120755316D01*
X166878000Y-120784251D01*
X167171777Y-120755316D01*
X167454264Y-120669625D01*
X167714606Y-120530469D01*
X167942797Y-120343197D01*
X168130069Y-120115006D01*
X168148000Y-120081459D01*
X168165931Y-120115006D01*
X168353203Y-120343197D01*
X168581395Y-120530469D01*
X168841737Y-120669625D01*
X169124224Y-120755316D01*
X169418000Y-120784251D01*
X169711777Y-120755316D01*
X169994264Y-120669625D01*
X170254606Y-120530469D01*
X170482797Y-120343197D01*
X170670069Y-120115006D01*
X170688000Y-120081459D01*
X170705931Y-120115006D01*
X170893203Y-120343197D01*
X171121395Y-120530469D01*
X171381737Y-120669625D01*
X171664224Y-120755316D01*
X171958000Y-120784251D01*
X172251777Y-120755316D01*
X172534264Y-120669625D01*
X172794606Y-120530469D01*
X173022797Y-120343197D01*
X173210069Y-120115006D01*
X173349225Y-119854663D01*
X173434916Y-119572176D01*
X173456600Y-119352018D01*
X173456600Y-118899982D01*
X175539400Y-118899982D01*
X175539400Y-119352019D01*
X175561084Y-119572177D01*
X175646775Y-119854664D01*
X175785931Y-120115006D01*
X175973203Y-120343197D01*
X176201395Y-120530469D01*
X176461737Y-120669625D01*
X176744224Y-120755316D01*
X177038000Y-120784251D01*
X177331777Y-120755316D01*
X177614264Y-120669625D01*
X177874606Y-120530469D01*
X178102797Y-120343197D01*
X178290069Y-120115006D01*
X178308000Y-120081459D01*
X178325931Y-120115006D01*
X178513203Y-120343197D01*
X178741395Y-120530469D01*
X179001737Y-120669625D01*
X179284224Y-120755316D01*
X179578000Y-120784251D01*
X179871777Y-120755316D01*
X180154264Y-120669625D01*
X180414606Y-120530469D01*
X180642797Y-120343197D01*
X180830069Y-120115006D01*
X180848000Y-120081459D01*
X180865931Y-120115006D01*
X181053203Y-120343197D01*
X181281395Y-120530469D01*
X181541737Y-120669625D01*
X181824224Y-120755316D01*
X182118000Y-120784251D01*
X182411777Y-120755316D01*
X182694264Y-120669625D01*
X182954606Y-120530469D01*
X183182797Y-120343197D01*
X183370069Y-120115006D01*
X183388000Y-120081459D01*
X183405931Y-120115006D01*
X183593203Y-120343197D01*
X183821395Y-120530469D01*
X184081737Y-120669625D01*
X184364224Y-120755316D01*
X184658000Y-120784251D01*
X184951777Y-120755316D01*
X185234264Y-120669625D01*
X185494606Y-120530469D01*
X185722797Y-120343197D01*
X185910069Y-120115006D01*
X185928000Y-120081459D01*
X185945931Y-120115006D01*
X186133203Y-120343197D01*
X186361395Y-120530469D01*
X186621737Y-120669625D01*
X186904224Y-120755316D01*
X187198000Y-120784251D01*
X187491777Y-120755316D01*
X187774264Y-120669625D01*
X188034606Y-120530469D01*
X188262797Y-120343197D01*
X188450069Y-120115006D01*
X188468000Y-120081459D01*
X188485931Y-120115006D01*
X188673203Y-120343197D01*
X188901395Y-120530469D01*
X189161737Y-120669625D01*
X189444224Y-120755316D01*
X189738000Y-120784251D01*
X190031777Y-120755316D01*
X190314264Y-120669625D01*
X190574606Y-120530469D01*
X190802797Y-120343197D01*
X190990069Y-120115006D01*
X191008000Y-120081459D01*
X191025931Y-120115006D01*
X191213203Y-120343197D01*
X191441395Y-120530469D01*
X191701737Y-120669625D01*
X191984224Y-120755316D01*
X192278000Y-120784251D01*
X192571777Y-120755316D01*
X192854264Y-120669625D01*
X193114606Y-120530469D01*
X193342797Y-120343197D01*
X193530069Y-120115006D01*
X193548000Y-120081459D01*
X193565931Y-120115006D01*
X193753203Y-120343197D01*
X193981395Y-120530469D01*
X194241737Y-120669625D01*
X194524224Y-120755316D01*
X194818000Y-120784251D01*
X195111777Y-120755316D01*
X195394264Y-120669625D01*
X195654606Y-120530469D01*
X195882797Y-120343197D01*
X196070069Y-120115006D01*
X196209225Y-119854663D01*
X196294916Y-119572176D01*
X196316600Y-119352018D01*
X196316600Y-118899981D01*
X196294916Y-118679823D01*
X196209225Y-118397336D01*
X196070069Y-118136994D01*
X195882797Y-117908803D01*
X195654605Y-117721531D01*
X195394263Y-117582375D01*
X195111776Y-117496684D01*
X194818000Y-117467749D01*
X194524223Y-117496684D01*
X194241736Y-117582375D01*
X193981394Y-117721531D01*
X193753203Y-117908803D01*
X193565931Y-118136995D01*
X193548000Y-118170541D01*
X193530069Y-118136994D01*
X193342797Y-117908803D01*
X193114605Y-117721531D01*
X192854263Y-117582375D01*
X192571776Y-117496684D01*
X192278000Y-117467749D01*
X191984223Y-117496684D01*
X191701736Y-117582375D01*
X191441394Y-117721531D01*
X191213203Y-117908803D01*
X191025931Y-118136995D01*
X191008000Y-118170541D01*
X190990069Y-118136994D01*
X190802797Y-117908803D01*
X190574605Y-117721531D01*
X190314263Y-117582375D01*
X190031776Y-117496684D01*
X189738000Y-117467749D01*
X189444223Y-117496684D01*
X189161736Y-117582375D01*
X188901394Y-117721531D01*
X188673203Y-117908803D01*
X188485931Y-118136995D01*
X188468000Y-118170541D01*
X188450069Y-118136994D01*
X188262797Y-117908803D01*
X188034605Y-117721531D01*
X187774263Y-117582375D01*
X187491776Y-117496684D01*
X187198000Y-117467749D01*
X186904223Y-117496684D01*
X186621736Y-117582375D01*
X186361394Y-117721531D01*
X186133203Y-117908803D01*
X185945931Y-118136995D01*
X185928000Y-118170541D01*
X185910069Y-118136994D01*
X185722797Y-117908803D01*
X185494605Y-117721531D01*
X185234263Y-117582375D01*
X184951776Y-117496684D01*
X184658000Y-117467749D01*
X184364223Y-117496684D01*
X184081736Y-117582375D01*
X183821394Y-117721531D01*
X183593203Y-117908803D01*
X183405931Y-118136995D01*
X183388000Y-118170541D01*
X183370069Y-118136994D01*
X183182797Y-117908803D01*
X182954605Y-117721531D01*
X182694263Y-117582375D01*
X182411776Y-117496684D01*
X182118000Y-117467749D01*
X181824223Y-117496684D01*
X181541736Y-117582375D01*
X181281394Y-117721531D01*
X181053203Y-117908803D01*
X180865931Y-118136995D01*
X180848000Y-118170541D01*
X180830069Y-118136994D01*
X180642797Y-117908803D01*
X180414605Y-117721531D01*
X180154263Y-117582375D01*
X179871776Y-117496684D01*
X179578000Y-117467749D01*
X179284223Y-117496684D01*
X179001736Y-117582375D01*
X178741394Y-117721531D01*
X178513203Y-117908803D01*
X178325931Y-118136995D01*
X178308000Y-118170541D01*
X178290069Y-118136994D01*
X178102797Y-117908803D01*
X177874605Y-117721531D01*
X177614263Y-117582375D01*
X177331776Y-117496684D01*
X177038000Y-117467749D01*
X176744223Y-117496684D01*
X176461736Y-117582375D01*
X176201394Y-117721531D01*
X175973203Y-117908803D01*
X175785931Y-118136995D01*
X175646775Y-118397337D01*
X175561084Y-118679824D01*
X175539400Y-118899982D01*
X173456600Y-118899982D01*
X173456600Y-118899981D01*
X173434916Y-118679823D01*
X173349225Y-118397336D01*
X173210069Y-118136994D01*
X173022797Y-117908803D01*
X172794605Y-117721531D01*
X172534263Y-117582375D01*
X172251776Y-117496684D01*
X171958000Y-117467749D01*
X171664223Y-117496684D01*
X171381736Y-117582375D01*
X171121394Y-117721531D01*
X170893203Y-117908803D01*
X170705931Y-118136995D01*
X170688000Y-118170541D01*
X170670069Y-118136994D01*
X170482797Y-117908803D01*
X170254605Y-117721531D01*
X169994263Y-117582375D01*
X169711776Y-117496684D01*
X169418000Y-117467749D01*
X169124223Y-117496684D01*
X168841736Y-117582375D01*
X168581394Y-117721531D01*
X168353203Y-117908803D01*
X168165931Y-118136995D01*
X168148000Y-118170541D01*
X168130069Y-118136994D01*
X167942797Y-117908803D01*
X167714605Y-117721531D01*
X167454263Y-117582375D01*
X167171776Y-117496684D01*
X166878000Y-117467749D01*
X166584223Y-117496684D01*
X166301736Y-117582375D01*
X166041394Y-117721531D01*
X165813203Y-117908803D01*
X165625931Y-118136995D01*
X165608000Y-118170541D01*
X165590069Y-118136994D01*
X165402797Y-117908803D01*
X165174605Y-117721531D01*
X164914263Y-117582375D01*
X164631776Y-117496684D01*
X164338000Y-117467749D01*
X164044223Y-117496684D01*
X163761736Y-117582375D01*
X163501394Y-117721531D01*
X163273203Y-117908803D01*
X163085931Y-118136995D01*
X163068000Y-118170541D01*
X163050069Y-118136994D01*
X162862797Y-117908803D01*
X162634605Y-117721531D01*
X162374263Y-117582375D01*
X162091776Y-117496684D01*
X161798000Y-117467749D01*
X161504223Y-117496684D01*
X161221736Y-117582375D01*
X160961394Y-117721531D01*
X160733203Y-117908803D01*
X160545931Y-118136995D01*
X160528000Y-118170541D01*
X160510069Y-118136994D01*
X160322797Y-117908803D01*
X160094605Y-117721531D01*
X159834263Y-117582375D01*
X159551776Y-117496684D01*
X159258000Y-117467749D01*
X158964223Y-117496684D01*
X158681736Y-117582375D01*
X158421394Y-117721531D01*
X158193203Y-117908803D01*
X158005931Y-118136995D01*
X157988000Y-118170541D01*
X157970069Y-118136994D01*
X157782797Y-117908803D01*
X157554605Y-117721531D01*
X157294263Y-117582375D01*
X157011776Y-117496684D01*
X156718000Y-117467749D01*
X156424223Y-117496684D01*
X156141736Y-117582375D01*
X155881394Y-117721531D01*
X155653203Y-117908803D01*
X155465931Y-118136995D01*
X155448000Y-118170541D01*
X155430069Y-118136994D01*
X155242797Y-117908803D01*
X155014605Y-117721531D01*
X154754263Y-117582375D01*
X154471776Y-117496684D01*
X154178000Y-117467749D01*
X153884223Y-117496684D01*
X153601736Y-117582375D01*
X153341394Y-117721531D01*
X153113203Y-117908803D01*
X152925931Y-118136995D01*
X152786775Y-118397337D01*
X152701084Y-118679824D01*
X152679400Y-118899982D01*
X150596600Y-118899982D01*
X150596600Y-118899981D01*
X150574916Y-118679823D01*
X150489225Y-118397336D01*
X150350069Y-118136994D01*
X150162797Y-117908803D01*
X149934605Y-117721531D01*
X149674263Y-117582375D01*
X149391776Y-117496684D01*
X149098000Y-117467749D01*
X148804223Y-117496684D01*
X148521736Y-117582375D01*
X148261394Y-117721531D01*
X148033203Y-117908803D01*
X147845931Y-118136995D01*
X147828000Y-118170541D01*
X147810069Y-118136994D01*
X147622797Y-117908803D01*
X147394605Y-117721531D01*
X147134263Y-117582375D01*
X146851776Y-117496684D01*
X146558000Y-117467749D01*
X146264223Y-117496684D01*
X145981736Y-117582375D01*
X145721394Y-117721531D01*
X145493203Y-117908803D01*
X145305931Y-118136995D01*
X145288000Y-118170541D01*
X145270069Y-118136994D01*
X145082797Y-117908803D01*
X144854605Y-117721531D01*
X144594263Y-117582375D01*
X144311776Y-117496684D01*
X144018000Y-117467749D01*
X143724223Y-117496684D01*
X143441736Y-117582375D01*
X143181394Y-117721531D01*
X142953203Y-117908803D01*
X142765931Y-118136995D01*
X142744576Y-118176947D01*
X142596486Y-117974271D01*
X142380035Y-117775267D01*
X142128919Y-117622314D01*
X141852789Y-117521291D01*
X141837026Y-117518642D01*
X141605000Y-117639783D01*
X141351000Y-117639783D01*
X141118974Y-117518642D01*
X141103211Y-117521291D01*
X140827081Y-117622314D01*
X140575965Y-117775267D01*
X140359514Y-117974271D01*
X140211424Y-118176947D01*
X140190069Y-118136994D01*
X140002797Y-117908803D01*
X139774605Y-117721531D01*
X139514263Y-117582375D01*
X139231776Y-117496684D01*
X138938000Y-117467749D01*
X138644223Y-117496684D01*
X138361736Y-117582375D01*
X138101394Y-117721531D01*
X137873203Y-117908803D01*
X137685931Y-118136995D01*
X137668000Y-118170541D01*
X137650069Y-118136994D01*
X137462797Y-117908803D01*
X137234605Y-117721531D01*
X136974263Y-117582375D01*
X136691776Y-117496684D01*
X136398000Y-117467749D01*
X136104223Y-117496684D01*
X135821736Y-117582375D01*
X135561394Y-117721531D01*
X135333203Y-117908803D01*
X135145931Y-118136995D01*
X135128000Y-118170541D01*
X135110069Y-118136994D01*
X134922797Y-117908803D01*
X134694605Y-117721531D01*
X134434263Y-117582375D01*
X134151776Y-117496684D01*
X133858000Y-117467749D01*
X133564223Y-117496684D01*
X133281736Y-117582375D01*
X133021394Y-117721531D01*
X132793203Y-117908803D01*
X132605931Y-118136995D01*
X132588000Y-118170541D01*
X132570069Y-118136994D01*
X132382797Y-117908803D01*
X132154605Y-117721531D01*
X131894263Y-117582375D01*
X131611776Y-117496684D01*
X131318000Y-117467749D01*
X131024223Y-117496684D01*
X130741736Y-117582375D01*
X130481394Y-117721531D01*
X130253203Y-117908803D01*
X130065931Y-118136995D01*
X129926775Y-118397337D01*
X129841084Y-118679824D01*
X129819400Y-118899982D01*
X120015000Y-118899982D01*
X120015000Y-118863323D01*
X119912508Y-118348065D01*
X119711464Y-117862702D01*
X119419594Y-117425887D01*
X119048113Y-117054406D01*
X118611298Y-116762536D01*
X118125935Y-116561492D01*
X117610677Y-116459000D01*
X117085323Y-116459000D01*
X116570065Y-116561492D01*
X116084702Y-116762536D01*
X115647887Y-117054406D01*
X115276406Y-117425887D01*
X114984536Y-117862702D01*
X114783492Y-118348065D01*
X114681000Y-118863323D01*
X114681000Y-119388677D01*
X114783492Y-119903935D01*
X114984536Y-120389298D01*
X115276406Y-120826113D01*
X115406293Y-120956000D01*
X104088000Y-120956000D01*
X104088000Y-118267000D01*
X107358128Y-118267000D01*
X107370388Y-118391482D01*
X107406698Y-118511180D01*
X107465663Y-118621494D01*
X107545015Y-118718185D01*
X107641706Y-118797537D01*
X107752020Y-118856502D01*
X107871718Y-118892812D01*
X107996200Y-118905072D01*
X109010450Y-118902000D01*
X109169200Y-118743250D01*
X109169200Y-117094000D01*
X109423200Y-117094000D01*
X109423200Y-118743250D01*
X109581950Y-118902000D01*
X110596200Y-118905072D01*
X110720682Y-118892812D01*
X110840380Y-118856502D01*
X110950694Y-118797537D01*
X111047385Y-118718185D01*
X111126737Y-118621494D01*
X111185702Y-118511180D01*
X111222012Y-118391482D01*
X111234272Y-118267000D01*
X111231200Y-117252750D01*
X111072450Y-117094000D01*
X109423200Y-117094000D01*
X109169200Y-117094000D01*
X107519950Y-117094000D01*
X107361200Y-117252750D01*
X107358128Y-118267000D01*
X104088000Y-118267000D01*
X104088000Y-115667000D01*
X107358128Y-115667000D01*
X107361200Y-116681250D01*
X107519950Y-116840000D01*
X109169200Y-116840000D01*
X109169200Y-115190750D01*
X109423200Y-115190750D01*
X109423200Y-116840000D01*
X111072450Y-116840000D01*
X111231200Y-116681250D01*
X111234272Y-115667000D01*
X111222012Y-115542518D01*
X111185702Y-115422820D01*
X111126737Y-115312506D01*
X111047385Y-115215815D01*
X110950694Y-115136463D01*
X110840380Y-115077498D01*
X110720682Y-115041188D01*
X110596200Y-115028928D01*
X109581950Y-115032000D01*
X109423200Y-115190750D01*
X109169200Y-115190750D01*
X109010450Y-115032000D01*
X107996200Y-115028928D01*
X107871718Y-115041188D01*
X107752020Y-115077498D01*
X107641706Y-115136463D01*
X107545015Y-115215815D01*
X107465663Y-115312506D01*
X107406698Y-115422820D01*
X107370388Y-115542518D01*
X107358128Y-115667000D01*
X104088000Y-115667000D01*
X104088000Y-111776419D01*
X107361200Y-111776419D01*
X107361200Y-112157581D01*
X107435561Y-112531419D01*
X107581425Y-112883566D01*
X107793187Y-113200491D01*
X108062709Y-113470013D01*
X108379634Y-113681775D01*
X108731781Y-113827639D01*
X109105619Y-113902000D01*
X109486781Y-113902000D01*
X109860619Y-113827639D01*
X110212766Y-113681775D01*
X110529691Y-113470013D01*
X110799213Y-113200491D01*
X111010975Y-112883566D01*
X111156839Y-112531419D01*
X111231200Y-112157581D01*
X111231200Y-111776419D01*
X111156839Y-111402581D01*
X111010975Y-111050434D01*
X110799213Y-110733509D01*
X110529691Y-110463987D01*
X110212766Y-110252225D01*
X109860619Y-110106361D01*
X109486781Y-110032000D01*
X109105619Y-110032000D01*
X108731781Y-110106361D01*
X108379634Y-110252225D01*
X108062709Y-110463987D01*
X107793187Y-110733509D01*
X107581425Y-111050434D01*
X107435561Y-111402581D01*
X107361200Y-111776419D01*
X104088000Y-111776419D01*
X104088000Y-105208793D01*
X115004200Y-105208793D01*
X115004200Y-105560407D01*
X115072796Y-105905265D01*
X115207353Y-106230115D01*
X115402700Y-106522471D01*
X115651329Y-106771100D01*
X115943685Y-106966447D01*
X116268535Y-107101004D01*
X116613393Y-107169600D01*
X116965007Y-107169600D01*
X117309865Y-107101004D01*
X117634715Y-106966447D01*
X117927071Y-106771100D01*
X118175700Y-106522471D01*
X118371047Y-106230115D01*
X118505604Y-105905265D01*
X118529201Y-105786636D01*
X118529201Y-107593268D01*
X118525524Y-107630600D01*
X118529201Y-107667933D01*
X118540198Y-107779586D01*
X118553375Y-107823026D01*
X118583654Y-107922846D01*
X118654226Y-108054876D01*
X118708672Y-108121218D01*
X118749200Y-108170601D01*
X118778198Y-108194399D01*
X124151492Y-113567694D01*
X124137964Y-113612291D01*
X124110257Y-113893600D01*
X124137964Y-114174909D01*
X124220018Y-114445408D01*
X124353268Y-114694701D01*
X124532592Y-114913208D01*
X124751099Y-115092532D01*
X125000392Y-115225782D01*
X125270891Y-115307836D01*
X125481708Y-115328600D01*
X125622692Y-115328600D01*
X125833509Y-115307836D01*
X126104008Y-115225782D01*
X126353301Y-115092532D01*
X126571808Y-114913208D01*
X126751132Y-114694701D01*
X126884382Y-114445408D01*
X126966436Y-114174909D01*
X126994143Y-113893600D01*
X126966436Y-113612291D01*
X126884382Y-113341792D01*
X126751132Y-113092499D01*
X126571808Y-112873992D01*
X126353301Y-112694668D01*
X126104008Y-112561418D01*
X125833509Y-112479364D01*
X125622692Y-112458600D01*
X125481708Y-112458600D01*
X125270891Y-112479364D01*
X125226294Y-112492892D01*
X120049200Y-107315799D01*
X120049200Y-104501868D01*
X120134715Y-104466447D01*
X120427071Y-104271100D01*
X120675700Y-104022471D01*
X120871047Y-103730115D01*
X121005604Y-103405265D01*
X121074200Y-103060407D01*
X121074200Y-102708793D01*
X121005604Y-102363935D01*
X120871047Y-102039085D01*
X120675700Y-101746729D01*
X120427071Y-101498100D01*
X120134715Y-101302753D01*
X119809865Y-101168196D01*
X119465007Y-101099600D01*
X119113393Y-101099600D01*
X118768535Y-101168196D01*
X118443685Y-101302753D01*
X118151329Y-101498100D01*
X117902700Y-101746729D01*
X117707353Y-102039085D01*
X117572796Y-102363935D01*
X117504200Y-102708793D01*
X117504200Y-103060407D01*
X117572796Y-103405265D01*
X117707353Y-103730115D01*
X117853624Y-103949024D01*
X117634715Y-103802753D01*
X117309865Y-103668196D01*
X116965007Y-103599600D01*
X116613393Y-103599600D01*
X116268535Y-103668196D01*
X115943685Y-103802753D01*
X115651329Y-103998100D01*
X115402700Y-104246729D01*
X115207353Y-104539085D01*
X115072796Y-104863935D01*
X115004200Y-105208793D01*
X104088000Y-105208793D01*
X104088000Y-100223567D01*
X105154200Y-100223567D01*
X105154200Y-100545633D01*
X105217032Y-100861512D01*
X105340282Y-101159063D01*
X105519213Y-101426852D01*
X105746948Y-101654587D01*
X106014737Y-101833518D01*
X106312288Y-101956768D01*
X106628167Y-102019600D01*
X106950233Y-102019600D01*
X107266112Y-101956768D01*
X107563663Y-101833518D01*
X107831452Y-101654587D01*
X108059187Y-101426852D01*
X108238118Y-101159063D01*
X108361368Y-100861512D01*
X108424200Y-100545633D01*
X108424200Y-100223567D01*
X108361368Y-99907688D01*
X108238118Y-99610137D01*
X108059187Y-99342348D01*
X107831452Y-99114613D01*
X107563663Y-98935682D01*
X107266112Y-98812432D01*
X106950233Y-98749600D01*
X106628167Y-98749600D01*
X106312288Y-98812432D01*
X106014737Y-98935682D01*
X105746948Y-99114613D01*
X105519213Y-99342348D01*
X105340282Y-99610137D01*
X105217032Y-99907688D01*
X105154200Y-100223567D01*
X104088000Y-100223567D01*
X104088000Y-97708793D01*
X115004200Y-97708793D01*
X115004200Y-98060407D01*
X115072796Y-98405265D01*
X115207353Y-98730115D01*
X115402700Y-99022471D01*
X115651329Y-99271100D01*
X115943685Y-99466447D01*
X116268535Y-99601004D01*
X116613393Y-99669600D01*
X116965007Y-99669600D01*
X117309865Y-99601004D01*
X117634715Y-99466447D01*
X117927071Y-99271100D01*
X118175700Y-99022471D01*
X118371047Y-98730115D01*
X118505604Y-98405265D01*
X118574200Y-98060407D01*
X118574200Y-97708793D01*
X118505604Y-97363935D01*
X118371047Y-97039085D01*
X118175700Y-96746729D01*
X117927071Y-96498100D01*
X117634715Y-96302753D01*
X117309865Y-96168196D01*
X116965007Y-96099600D01*
X116613393Y-96099600D01*
X116268535Y-96168196D01*
X115943685Y-96302753D01*
X115651329Y-96498100D01*
X115402700Y-96746729D01*
X115207353Y-97039085D01*
X115072796Y-97363935D01*
X115004200Y-97708793D01*
X104088000Y-97708793D01*
X104088000Y-95223567D01*
X105154200Y-95223567D01*
X105154200Y-95545633D01*
X105217032Y-95861512D01*
X105340282Y-96159063D01*
X105519213Y-96426852D01*
X105746948Y-96654587D01*
X106014737Y-96833518D01*
X106312288Y-96956768D01*
X106628167Y-97019600D01*
X106950233Y-97019600D01*
X107266112Y-96956768D01*
X107563663Y-96833518D01*
X107831452Y-96654587D01*
X108059187Y-96426852D01*
X108238118Y-96159063D01*
X108361368Y-95861512D01*
X108424200Y-95545633D01*
X108424200Y-95223567D01*
X108361368Y-94907688D01*
X108238118Y-94610137D01*
X108059187Y-94342348D01*
X107831452Y-94114613D01*
X107563663Y-93935682D01*
X107266112Y-93812432D01*
X106950233Y-93749600D01*
X106628167Y-93749600D01*
X106312288Y-93812432D01*
X106014737Y-93935682D01*
X105746948Y-94114613D01*
X105519213Y-94342348D01*
X105340282Y-94610137D01*
X105217032Y-94907688D01*
X105154200Y-95223567D01*
X104088000Y-95223567D01*
X104088000Y-90208793D01*
X115004200Y-90208793D01*
X115004200Y-90560407D01*
X115072796Y-90905265D01*
X115207353Y-91230115D01*
X115402700Y-91522471D01*
X115651329Y-91771100D01*
X115943685Y-91966447D01*
X116268535Y-92101004D01*
X116613393Y-92169600D01*
X116965007Y-92169600D01*
X117309865Y-92101004D01*
X117634715Y-91966447D01*
X117853624Y-91820176D01*
X117707353Y-92039085D01*
X117572796Y-92363935D01*
X117504200Y-92708793D01*
X117504200Y-93060407D01*
X117572796Y-93405265D01*
X117707353Y-93730115D01*
X117902700Y-94022471D01*
X118151329Y-94271100D01*
X118443685Y-94466447D01*
X118529201Y-94501869D01*
X118529200Y-96493477D01*
X118525524Y-96530800D01*
X118529200Y-96568122D01*
X118529200Y-96568132D01*
X118540197Y-96679785D01*
X118565964Y-96764728D01*
X118583654Y-96823046D01*
X118654226Y-96955076D01*
X118655615Y-96956768D01*
X118749199Y-97070801D01*
X118778203Y-97094604D01*
X130075401Y-108391803D01*
X130075400Y-112168344D01*
X129810996Y-112309671D01*
X129531581Y-112538981D01*
X129302271Y-112818396D01*
X129131879Y-113137178D01*
X129026952Y-113483077D01*
X128991522Y-113842800D01*
X129026952Y-114202523D01*
X129131879Y-114548422D01*
X129302271Y-114867204D01*
X129531581Y-115146619D01*
X129810996Y-115375929D01*
X130129778Y-115546321D01*
X130475677Y-115651248D01*
X130745261Y-115677800D01*
X130925539Y-115677800D01*
X131195123Y-115651248D01*
X131541022Y-115546321D01*
X131859804Y-115375929D01*
X132139219Y-115146619D01*
X132368529Y-114867204D01*
X132538921Y-114548422D01*
X132643848Y-114202523D01*
X132669271Y-113944400D01*
X146513057Y-113944400D01*
X146540764Y-114225709D01*
X146622818Y-114496208D01*
X146756068Y-114745501D01*
X146935392Y-114964008D01*
X147153899Y-115143332D01*
X147403192Y-115276582D01*
X147673691Y-115358636D01*
X147884508Y-115379400D01*
X148025492Y-115379400D01*
X148236309Y-115358636D01*
X148506808Y-115276582D01*
X148756101Y-115143332D01*
X148974608Y-114964008D01*
X149038379Y-114886302D01*
X151231303Y-114886302D01*
X151302886Y-115130271D01*
X151558396Y-115251171D01*
X151832584Y-115319900D01*
X152114912Y-115333817D01*
X152394530Y-115292387D01*
X152660692Y-115197203D01*
X152785914Y-115130271D01*
X152857497Y-114886302D01*
X152044400Y-114073205D01*
X151231303Y-114886302D01*
X149038379Y-114886302D01*
X149153932Y-114745501D01*
X149287182Y-114496208D01*
X149369236Y-114225709D01*
X149395001Y-113964112D01*
X150604183Y-113964112D01*
X150645613Y-114243730D01*
X150740797Y-114509892D01*
X150807729Y-114635114D01*
X151051698Y-114706697D01*
X151864795Y-113893600D01*
X152224005Y-113893600D01*
X153037102Y-114706697D01*
X153281071Y-114635114D01*
X153401971Y-114379604D01*
X153470700Y-114105416D01*
X153484617Y-113823088D01*
X153478726Y-113783323D01*
X166751000Y-113783323D01*
X166751000Y-114308677D01*
X166853492Y-114823935D01*
X167054536Y-115309298D01*
X167346406Y-115746113D01*
X167717887Y-116117594D01*
X168154702Y-116409464D01*
X168640065Y-116610508D01*
X169155323Y-116713000D01*
X169680677Y-116713000D01*
X170195935Y-116610508D01*
X170681298Y-116409464D01*
X171118113Y-116117594D01*
X171489594Y-115746113D01*
X171781464Y-115309298D01*
X171982508Y-114823935D01*
X172085000Y-114308677D01*
X172085000Y-113783323D01*
X171982508Y-113268065D01*
X171781464Y-112782702D01*
X171489594Y-112345887D01*
X171118113Y-111974406D01*
X170681298Y-111682536D01*
X170195935Y-111481492D01*
X169680677Y-111379000D01*
X169155323Y-111379000D01*
X168640065Y-111481492D01*
X168154702Y-111682536D01*
X167717887Y-111974406D01*
X167346406Y-112345887D01*
X167054536Y-112782702D01*
X166853492Y-113268065D01*
X166751000Y-113783323D01*
X153478726Y-113783323D01*
X153443187Y-113543470D01*
X153348003Y-113277308D01*
X153281071Y-113152086D01*
X153037102Y-113080503D01*
X152224005Y-113893600D01*
X151864795Y-113893600D01*
X151051698Y-113080503D01*
X150807729Y-113152086D01*
X150686829Y-113407596D01*
X150618100Y-113681784D01*
X150604183Y-113964112D01*
X149395001Y-113964112D01*
X149396943Y-113944400D01*
X149369236Y-113663091D01*
X149287182Y-113392592D01*
X149153932Y-113143299D01*
X148974608Y-112924792D01*
X148945494Y-112900898D01*
X151231303Y-112900898D01*
X152044400Y-113713995D01*
X152857497Y-112900898D01*
X152785914Y-112656929D01*
X152530404Y-112536029D01*
X152256216Y-112467300D01*
X151973888Y-112453383D01*
X151694270Y-112494813D01*
X151428108Y-112589997D01*
X151302886Y-112656929D01*
X151231303Y-112900898D01*
X148945494Y-112900898D01*
X148756101Y-112745468D01*
X148506808Y-112612218D01*
X148236309Y-112530164D01*
X148025492Y-112509400D01*
X147884508Y-112509400D01*
X147673691Y-112530164D01*
X147403192Y-112612218D01*
X147153899Y-112745468D01*
X146935392Y-112924792D01*
X146756068Y-113143299D01*
X146622818Y-113392592D01*
X146540764Y-113663091D01*
X146513057Y-113944400D01*
X132669271Y-113944400D01*
X132679278Y-113842800D01*
X132643848Y-113483077D01*
X132557273Y-113197678D01*
X132575400Y-113182802D01*
X132670373Y-113067077D01*
X132740945Y-112935048D01*
X132784402Y-112791787D01*
X132795399Y-112680134D01*
X132795399Y-112680124D01*
X132799075Y-112642801D01*
X132795399Y-112605478D01*
X132795399Y-110525602D01*
X133593398Y-109727604D01*
X133590857Y-109753400D01*
X133618564Y-110034709D01*
X133700618Y-110305208D01*
X133833868Y-110554501D01*
X134013192Y-110773008D01*
X134231699Y-110952332D01*
X134480992Y-111085582D01*
X134751491Y-111167636D01*
X134962308Y-111188400D01*
X135903292Y-111188400D01*
X136114109Y-111167636D01*
X136384608Y-111085582D01*
X136633901Y-110952332D01*
X136852408Y-110773008D01*
X137031732Y-110554501D01*
X137164982Y-110305208D01*
X137247036Y-110034709D01*
X137274743Y-109753400D01*
X137247036Y-109472091D01*
X137164982Y-109201592D01*
X137031732Y-108952299D01*
X136852408Y-108733792D01*
X136633901Y-108554468D01*
X136500942Y-108483400D01*
X136633901Y-108412332D01*
X136852408Y-108233008D01*
X137031732Y-108014501D01*
X137164982Y-107765208D01*
X137247036Y-107494709D01*
X137274743Y-107213400D01*
X137247036Y-106932091D01*
X137164982Y-106661592D01*
X137031732Y-106412299D01*
X136852408Y-106193792D01*
X136633901Y-106014468D01*
X136500942Y-105943400D01*
X136633901Y-105872332D01*
X136852408Y-105693008D01*
X137031732Y-105474501D01*
X137164982Y-105225208D01*
X137247036Y-104954709D01*
X137274743Y-104673400D01*
X141210857Y-104673400D01*
X141238564Y-104954709D01*
X141320618Y-105225208D01*
X141453868Y-105474501D01*
X141633192Y-105693008D01*
X141851699Y-105872332D01*
X141984658Y-105943400D01*
X141851699Y-106014468D01*
X141633192Y-106193792D01*
X141453868Y-106412299D01*
X141320618Y-106661592D01*
X141238564Y-106932091D01*
X141210857Y-107213400D01*
X141238564Y-107494709D01*
X141320618Y-107765208D01*
X141453868Y-108014501D01*
X141633192Y-108233008D01*
X141851699Y-108412332D01*
X141984658Y-108483400D01*
X141851699Y-108554468D01*
X141633192Y-108733792D01*
X141453868Y-108952299D01*
X141320618Y-109201592D01*
X141238564Y-109472091D01*
X141210857Y-109753400D01*
X141238564Y-110034709D01*
X141320618Y-110305208D01*
X141453868Y-110554501D01*
X141633192Y-110773008D01*
X141851699Y-110952332D01*
X142100992Y-111085582D01*
X142371491Y-111167636D01*
X142582308Y-111188400D01*
X143523292Y-111188400D01*
X143734109Y-111167636D01*
X144004608Y-111085582D01*
X144253901Y-110952332D01*
X144472408Y-110773008D01*
X144651732Y-110554501D01*
X144784982Y-110305208D01*
X144867036Y-110034709D01*
X144894743Y-109753400D01*
X144867036Y-109472091D01*
X144784982Y-109201592D01*
X144651732Y-108952299D01*
X144472408Y-108733792D01*
X144253901Y-108554468D01*
X144120942Y-108483400D01*
X144253901Y-108412332D01*
X144472408Y-108233008D01*
X144651732Y-108014501D01*
X144784982Y-107765208D01*
X144867036Y-107494709D01*
X144894743Y-107213400D01*
X144867036Y-106932091D01*
X144860909Y-106911892D01*
X146108801Y-105664000D01*
X178339815Y-105664000D01*
X178368487Y-105955111D01*
X178453401Y-106235034D01*
X178591294Y-106493014D01*
X178776866Y-106719134D01*
X179002986Y-106904706D01*
X179200036Y-107010031D01*
X179030866Y-107148866D01*
X178845294Y-107374986D01*
X178707401Y-107632966D01*
X178622487Y-107912889D01*
X178593815Y-108204000D01*
X178622487Y-108495111D01*
X178707401Y-108775034D01*
X178845294Y-109033014D01*
X179030866Y-109259134D01*
X179200036Y-109397969D01*
X179002986Y-109503294D01*
X178776866Y-109688866D01*
X178591294Y-109914986D01*
X178453401Y-110172966D01*
X178368487Y-110452889D01*
X178339815Y-110744000D01*
X178368487Y-111035111D01*
X178453401Y-111315034D01*
X178591294Y-111573014D01*
X178776866Y-111799134D01*
X179002986Y-111984706D01*
X179260966Y-112122599D01*
X179540889Y-112207513D01*
X179759050Y-112229000D01*
X179904950Y-112229000D01*
X180123111Y-112207513D01*
X180403034Y-112122599D01*
X180661014Y-111984706D01*
X180887134Y-111799134D01*
X181072706Y-111573014D01*
X181102000Y-111518209D01*
X181131294Y-111573014D01*
X181316866Y-111799134D01*
X181542986Y-111984706D01*
X181800966Y-112122599D01*
X182080889Y-112207513D01*
X182299050Y-112229000D01*
X182444950Y-112229000D01*
X182663111Y-112207513D01*
X182943034Y-112122599D01*
X183201014Y-111984706D01*
X183427134Y-111799134D01*
X183612706Y-111573014D01*
X183750599Y-111315034D01*
X183835513Y-111035111D01*
X183864185Y-110744000D01*
X183835513Y-110452889D01*
X183750599Y-110172966D01*
X183612706Y-109914986D01*
X183427134Y-109688866D01*
X183257964Y-109550031D01*
X183455014Y-109444706D01*
X183681134Y-109259134D01*
X183866706Y-109033014D01*
X184004599Y-108775034D01*
X184089513Y-108495111D01*
X184118185Y-108204000D01*
X184089513Y-107912889D01*
X184004599Y-107632966D01*
X183866706Y-107374986D01*
X183681134Y-107148866D01*
X183455014Y-106963294D01*
X183386000Y-106926405D01*
X183386000Y-106752892D01*
X183427134Y-106719134D01*
X183612706Y-106493014D01*
X183750599Y-106235034D01*
X183835513Y-105955111D01*
X183864185Y-105664000D01*
X183835513Y-105372889D01*
X183750599Y-105092966D01*
X183612706Y-104834986D01*
X183427134Y-104608866D01*
X183257964Y-104470031D01*
X183455014Y-104364706D01*
X183681134Y-104179134D01*
X183866706Y-103953014D01*
X184004599Y-103695034D01*
X184089513Y-103415111D01*
X184118185Y-103124000D01*
X184089513Y-102832889D01*
X184004599Y-102552966D01*
X183866706Y-102294986D01*
X183681134Y-102068866D01*
X183455014Y-101883294D01*
X183197034Y-101745401D01*
X182917111Y-101660487D01*
X182698950Y-101639000D01*
X182553050Y-101639000D01*
X182334889Y-101660487D01*
X182054966Y-101745401D01*
X181796986Y-101883294D01*
X181570866Y-102068866D01*
X181546393Y-102098687D01*
X181525502Y-102029820D01*
X181466537Y-101919506D01*
X181387185Y-101822815D01*
X181290494Y-101743463D01*
X181180180Y-101684498D01*
X181060482Y-101648188D01*
X180936000Y-101635928D01*
X179236000Y-101635928D01*
X179111518Y-101648188D01*
X178991820Y-101684498D01*
X178881506Y-101743463D01*
X178784815Y-101822815D01*
X178705463Y-101919506D01*
X178646498Y-102029820D01*
X178610188Y-102149518D01*
X178597928Y-102274000D01*
X178597928Y-103974000D01*
X178610188Y-104098482D01*
X178646498Y-104218180D01*
X178705463Y-104328494D01*
X178784815Y-104425185D01*
X178881506Y-104504537D01*
X178895123Y-104511815D01*
X178776866Y-104608866D01*
X178591294Y-104834986D01*
X178453401Y-105092966D01*
X178368487Y-105372889D01*
X178339815Y-105664000D01*
X146108801Y-105664000D01*
X151718494Y-100054308D01*
X151763091Y-100067836D01*
X151973908Y-100088600D01*
X152114892Y-100088600D01*
X152325709Y-100067836D01*
X152370306Y-100054308D01*
X155925601Y-103609603D01*
X155949399Y-103638601D01*
X156054887Y-103725173D01*
X156163094Y-103927614D01*
X156348666Y-104153734D01*
X156574786Y-104339306D01*
X156832766Y-104477199D01*
X157112689Y-104562113D01*
X157330850Y-104583600D01*
X157476750Y-104583600D01*
X157694911Y-104562113D01*
X157974834Y-104477199D01*
X158232814Y-104339306D01*
X158458934Y-104153734D01*
X158644506Y-103927614D01*
X158782399Y-103669634D01*
X158867313Y-103389711D01*
X158895985Y-103098600D01*
X158867313Y-102807489D01*
X158782399Y-102527566D01*
X158644506Y-102269586D01*
X158458934Y-102043466D01*
X158429113Y-102018993D01*
X158497980Y-101998102D01*
X158608294Y-101939137D01*
X158704985Y-101859785D01*
X158784337Y-101763094D01*
X158843302Y-101652780D01*
X158879612Y-101533082D01*
X158891872Y-101408600D01*
X158891872Y-99708600D01*
X158879612Y-99584118D01*
X158843302Y-99464420D01*
X158784337Y-99354106D01*
X158704985Y-99257415D01*
X158608294Y-99178063D01*
X158497980Y-99119098D01*
X158378282Y-99082788D01*
X158253800Y-99070528D01*
X156553800Y-99070528D01*
X156429318Y-99082788D01*
X156309620Y-99119098D01*
X156199306Y-99178063D01*
X156102615Y-99257415D01*
X156023263Y-99354106D01*
X155964298Y-99464420D01*
X155927988Y-99584118D01*
X155915728Y-99708600D01*
X155915728Y-101408600D01*
X155920265Y-101454663D01*
X153445108Y-98979506D01*
X153458636Y-98934909D01*
X153486343Y-98653600D01*
X153458636Y-98372291D01*
X153376582Y-98101792D01*
X153243332Y-97852499D01*
X153064008Y-97633992D01*
X152845501Y-97454668D01*
X152596208Y-97321418D01*
X152325709Y-97239364D01*
X152114892Y-97218600D01*
X151973908Y-97218600D01*
X151763091Y-97239364D01*
X151492592Y-97321418D01*
X151243299Y-97454668D01*
X151024792Y-97633992D01*
X150845468Y-97852499D01*
X150712218Y-98101792D01*
X150630164Y-98372291D01*
X150602457Y-98653600D01*
X150630164Y-98934909D01*
X150643692Y-98979506D01*
X148715000Y-100908198D01*
X148715000Y-99922443D01*
X148869759Y-99819037D01*
X149069637Y-99619159D01*
X149226680Y-99384127D01*
X149334853Y-99122974D01*
X149390000Y-98845735D01*
X149390000Y-98563065D01*
X149334853Y-98285826D01*
X149226680Y-98024673D01*
X149069637Y-97789641D01*
X148869759Y-97589763D01*
X148634727Y-97432720D01*
X148373574Y-97324547D01*
X148096335Y-97269400D01*
X147813665Y-97269400D01*
X147536426Y-97324547D01*
X147275273Y-97432720D01*
X147040241Y-97589763D01*
X146840363Y-97789641D01*
X146683320Y-98024673D01*
X146575147Y-98285826D01*
X146520000Y-98563065D01*
X146520000Y-98845735D01*
X146575147Y-99122974D01*
X146683320Y-99384127D01*
X146840363Y-99619159D01*
X147040241Y-99819037D01*
X147195001Y-99922444D01*
X147195000Y-100906398D01*
X144458786Y-103642613D01*
X144253901Y-103474468D01*
X144126059Y-103406135D01*
X144355639Y-103256001D01*
X144557300Y-103058295D01*
X144716515Y-102825046D01*
X144827167Y-102565218D01*
X144844704Y-102482439D01*
X144722715Y-102260400D01*
X143179800Y-102260400D01*
X143179800Y-102280400D01*
X142925800Y-102280400D01*
X142925800Y-102260400D01*
X141382885Y-102260400D01*
X141260896Y-102482439D01*
X141278433Y-102565218D01*
X141389085Y-102825046D01*
X141548300Y-103058295D01*
X141749961Y-103256001D01*
X141979541Y-103406135D01*
X141851699Y-103474468D01*
X141633192Y-103653792D01*
X141453868Y-103872299D01*
X141320618Y-104121592D01*
X141238564Y-104392091D01*
X141210857Y-104673400D01*
X137274743Y-104673400D01*
X137247036Y-104392091D01*
X137164982Y-104121592D01*
X137031732Y-103872299D01*
X136852408Y-103653792D01*
X136739318Y-103560981D01*
X136757282Y-103559212D01*
X136876980Y-103522902D01*
X136987294Y-103463937D01*
X137083985Y-103384585D01*
X137163337Y-103287894D01*
X137222302Y-103177580D01*
X137258612Y-103057882D01*
X137270872Y-102933400D01*
X137270872Y-101784361D01*
X141260896Y-101784361D01*
X141382885Y-102006400D01*
X142925800Y-102006400D01*
X142925800Y-101986400D01*
X143179800Y-101986400D01*
X143179800Y-102006400D01*
X144722715Y-102006400D01*
X144844704Y-101784361D01*
X144827167Y-101701582D01*
X144716515Y-101441754D01*
X144557300Y-101208505D01*
X144355639Y-101010799D01*
X144119283Y-100856234D01*
X143857314Y-100750750D01*
X143579800Y-100698400D01*
X142525800Y-100698400D01*
X142248286Y-100750750D01*
X141986317Y-100856234D01*
X141749961Y-101010799D01*
X141548300Y-101208505D01*
X141389085Y-101441754D01*
X141278433Y-101701582D01*
X141260896Y-101784361D01*
X137270872Y-101784361D01*
X137270872Y-101333400D01*
X137258612Y-101208918D01*
X137222302Y-101089220D01*
X137163337Y-100978906D01*
X137083985Y-100882215D01*
X136987294Y-100802863D01*
X136876980Y-100743898D01*
X136757282Y-100707588D01*
X136632800Y-100695328D01*
X134232800Y-100695328D01*
X134108318Y-100707588D01*
X133988620Y-100743898D01*
X133878306Y-100802863D01*
X133781615Y-100882215D01*
X133702263Y-100978906D01*
X133643298Y-101089220D01*
X133606988Y-101208918D01*
X133594728Y-101333400D01*
X133594728Y-102933400D01*
X133606988Y-103057882D01*
X133643298Y-103177580D01*
X133702263Y-103287894D01*
X133781615Y-103384585D01*
X133878306Y-103463937D01*
X133988620Y-103522902D01*
X134108318Y-103559212D01*
X134126282Y-103560981D01*
X134026814Y-103642612D01*
X131595400Y-101211199D01*
X131595400Y-100440872D01*
X132035400Y-100440872D01*
X132159882Y-100428612D01*
X132279580Y-100392302D01*
X132389894Y-100333337D01*
X132486585Y-100253985D01*
X132565937Y-100157294D01*
X132624902Y-100046980D01*
X132661212Y-99927282D01*
X132673472Y-99802800D01*
X132673472Y-97402800D01*
X132661212Y-97278318D01*
X132624902Y-97158620D01*
X132565937Y-97048306D01*
X132486585Y-96951615D01*
X132389894Y-96872263D01*
X132279580Y-96813298D01*
X132159882Y-96776988D01*
X132035400Y-96764728D01*
X129635400Y-96764728D01*
X129510918Y-96776988D01*
X129391220Y-96813298D01*
X129280906Y-96872263D01*
X129184215Y-96951615D01*
X129104863Y-97048306D01*
X129045898Y-97158620D01*
X129009588Y-97278318D01*
X128997328Y-97402800D01*
X128997328Y-97893600D01*
X126770243Y-97893600D01*
X126666837Y-97738841D01*
X126466959Y-97538963D01*
X126231927Y-97381920D01*
X125970774Y-97273747D01*
X125693535Y-97218600D01*
X125410865Y-97218600D01*
X125133626Y-97273747D01*
X124872473Y-97381920D01*
X124637441Y-97538963D01*
X124437563Y-97738841D01*
X124280520Y-97973873D01*
X124172347Y-98235026D01*
X124117200Y-98512265D01*
X124117200Y-98794935D01*
X124172347Y-99072174D01*
X124280520Y-99333327D01*
X124437563Y-99568359D01*
X124637441Y-99768237D01*
X124872473Y-99925280D01*
X125133626Y-100033453D01*
X125410865Y-100088600D01*
X125693535Y-100088600D01*
X125970774Y-100033453D01*
X126231927Y-99925280D01*
X126466959Y-99768237D01*
X126666837Y-99568359D01*
X126770243Y-99413600D01*
X128997328Y-99413600D01*
X128997328Y-99802800D01*
X129009588Y-99927282D01*
X129045898Y-100046980D01*
X129104863Y-100157294D01*
X129184215Y-100253985D01*
X129280906Y-100333337D01*
X129391220Y-100392302D01*
X129510918Y-100428612D01*
X129635400Y-100440872D01*
X130075401Y-100440872D01*
X130075400Y-101488677D01*
X130071724Y-101526000D01*
X130075400Y-101563322D01*
X130075400Y-101563332D01*
X130086397Y-101674985D01*
X130119951Y-101785598D01*
X130129854Y-101818246D01*
X130200426Y-101950276D01*
X130216780Y-101970203D01*
X130295399Y-102066001D01*
X130324403Y-102089804D01*
X133419001Y-105184403D01*
X133442799Y-105213401D01*
X133558524Y-105308374D01*
X133690553Y-105378946D01*
X133800643Y-105412341D01*
X133833868Y-105474501D01*
X134013192Y-105693008D01*
X134231699Y-105872332D01*
X134364658Y-105943400D01*
X134231699Y-106014468D01*
X134013192Y-106193792D01*
X133833868Y-106412299D01*
X133700618Y-106661592D01*
X133618564Y-106932091D01*
X133590857Y-107213400D01*
X133618564Y-107494709D01*
X133632092Y-107539306D01*
X131595400Y-109575999D01*
X131595400Y-108114325D01*
X131599076Y-108077000D01*
X131595400Y-108039675D01*
X131595400Y-108039667D01*
X131584403Y-107928014D01*
X131540946Y-107784753D01*
X131470374Y-107652724D01*
X131375401Y-107536999D01*
X131346403Y-107513201D01*
X120049200Y-96215999D01*
X120049200Y-94501868D01*
X120134715Y-94466447D01*
X120427071Y-94271100D01*
X120675700Y-94022471D01*
X120871047Y-93730115D01*
X120872751Y-93726000D01*
X178365215Y-93726000D01*
X178393887Y-94017111D01*
X178478801Y-94297034D01*
X178616694Y-94555014D01*
X178802266Y-94781134D01*
X179028386Y-94966706D01*
X179225436Y-95072031D01*
X179056266Y-95210866D01*
X178870694Y-95436986D01*
X178732801Y-95694966D01*
X178647887Y-95974889D01*
X178619215Y-96266000D01*
X178647887Y-96557111D01*
X178732801Y-96837034D01*
X178870694Y-97095014D01*
X179056266Y-97321134D01*
X179225436Y-97459969D01*
X179028386Y-97565294D01*
X178802266Y-97750866D01*
X178616694Y-97976986D01*
X178478801Y-98234966D01*
X178393887Y-98514889D01*
X178365215Y-98806000D01*
X178393887Y-99097111D01*
X178478801Y-99377034D01*
X178616694Y-99635014D01*
X178802266Y-99861134D01*
X179028386Y-100046706D01*
X179286366Y-100184599D01*
X179566289Y-100269513D01*
X179784450Y-100291000D01*
X179930350Y-100291000D01*
X180148511Y-100269513D01*
X180428434Y-100184599D01*
X180686414Y-100046706D01*
X180912534Y-99861134D01*
X181098106Y-99635014D01*
X181127400Y-99580209D01*
X181156694Y-99635014D01*
X181342266Y-99861134D01*
X181568386Y-100046706D01*
X181826366Y-100184599D01*
X182106289Y-100269513D01*
X182324450Y-100291000D01*
X182470350Y-100291000D01*
X182688511Y-100269513D01*
X182968434Y-100184599D01*
X183226414Y-100046706D01*
X183452534Y-99861134D01*
X183638106Y-99635014D01*
X183775999Y-99377034D01*
X183860913Y-99097111D01*
X183889585Y-98806000D01*
X183860913Y-98514889D01*
X183775999Y-98234966D01*
X183638106Y-97976986D01*
X183452534Y-97750866D01*
X183283364Y-97612031D01*
X183480414Y-97506706D01*
X183706534Y-97321134D01*
X183892106Y-97095014D01*
X184029999Y-96837034D01*
X184114913Y-96557111D01*
X184143585Y-96266000D01*
X184114913Y-95974889D01*
X184029999Y-95694966D01*
X183892106Y-95436986D01*
X183706534Y-95210866D01*
X183480414Y-95025294D01*
X183283364Y-94919969D01*
X183452534Y-94781134D01*
X183638106Y-94555014D01*
X183775999Y-94297034D01*
X183860913Y-94017111D01*
X183889585Y-93726000D01*
X183860913Y-93434889D01*
X183775999Y-93154966D01*
X183638106Y-92896986D01*
X183452534Y-92670866D01*
X183411400Y-92637108D01*
X183411400Y-92463595D01*
X183480414Y-92426706D01*
X183706534Y-92241134D01*
X183892106Y-92015014D01*
X184029999Y-91757034D01*
X184114913Y-91477111D01*
X184143585Y-91186000D01*
X184114913Y-90894889D01*
X184029999Y-90614966D01*
X183892106Y-90356986D01*
X183706534Y-90130866D01*
X183480414Y-89945294D01*
X183222434Y-89807401D01*
X182942511Y-89722487D01*
X182724350Y-89701000D01*
X182578450Y-89701000D01*
X182360289Y-89722487D01*
X182080366Y-89807401D01*
X181822386Y-89945294D01*
X181596266Y-90130866D01*
X181571793Y-90160687D01*
X181550902Y-90091820D01*
X181491937Y-89981506D01*
X181412585Y-89884815D01*
X181315894Y-89805463D01*
X181205580Y-89746498D01*
X181085882Y-89710188D01*
X180961400Y-89697928D01*
X179261400Y-89697928D01*
X179136918Y-89710188D01*
X179017220Y-89746498D01*
X178906906Y-89805463D01*
X178810215Y-89884815D01*
X178730863Y-89981506D01*
X178671898Y-90091820D01*
X178635588Y-90211518D01*
X178623328Y-90336000D01*
X178623328Y-92036000D01*
X178635588Y-92160482D01*
X178671898Y-92280180D01*
X178730863Y-92390494D01*
X178810215Y-92487185D01*
X178906906Y-92566537D01*
X178920523Y-92573815D01*
X178802266Y-92670866D01*
X178616694Y-92896986D01*
X178478801Y-93154966D01*
X178393887Y-93434889D01*
X178365215Y-93726000D01*
X120872751Y-93726000D01*
X121005604Y-93405265D01*
X121074200Y-93060407D01*
X121074200Y-92708793D01*
X121005604Y-92363935D01*
X120871047Y-92039085D01*
X120675700Y-91746729D01*
X120427071Y-91498100D01*
X120134715Y-91302753D01*
X119809865Y-91168196D01*
X119465007Y-91099600D01*
X119113393Y-91099600D01*
X118768535Y-91168196D01*
X118443685Y-91302753D01*
X118224776Y-91449024D01*
X118371047Y-91230115D01*
X118505604Y-90905265D01*
X118574200Y-90560407D01*
X118574200Y-90208793D01*
X118505604Y-89863935D01*
X118371047Y-89539085D01*
X118175700Y-89246729D01*
X117927071Y-88998100D01*
X117634715Y-88802753D01*
X117309865Y-88668196D01*
X116965007Y-88599600D01*
X116613393Y-88599600D01*
X116268535Y-88668196D01*
X115943685Y-88802753D01*
X115651329Y-88998100D01*
X115402700Y-89246729D01*
X115207353Y-89539085D01*
X115072796Y-89863935D01*
X115004200Y-90208793D01*
X104088000Y-90208793D01*
X104088000Y-69036000D01*
X116676293Y-69036000D01*
X116546406Y-69165887D01*
M02*
