G04 #@! TF.GenerationSoftware,KiCad,Pcbnew,(5.1.0)-1*
G04 #@! TF.CreationDate,2019-04-26T12:12:41-04:00*
G04 #@! TF.ProjectId,Pluralsight_Floppy,506c7572-616c-4736-9967-68745f466c6f,rev?*
G04 #@! TF.SameCoordinates,Original*
G04 #@! TF.FileFunction,Legend,Top*
G04 #@! TF.FilePolarity,Positive*
%FSLAX46Y46*%
G04 Gerber Fmt 4.6, Leading zero omitted, Abs format (unit mm)*
G04 Created by KiCad (PCBNEW (5.1.0)-1) date 2019-04-26 12:12:41*
%MOMM*%
%LPD*%
G04 APERTURE LIST*
%ADD10C,0.150000*%
%ADD11C,0.100000*%
%ADD12C,0.010000*%
%ADD13C,0.120000*%
G04 APERTURE END LIST*
D10*
X106250742Y-79126771D02*
X105917409Y-79126771D01*
X105917409Y-79650580D02*
X105917409Y-78650580D01*
X106393600Y-78650580D01*
X106917409Y-79650580D02*
X106822171Y-79602961D01*
X106774552Y-79507723D01*
X106774552Y-78650580D01*
X107441219Y-79650580D02*
X107345980Y-79602961D01*
X107298361Y-79555342D01*
X107250742Y-79460104D01*
X107250742Y-79174390D01*
X107298361Y-79079152D01*
X107345980Y-79031533D01*
X107441219Y-78983914D01*
X107584076Y-78983914D01*
X107679314Y-79031533D01*
X107726933Y-79079152D01*
X107774552Y-79174390D01*
X107774552Y-79460104D01*
X107726933Y-79555342D01*
X107679314Y-79602961D01*
X107584076Y-79650580D01*
X107441219Y-79650580D01*
X108203123Y-78983914D02*
X108203123Y-79983914D01*
X108203123Y-79031533D02*
X108298361Y-78983914D01*
X108488838Y-78983914D01*
X108584076Y-79031533D01*
X108631695Y-79079152D01*
X108679314Y-79174390D01*
X108679314Y-79460104D01*
X108631695Y-79555342D01*
X108584076Y-79602961D01*
X108488838Y-79650580D01*
X108298361Y-79650580D01*
X108203123Y-79602961D01*
X109107885Y-78983914D02*
X109107885Y-79983914D01*
X109107885Y-79031533D02*
X109203123Y-78983914D01*
X109393600Y-78983914D01*
X109488838Y-79031533D01*
X109536457Y-79079152D01*
X109584076Y-79174390D01*
X109584076Y-79460104D01*
X109536457Y-79555342D01*
X109488838Y-79602961D01*
X109393600Y-79650580D01*
X109203123Y-79650580D01*
X109107885Y-79602961D01*
X109917409Y-78983914D02*
X110155504Y-79650580D01*
X110393600Y-78983914D02*
X110155504Y-79650580D01*
X110060266Y-79888676D01*
X110012647Y-79936295D01*
X109917409Y-79983914D01*
X112107885Y-79555342D02*
X112060266Y-79602961D01*
X111917409Y-79650580D01*
X111822171Y-79650580D01*
X111679314Y-79602961D01*
X111584076Y-79507723D01*
X111536457Y-79412485D01*
X111488838Y-79222009D01*
X111488838Y-79079152D01*
X111536457Y-78888676D01*
X111584076Y-78793438D01*
X111679314Y-78698200D01*
X111822171Y-78650580D01*
X111917409Y-78650580D01*
X112060266Y-78698200D01*
X112107885Y-78745819D01*
X112679314Y-79650580D02*
X112584076Y-79602961D01*
X112536457Y-79555342D01*
X112488838Y-79460104D01*
X112488838Y-79174390D01*
X112536457Y-79079152D01*
X112584076Y-79031533D01*
X112679314Y-78983914D01*
X112822171Y-78983914D01*
X112917409Y-79031533D01*
X112965028Y-79079152D01*
X113012647Y-79174390D01*
X113012647Y-79460104D01*
X112965028Y-79555342D01*
X112917409Y-79602961D01*
X112822171Y-79650580D01*
X112679314Y-79650580D01*
X113441219Y-78983914D02*
X113441219Y-79650580D01*
X113441219Y-79079152D02*
X113488838Y-79031533D01*
X113584076Y-78983914D01*
X113726933Y-78983914D01*
X113822171Y-79031533D01*
X113869790Y-79126771D01*
X113869790Y-79650580D01*
X114203123Y-78983914D02*
X114584076Y-78983914D01*
X114345980Y-78650580D02*
X114345980Y-79507723D01*
X114393600Y-79602961D01*
X114488838Y-79650580D01*
X114584076Y-79650580D01*
X114917409Y-79650580D02*
X114917409Y-78983914D01*
X114917409Y-79174390D02*
X114965028Y-79079152D01*
X115012647Y-79031533D01*
X115107885Y-78983914D01*
X115203123Y-78983914D01*
X115679314Y-79650580D02*
X115584076Y-79602961D01*
X115536457Y-79555342D01*
X115488838Y-79460104D01*
X115488838Y-79174390D01*
X115536457Y-79079152D01*
X115584076Y-79031533D01*
X115679314Y-78983914D01*
X115822171Y-78983914D01*
X115917409Y-79031533D01*
X115965028Y-79079152D01*
X116012647Y-79174390D01*
X116012647Y-79460104D01*
X115965028Y-79555342D01*
X115917409Y-79602961D01*
X115822171Y-79650580D01*
X115679314Y-79650580D01*
X116584076Y-79650580D02*
X116488838Y-79602961D01*
X116441219Y-79507723D01*
X116441219Y-78650580D01*
X117679314Y-79602961D02*
X117822171Y-79650580D01*
X118060266Y-79650580D01*
X118155504Y-79602961D01*
X118203123Y-79555342D01*
X118250742Y-79460104D01*
X118250742Y-79364866D01*
X118203123Y-79269628D01*
X118155504Y-79222009D01*
X118060266Y-79174390D01*
X117869790Y-79126771D01*
X117774552Y-79079152D01*
X117726933Y-79031533D01*
X117679314Y-78936295D01*
X117679314Y-78841057D01*
X117726933Y-78745819D01*
X117774552Y-78698200D01*
X117869790Y-78650580D01*
X118107885Y-78650580D01*
X118250742Y-78698200D01*
X118679314Y-79650580D02*
X118679314Y-78650580D01*
X119107885Y-79650580D02*
X119107885Y-79126771D01*
X119060266Y-79031533D01*
X118965028Y-78983914D01*
X118822171Y-78983914D01*
X118726933Y-79031533D01*
X118679314Y-79079152D01*
X119584076Y-79650580D02*
X119584076Y-78983914D01*
X119584076Y-78650580D02*
X119536457Y-78698200D01*
X119584076Y-78745819D01*
X119631695Y-78698200D01*
X119584076Y-78650580D01*
X119584076Y-78745819D01*
X120441219Y-79602961D02*
X120345980Y-79650580D01*
X120155504Y-79650580D01*
X120060266Y-79602961D01*
X120012647Y-79507723D01*
X120012647Y-79126771D01*
X120060266Y-79031533D01*
X120155504Y-78983914D01*
X120345980Y-78983914D01*
X120441219Y-79031533D01*
X120488838Y-79126771D01*
X120488838Y-79222009D01*
X120012647Y-79317247D01*
X121060266Y-79650580D02*
X120965028Y-79602961D01*
X120917409Y-79507723D01*
X120917409Y-78650580D01*
X121869790Y-79650580D02*
X121869790Y-78650580D01*
X121869790Y-79602961D02*
X121774552Y-79650580D01*
X121584076Y-79650580D01*
X121488838Y-79602961D01*
X121441219Y-79555342D01*
X121393600Y-79460104D01*
X121393600Y-79174390D01*
X121441219Y-79079152D01*
X121488838Y-79031533D01*
X121584076Y-78983914D01*
X121774552Y-78983914D01*
X121869790Y-79031533D01*
X112345980Y-81300580D02*
X112012647Y-80824390D01*
X111774552Y-81300580D02*
X111774552Y-80300580D01*
X112155504Y-80300580D01*
X112250742Y-80348200D01*
X112298361Y-80395819D01*
X112345980Y-80491057D01*
X112345980Y-80633914D01*
X112298361Y-80729152D01*
X112250742Y-80776771D01*
X112155504Y-80824390D01*
X111774552Y-80824390D01*
X113155504Y-81252961D02*
X113060266Y-81300580D01*
X112869790Y-81300580D01*
X112774552Y-81252961D01*
X112726933Y-81157723D01*
X112726933Y-80776771D01*
X112774552Y-80681533D01*
X112869790Y-80633914D01*
X113060266Y-80633914D01*
X113155504Y-80681533D01*
X113203123Y-80776771D01*
X113203123Y-80872009D01*
X112726933Y-80967247D01*
X113536457Y-80633914D02*
X113774552Y-81300580D01*
X114012647Y-80633914D01*
X114393600Y-81205342D02*
X114441219Y-81252961D01*
X114393600Y-81300580D01*
X114345980Y-81252961D01*
X114393600Y-81205342D01*
X114393600Y-81300580D01*
X115584076Y-81014866D02*
X116060266Y-81014866D01*
X115488838Y-81300580D02*
X115822171Y-80300580D01*
X116155504Y-81300580D01*
X108441219Y-81950580D02*
X108441219Y-82664866D01*
X108393600Y-82807723D01*
X108298361Y-82902961D01*
X108155504Y-82950580D01*
X108060266Y-82950580D01*
X109060266Y-82950580D02*
X108965028Y-82902961D01*
X108917409Y-82855342D01*
X108869790Y-82760104D01*
X108869790Y-82474390D01*
X108917409Y-82379152D01*
X108965028Y-82331533D01*
X109060266Y-82283914D01*
X109203123Y-82283914D01*
X109298361Y-82331533D01*
X109345980Y-82379152D01*
X109393600Y-82474390D01*
X109393600Y-82760104D01*
X109345980Y-82855342D01*
X109298361Y-82902961D01*
X109203123Y-82950580D01*
X109060266Y-82950580D01*
X109822171Y-82283914D02*
X109822171Y-82950580D01*
X109822171Y-82379152D02*
X109869790Y-82331533D01*
X109965028Y-82283914D01*
X110107885Y-82283914D01*
X110203123Y-82331533D01*
X110250742Y-82426771D01*
X110250742Y-82950580D01*
X111155504Y-82950580D02*
X111155504Y-82426771D01*
X111107885Y-82331533D01*
X111012647Y-82283914D01*
X110822171Y-82283914D01*
X110726933Y-82331533D01*
X111155504Y-82902961D02*
X111060266Y-82950580D01*
X110822171Y-82950580D01*
X110726933Y-82902961D01*
X110679314Y-82807723D01*
X110679314Y-82712485D01*
X110726933Y-82617247D01*
X110822171Y-82569628D01*
X111060266Y-82569628D01*
X111155504Y-82522009D01*
X111488838Y-82283914D02*
X111869790Y-82283914D01*
X111631695Y-81950580D02*
X111631695Y-82807723D01*
X111679314Y-82902961D01*
X111774552Y-82950580D01*
X111869790Y-82950580D01*
X112203123Y-82950580D02*
X112203123Y-81950580D01*
X112631695Y-82950580D02*
X112631695Y-82426771D01*
X112584076Y-82331533D01*
X112488838Y-82283914D01*
X112345980Y-82283914D01*
X112250742Y-82331533D01*
X112203123Y-82379152D01*
X113536457Y-82950580D02*
X113536457Y-82426771D01*
X113488838Y-82331533D01*
X113393600Y-82283914D01*
X113203123Y-82283914D01*
X113107885Y-82331533D01*
X113536457Y-82902961D02*
X113441219Y-82950580D01*
X113203123Y-82950580D01*
X113107885Y-82902961D01*
X113060266Y-82807723D01*
X113060266Y-82712485D01*
X113107885Y-82617247D01*
X113203123Y-82569628D01*
X113441219Y-82569628D01*
X113536457Y-82522009D01*
X114012647Y-82283914D02*
X114012647Y-82950580D01*
X114012647Y-82379152D02*
X114060266Y-82331533D01*
X114155504Y-82283914D01*
X114298361Y-82283914D01*
X114393600Y-82331533D01*
X114441219Y-82426771D01*
X114441219Y-82950580D01*
X115679314Y-82950580D02*
X115679314Y-81950580D01*
X116250742Y-82950580D02*
X115822171Y-82379152D01*
X116250742Y-81950580D02*
X115679314Y-82522009D01*
X117107885Y-82950580D02*
X117107885Y-82426771D01*
X117060266Y-82331533D01*
X116965028Y-82283914D01*
X116774552Y-82283914D01*
X116679314Y-82331533D01*
X117107885Y-82902961D02*
X117012647Y-82950580D01*
X116774552Y-82950580D01*
X116679314Y-82902961D01*
X116631695Y-82807723D01*
X116631695Y-82712485D01*
X116679314Y-82617247D01*
X116774552Y-82569628D01*
X117012647Y-82569628D01*
X117107885Y-82522009D01*
X117488838Y-82283914D02*
X117726933Y-82950580D01*
X117965028Y-82283914D02*
X117726933Y-82950580D01*
X117631695Y-83188676D01*
X117584076Y-83236295D01*
X117488838Y-83283914D01*
X118345980Y-82283914D02*
X118345980Y-82950580D01*
X118345980Y-82379152D02*
X118393600Y-82331533D01*
X118488838Y-82283914D01*
X118631695Y-82283914D01*
X118726933Y-82331533D01*
X118774552Y-82426771D01*
X118774552Y-82950580D01*
X119631695Y-82902961D02*
X119536457Y-82950580D01*
X119345980Y-82950580D01*
X119250742Y-82902961D01*
X119203123Y-82807723D01*
X119203123Y-82426771D01*
X119250742Y-82331533D01*
X119345980Y-82283914D01*
X119536457Y-82283914D01*
X119631695Y-82331533D01*
X119679314Y-82426771D01*
X119679314Y-82522009D01*
X119203123Y-82617247D01*
X115682780Y-114239419D02*
X115682780Y-114715609D01*
X116158971Y-114763228D01*
X116111352Y-114715609D01*
X116063733Y-114620371D01*
X116063733Y-114382276D01*
X116111352Y-114287038D01*
X116158971Y-114239419D01*
X116254209Y-114191800D01*
X116492304Y-114191800D01*
X116587542Y-114239419D01*
X116635161Y-114287038D01*
X116682780Y-114382276D01*
X116682780Y-114620371D01*
X116635161Y-114715609D01*
X116587542Y-114763228D01*
X116016114Y-113858466D02*
X116682780Y-113620371D01*
X116016114Y-113382276D01*
X115730400Y-111715609D02*
X115682780Y-111810847D01*
X115682780Y-111953704D01*
X115730400Y-112096561D01*
X115825638Y-112191800D01*
X115920876Y-112239419D01*
X116111352Y-112287038D01*
X116254209Y-112287038D01*
X116444685Y-112239419D01*
X116539923Y-112191800D01*
X116635161Y-112096561D01*
X116682780Y-111953704D01*
X116682780Y-111858466D01*
X116635161Y-111715609D01*
X116587542Y-111667990D01*
X116254209Y-111667990D01*
X116254209Y-111858466D01*
X116682780Y-111239419D02*
X115682780Y-111239419D01*
X116682780Y-110667990D01*
X115682780Y-110667990D01*
X116682780Y-110191800D02*
X115682780Y-110191800D01*
X115682780Y-109953704D01*
X115730400Y-109810847D01*
X115825638Y-109715609D01*
X115920876Y-109667990D01*
X116111352Y-109620371D01*
X116254209Y-109620371D01*
X116444685Y-109667990D01*
X116539923Y-109715609D01*
X116635161Y-109810847D01*
X116682780Y-109953704D01*
X116682780Y-110191800D01*
D11*
X160557790Y-103703142D02*
X160057790Y-103703142D01*
X160057790Y-103512666D01*
X160081600Y-103465047D01*
X160105409Y-103441238D01*
X160153028Y-103417428D01*
X160224457Y-103417428D01*
X160272076Y-103441238D01*
X160295885Y-103465047D01*
X160319695Y-103512666D01*
X160319695Y-103703142D01*
X160557790Y-103203142D02*
X160224457Y-103203142D01*
X160319695Y-103203142D02*
X160272076Y-103179333D01*
X160248266Y-103155523D01*
X160224457Y-103107904D01*
X160224457Y-103060285D01*
X160557790Y-102822190D02*
X160533980Y-102869809D01*
X160510171Y-102893619D01*
X160462552Y-102917428D01*
X160319695Y-102917428D01*
X160272076Y-102893619D01*
X160248266Y-102869809D01*
X160224457Y-102822190D01*
X160224457Y-102750761D01*
X160248266Y-102703142D01*
X160272076Y-102679333D01*
X160319695Y-102655523D01*
X160462552Y-102655523D01*
X160510171Y-102679333D01*
X160533980Y-102703142D01*
X160557790Y-102750761D01*
X160557790Y-102822190D01*
X160224457Y-102226952D02*
X160629219Y-102226952D01*
X160676838Y-102250761D01*
X160700647Y-102274571D01*
X160724457Y-102322190D01*
X160724457Y-102393619D01*
X160700647Y-102441238D01*
X160533980Y-102226952D02*
X160557790Y-102274571D01*
X160557790Y-102369809D01*
X160533980Y-102417428D01*
X160510171Y-102441238D01*
X160462552Y-102465047D01*
X160319695Y-102465047D01*
X160272076Y-102441238D01*
X160248266Y-102417428D01*
X160224457Y-102369809D01*
X160224457Y-102274571D01*
X160248266Y-102226952D01*
X160557790Y-101988857D02*
X160224457Y-101988857D01*
X160319695Y-101988857D02*
X160272076Y-101965047D01*
X160248266Y-101941238D01*
X160224457Y-101893619D01*
X160224457Y-101846000D01*
X160557790Y-101465047D02*
X160295885Y-101465047D01*
X160248266Y-101488857D01*
X160224457Y-101536476D01*
X160224457Y-101631714D01*
X160248266Y-101679333D01*
X160533980Y-101465047D02*
X160557790Y-101512666D01*
X160557790Y-101631714D01*
X160533980Y-101679333D01*
X160486361Y-101703142D01*
X160438742Y-101703142D01*
X160391123Y-101679333D01*
X160367314Y-101631714D01*
X160367314Y-101512666D01*
X160343504Y-101465047D01*
X160557790Y-101226952D02*
X160224457Y-101226952D01*
X160272076Y-101226952D02*
X160248266Y-101203142D01*
X160224457Y-101155523D01*
X160224457Y-101084095D01*
X160248266Y-101036476D01*
X160295885Y-101012666D01*
X160557790Y-101012666D01*
X160295885Y-101012666D02*
X160248266Y-100988857D01*
X160224457Y-100941238D01*
X160224457Y-100869809D01*
X160248266Y-100822190D01*
X160295885Y-100798380D01*
X160557790Y-100798380D01*
X160557790Y-100560285D02*
X160224457Y-100560285D01*
X160272076Y-100560285D02*
X160248266Y-100536476D01*
X160224457Y-100488857D01*
X160224457Y-100417428D01*
X160248266Y-100369809D01*
X160295885Y-100346000D01*
X160557790Y-100346000D01*
X160295885Y-100346000D02*
X160248266Y-100322190D01*
X160224457Y-100274571D01*
X160224457Y-100203142D01*
X160248266Y-100155523D01*
X160295885Y-100131714D01*
X160557790Y-100131714D01*
X160557790Y-99893619D02*
X160224457Y-99893619D01*
X160057790Y-99893619D02*
X160081600Y-99917428D01*
X160105409Y-99893619D01*
X160081600Y-99869809D01*
X160057790Y-99893619D01*
X160105409Y-99893619D01*
X160224457Y-99655523D02*
X160557790Y-99655523D01*
X160272076Y-99655523D02*
X160248266Y-99631714D01*
X160224457Y-99584095D01*
X160224457Y-99512666D01*
X160248266Y-99465047D01*
X160295885Y-99441238D01*
X160557790Y-99441238D01*
X160224457Y-98988857D02*
X160629219Y-98988857D01*
X160676838Y-99012666D01*
X160700647Y-99036476D01*
X160724457Y-99084095D01*
X160724457Y-99155523D01*
X160700647Y-99203142D01*
X160533980Y-98988857D02*
X160557790Y-99036476D01*
X160557790Y-99131714D01*
X160533980Y-99179333D01*
X160510171Y-99203142D01*
X160462552Y-99226952D01*
X160319695Y-99226952D01*
X160272076Y-99203142D01*
X160248266Y-99179333D01*
X160224457Y-99131714D01*
X160224457Y-99036476D01*
X160248266Y-98988857D01*
X160907790Y-102429333D02*
X161264933Y-102429333D01*
X161336361Y-102453142D01*
X161383980Y-102500761D01*
X161407790Y-102572190D01*
X161407790Y-102619809D01*
X161074457Y-101976952D02*
X161407790Y-101976952D01*
X161074457Y-102191238D02*
X161336361Y-102191238D01*
X161383980Y-102167428D01*
X161407790Y-102119809D01*
X161407790Y-102048380D01*
X161383980Y-102000761D01*
X161360171Y-101976952D01*
X161407790Y-101738857D02*
X161074457Y-101738857D01*
X161122076Y-101738857D02*
X161098266Y-101715047D01*
X161074457Y-101667428D01*
X161074457Y-101596000D01*
X161098266Y-101548380D01*
X161145885Y-101524571D01*
X161407790Y-101524571D01*
X161145885Y-101524571D02*
X161098266Y-101500761D01*
X161074457Y-101453142D01*
X161074457Y-101381714D01*
X161098266Y-101334095D01*
X161145885Y-101310285D01*
X161407790Y-101310285D01*
X161074457Y-101072190D02*
X161574457Y-101072190D01*
X161098266Y-101072190D02*
X161074457Y-101024571D01*
X161074457Y-100929333D01*
X161098266Y-100881714D01*
X161122076Y-100857904D01*
X161169695Y-100834095D01*
X161312552Y-100834095D01*
X161360171Y-100857904D01*
X161383980Y-100881714D01*
X161407790Y-100929333D01*
X161407790Y-101024571D01*
X161383980Y-101072190D01*
X161383980Y-100429333D02*
X161407790Y-100476952D01*
X161407790Y-100572190D01*
X161383980Y-100619809D01*
X161336361Y-100643619D01*
X161145885Y-100643619D01*
X161098266Y-100619809D01*
X161074457Y-100572190D01*
X161074457Y-100476952D01*
X161098266Y-100429333D01*
X161145885Y-100405523D01*
X161193504Y-100405523D01*
X161241123Y-100643619D01*
X161407790Y-100191238D02*
X161074457Y-100191238D01*
X161169695Y-100191238D02*
X161122076Y-100167428D01*
X161098266Y-100143619D01*
X161074457Y-100096000D01*
X161074457Y-100048380D01*
X179864723Y-77062780D02*
X179936152Y-77086590D01*
X180055200Y-77086590D01*
X180102819Y-77062780D01*
X180126628Y-77038971D01*
X180150438Y-76991352D01*
X180150438Y-76943733D01*
X180126628Y-76896114D01*
X180102819Y-76872304D01*
X180055200Y-76848495D01*
X179959961Y-76824685D01*
X179912342Y-76800876D01*
X179888533Y-76777066D01*
X179864723Y-76729447D01*
X179864723Y-76681828D01*
X179888533Y-76634209D01*
X179912342Y-76610400D01*
X179959961Y-76586590D01*
X180079009Y-76586590D01*
X180150438Y-76610400D01*
X180364723Y-77086590D02*
X180364723Y-76753257D01*
X180364723Y-76586590D02*
X180340914Y-76610400D01*
X180364723Y-76634209D01*
X180388533Y-76610400D01*
X180364723Y-76586590D01*
X180364723Y-76634209D01*
X180817104Y-76753257D02*
X180817104Y-77158019D01*
X180793295Y-77205638D01*
X180769485Y-77229447D01*
X180721866Y-77253257D01*
X180650438Y-77253257D01*
X180602819Y-77229447D01*
X180817104Y-77062780D02*
X180769485Y-77086590D01*
X180674247Y-77086590D01*
X180626628Y-77062780D01*
X180602819Y-77038971D01*
X180579009Y-76991352D01*
X180579009Y-76848495D01*
X180602819Y-76800876D01*
X180626628Y-76777066D01*
X180674247Y-76753257D01*
X180769485Y-76753257D01*
X180817104Y-76777066D01*
X181698057Y-76610400D02*
X181650438Y-76586590D01*
X181579009Y-76586590D01*
X181507580Y-76610400D01*
X181459961Y-76658019D01*
X181436152Y-76705638D01*
X181412342Y-76800876D01*
X181412342Y-76872304D01*
X181436152Y-76967542D01*
X181459961Y-77015161D01*
X181507580Y-77062780D01*
X181579009Y-77086590D01*
X181626628Y-77086590D01*
X181698057Y-77062780D01*
X181721866Y-77038971D01*
X181721866Y-76872304D01*
X181626628Y-76872304D01*
X181936152Y-77086590D02*
X181936152Y-76586590D01*
X182221866Y-77086590D01*
X182221866Y-76586590D01*
X182459961Y-77086590D02*
X182459961Y-76586590D01*
X182579009Y-76586590D01*
X182650438Y-76610400D01*
X182698057Y-76658019D01*
X182721866Y-76705638D01*
X182745676Y-76800876D01*
X182745676Y-76872304D01*
X182721866Y-76967542D01*
X182698057Y-77015161D01*
X182650438Y-77062780D01*
X182579009Y-77086590D01*
X182459961Y-77086590D01*
D10*
X174666304Y-78427066D02*
X175142495Y-78427066D01*
X174571066Y-78712780D02*
X174904400Y-77712780D01*
X175237733Y-78712780D01*
X174975828Y-81488971D02*
X175118685Y-81536590D01*
X175166304Y-81584209D01*
X175213923Y-81679447D01*
X175213923Y-81822304D01*
X175166304Y-81917542D01*
X175118685Y-81965161D01*
X175023447Y-82012780D01*
X174642495Y-82012780D01*
X174642495Y-81012780D01*
X174975828Y-81012780D01*
X175071066Y-81060400D01*
X175118685Y-81108019D01*
X175166304Y-81203257D01*
X175166304Y-81298495D01*
X175118685Y-81393733D01*
X175071066Y-81441352D01*
X174975828Y-81488971D01*
X174642495Y-81488971D01*
X175213923Y-85217542D02*
X175166304Y-85265161D01*
X175023447Y-85312780D01*
X174928209Y-85312780D01*
X174785352Y-85265161D01*
X174690114Y-85169923D01*
X174642495Y-85074685D01*
X174594876Y-84884209D01*
X174594876Y-84741352D01*
X174642495Y-84550876D01*
X174690114Y-84455638D01*
X174785352Y-84360400D01*
X174928209Y-84312780D01*
X175023447Y-84312780D01*
X175166304Y-84360400D01*
X175213923Y-84408019D01*
X174642495Y-88612780D02*
X174642495Y-87612780D01*
X174880590Y-87612780D01*
X175023447Y-87660400D01*
X175118685Y-87755638D01*
X175166304Y-87850876D01*
X175213923Y-88041352D01*
X175213923Y-88184209D01*
X175166304Y-88374685D01*
X175118685Y-88469923D01*
X175023447Y-88565161D01*
X174880590Y-88612780D01*
X174642495Y-88612780D01*
D11*
X131077638Y-91748800D02*
X131030019Y-91724990D01*
X130958590Y-91724990D01*
X130887161Y-91748800D01*
X130839542Y-91796419D01*
X130815733Y-91844038D01*
X130791923Y-91939276D01*
X130791923Y-92010704D01*
X130815733Y-92105942D01*
X130839542Y-92153561D01*
X130887161Y-92201180D01*
X130958590Y-92224990D01*
X131006209Y-92224990D01*
X131077638Y-92201180D01*
X131101447Y-92177371D01*
X131101447Y-92010704D01*
X131006209Y-92010704D01*
X131315733Y-92224990D02*
X131315733Y-91724990D01*
X131601447Y-92224990D01*
X131601447Y-91724990D01*
X131839542Y-92224990D02*
X131839542Y-91724990D01*
X131958590Y-91724990D01*
X132030019Y-91748800D01*
X132077638Y-91796419D01*
X132101447Y-91844038D01*
X132125257Y-91939276D01*
X132125257Y-92010704D01*
X132101447Y-92105942D01*
X132077638Y-92153561D01*
X132030019Y-92201180D01*
X131958590Y-92224990D01*
X131839542Y-92224990D01*
X132696685Y-92201180D02*
X132768114Y-92224990D01*
X132887161Y-92224990D01*
X132934780Y-92201180D01*
X132958590Y-92177371D01*
X132982400Y-92129752D01*
X132982400Y-92082133D01*
X132958590Y-92034514D01*
X132934780Y-92010704D01*
X132887161Y-91986895D01*
X132791923Y-91963085D01*
X132744304Y-91939276D01*
X132720495Y-91915466D01*
X132696685Y-91867847D01*
X132696685Y-91820228D01*
X132720495Y-91772609D01*
X132744304Y-91748800D01*
X132791923Y-91724990D01*
X132910971Y-91724990D01*
X132982400Y-91748800D01*
X133196685Y-92224990D02*
X133196685Y-91891657D01*
X133196685Y-91724990D02*
X133172876Y-91748800D01*
X133196685Y-91772609D01*
X133220495Y-91748800D01*
X133196685Y-91724990D01*
X133196685Y-91772609D01*
X133649066Y-91891657D02*
X133649066Y-92296419D01*
X133625257Y-92344038D01*
X133601447Y-92367847D01*
X133553828Y-92391657D01*
X133482400Y-92391657D01*
X133434780Y-92367847D01*
X133649066Y-92201180D02*
X133601447Y-92224990D01*
X133506209Y-92224990D01*
X133458590Y-92201180D01*
X133434780Y-92177371D01*
X133410971Y-92129752D01*
X133410971Y-91986895D01*
X133434780Y-91939276D01*
X133458590Y-91915466D01*
X133506209Y-91891657D01*
X133601447Y-91891657D01*
X133649066Y-91915466D01*
X125210238Y-91774200D02*
X125162619Y-91750390D01*
X125091190Y-91750390D01*
X125019761Y-91774200D01*
X124972142Y-91821819D01*
X124948333Y-91869438D01*
X124924523Y-91964676D01*
X124924523Y-92036104D01*
X124948333Y-92131342D01*
X124972142Y-92178961D01*
X125019761Y-92226580D01*
X125091190Y-92250390D01*
X125138809Y-92250390D01*
X125210238Y-92226580D01*
X125234047Y-92202771D01*
X125234047Y-92036104D01*
X125138809Y-92036104D01*
X125448333Y-92250390D02*
X125448333Y-91750390D01*
X125734047Y-92250390D01*
X125734047Y-91750390D01*
X125972142Y-92250390D02*
X125972142Y-91750390D01*
X126091190Y-91750390D01*
X126162619Y-91774200D01*
X126210238Y-91821819D01*
X126234047Y-91869438D01*
X126257857Y-91964676D01*
X126257857Y-92036104D01*
X126234047Y-92131342D01*
X126210238Y-92178961D01*
X126162619Y-92226580D01*
X126091190Y-92250390D01*
X125972142Y-92250390D01*
X126829285Y-92226580D02*
X126900714Y-92250390D01*
X127019761Y-92250390D01*
X127067380Y-92226580D01*
X127091190Y-92202771D01*
X127115000Y-92155152D01*
X127115000Y-92107533D01*
X127091190Y-92059914D01*
X127067380Y-92036104D01*
X127019761Y-92012295D01*
X126924523Y-91988485D01*
X126876904Y-91964676D01*
X126853095Y-91940866D01*
X126829285Y-91893247D01*
X126829285Y-91845628D01*
X126853095Y-91798009D01*
X126876904Y-91774200D01*
X126924523Y-91750390D01*
X127043571Y-91750390D01*
X127115000Y-91774200D01*
X127329285Y-92250390D02*
X127329285Y-91917057D01*
X127329285Y-91750390D02*
X127305476Y-91774200D01*
X127329285Y-91798009D01*
X127353095Y-91774200D01*
X127329285Y-91750390D01*
X127329285Y-91798009D01*
X127781666Y-91917057D02*
X127781666Y-92321819D01*
X127757857Y-92369438D01*
X127734047Y-92393247D01*
X127686428Y-92417057D01*
X127615000Y-92417057D01*
X127567380Y-92393247D01*
X127781666Y-92226580D02*
X127734047Y-92250390D01*
X127638809Y-92250390D01*
X127591190Y-92226580D01*
X127567380Y-92202771D01*
X127543571Y-92155152D01*
X127543571Y-92012295D01*
X127567380Y-91964676D01*
X127591190Y-91940866D01*
X127638809Y-91917057D01*
X127734047Y-91917057D01*
X127781666Y-91940866D01*
D10*
X122293095Y-81506780D02*
X122293095Y-80506780D01*
X122531190Y-80506780D01*
X122674047Y-80554400D01*
X122769285Y-80649638D01*
X122816904Y-80744876D01*
X122864523Y-80935352D01*
X122864523Y-81078209D01*
X122816904Y-81268685D01*
X122769285Y-81363923D01*
X122674047Y-81459161D01*
X122531190Y-81506780D01*
X122293095Y-81506780D01*
X122864523Y-84711542D02*
X122816904Y-84759161D01*
X122674047Y-84806780D01*
X122578809Y-84806780D01*
X122435952Y-84759161D01*
X122340714Y-84663923D01*
X122293095Y-84568685D01*
X122245476Y-84378209D01*
X122245476Y-84235352D01*
X122293095Y-84044876D01*
X122340714Y-83949638D01*
X122435952Y-83854400D01*
X122578809Y-83806780D01*
X122674047Y-83806780D01*
X122816904Y-83854400D01*
X122864523Y-83902019D01*
X122626428Y-87582971D02*
X122769285Y-87630590D01*
X122816904Y-87678209D01*
X122864523Y-87773447D01*
X122864523Y-87916304D01*
X122816904Y-88011542D01*
X122769285Y-88059161D01*
X122674047Y-88106780D01*
X122293095Y-88106780D01*
X122293095Y-87106780D01*
X122626428Y-87106780D01*
X122721666Y-87154400D01*
X122769285Y-87202019D01*
X122816904Y-87297257D01*
X122816904Y-87392495D01*
X122769285Y-87487733D01*
X122721666Y-87535352D01*
X122626428Y-87582971D01*
X122293095Y-87582971D01*
X122316904Y-91121066D02*
X122793095Y-91121066D01*
X122221666Y-91406780D02*
X122555000Y-90406780D01*
X122888333Y-91406780D01*
X131770380Y-116300285D02*
X131770380Y-116871714D01*
X131770380Y-116586000D02*
X130770380Y-116586000D01*
X130913238Y-116681238D01*
X131008476Y-116776476D01*
X131056095Y-116871714D01*
X202438000Y-121666000D02*
X103378000Y-121666000D01*
X202438000Y-120396000D02*
X202438000Y-121666000D01*
X204978000Y-117856000D02*
X202438000Y-120396000D01*
X204978000Y-83566000D02*
X204978000Y-117856000D01*
X202438000Y-81026000D02*
X204978000Y-83566000D01*
X202438000Y-70866000D02*
X202438000Y-81026000D01*
X199898000Y-68326000D02*
X202438000Y-70866000D01*
X103378000Y-68326000D02*
X199898000Y-68326000D01*
X103378000Y-121666000D02*
X103378000Y-68326000D01*
D12*
G36*
X170613438Y-98739367D02*
G01*
X170661039Y-98716199D01*
X170728542Y-98685719D01*
X170806266Y-98652184D01*
X170884530Y-98619852D01*
X170953653Y-98592980D01*
X170959992Y-98590647D01*
X170978230Y-98587940D01*
X170989290Y-98601262D01*
X170994924Y-98638196D01*
X170996883Y-98706324D01*
X170997034Y-98750966D01*
X170996190Y-98836262D01*
X170992490Y-98886821D01*
X170984182Y-98910227D01*
X170969515Y-98914063D01*
X170959992Y-98911286D01*
X170892391Y-98885235D01*
X170814633Y-98853276D01*
X170736397Y-98819668D01*
X170667364Y-98788667D01*
X170617217Y-98764530D01*
X170595634Y-98751515D01*
X170595419Y-98750966D01*
X170613438Y-98739367D01*
X170613438Y-98739367D01*
G37*
X170613438Y-98739367D02*
X170661039Y-98716199D01*
X170728542Y-98685719D01*
X170806266Y-98652184D01*
X170884530Y-98619852D01*
X170953653Y-98592980D01*
X170959992Y-98590647D01*
X170978230Y-98587940D01*
X170989290Y-98601262D01*
X170994924Y-98638196D01*
X170996883Y-98706324D01*
X170997034Y-98750966D01*
X170996190Y-98836262D01*
X170992490Y-98886821D01*
X170984182Y-98910227D01*
X170969515Y-98914063D01*
X170959992Y-98911286D01*
X170892391Y-98885235D01*
X170814633Y-98853276D01*
X170736397Y-98819668D01*
X170667364Y-98788667D01*
X170617217Y-98764530D01*
X170595634Y-98751515D01*
X170595419Y-98750966D01*
X170613438Y-98739367D01*
G36*
X170532229Y-100167851D02*
G01*
X170536202Y-100104421D01*
X170545371Y-100062950D01*
X170561816Y-100033256D01*
X170583321Y-100009421D01*
X170652959Y-99965873D01*
X170730175Y-99961865D01*
X170807350Y-99997424D01*
X170821228Y-100008526D01*
X170848956Y-100034928D01*
X170866841Y-100063184D01*
X170877523Y-100103347D01*
X170883645Y-100165471D01*
X170887846Y-100259610D01*
X170887952Y-100262526D01*
X170895287Y-100465466D01*
X170531367Y-100465466D01*
X170531367Y-100263421D01*
X170532229Y-100167851D01*
X170532229Y-100167851D01*
G37*
X170532229Y-100167851D02*
X170536202Y-100104421D01*
X170545371Y-100062950D01*
X170561816Y-100033256D01*
X170583321Y-100009421D01*
X170652959Y-99965873D01*
X170730175Y-99961865D01*
X170807350Y-99997424D01*
X170821228Y-100008526D01*
X170848956Y-100034928D01*
X170866841Y-100063184D01*
X170877523Y-100103347D01*
X170883645Y-100165471D01*
X170887846Y-100259610D01*
X170887952Y-100262526D01*
X170895287Y-100465466D01*
X170531367Y-100465466D01*
X170531367Y-100263421D01*
X170532229Y-100167851D01*
G36*
X170532435Y-104271958D02*
G01*
X170537778Y-104215659D01*
X170550603Y-104177537D01*
X170574119Y-104145520D01*
X170593239Y-104125672D01*
X170667755Y-104075274D01*
X170747288Y-104065522D01*
X170807706Y-104085594D01*
X170863428Y-104139125D01*
X170898188Y-104228995D01*
X170912075Y-104355457D01*
X170912367Y-104380249D01*
X170912367Y-104529466D01*
X170531367Y-104529466D01*
X170531367Y-104358505D01*
X170532435Y-104271958D01*
X170532435Y-104271958D01*
G37*
X170532435Y-104271958D02*
X170537778Y-104215659D01*
X170550603Y-104177537D01*
X170574119Y-104145520D01*
X170593239Y-104125672D01*
X170667755Y-104075274D01*
X170747288Y-104065522D01*
X170807706Y-104085594D01*
X170863428Y-104139125D01*
X170898188Y-104228995D01*
X170912075Y-104355457D01*
X170912367Y-104380249D01*
X170912367Y-104529466D01*
X170531367Y-104529466D01*
X170531367Y-104358505D01*
X170532435Y-104271958D01*
G36*
X169885427Y-108353219D02*
G01*
X169914427Y-108301276D01*
X169959680Y-108221468D01*
X170018665Y-108118158D01*
X170088861Y-107995706D01*
X170167746Y-107858475D01*
X170252802Y-107710826D01*
X170341506Y-107557120D01*
X170431337Y-107401720D01*
X170519776Y-107248987D01*
X170604301Y-107103282D01*
X170682392Y-106968968D01*
X170751527Y-106850406D01*
X170809186Y-106751957D01*
X170852848Y-106677983D01*
X170879992Y-106632847D01*
X170887973Y-106620565D01*
X170901140Y-106635118D01*
X170933085Y-106682795D01*
X170981600Y-106759953D01*
X171044476Y-106862951D01*
X171119507Y-106988146D01*
X171204483Y-107131896D01*
X171297197Y-107290559D01*
X171362741Y-107403732D01*
X171461592Y-107574947D01*
X171555659Y-107737742D01*
X171642451Y-107887816D01*
X171719478Y-108020868D01*
X171784248Y-108132596D01*
X171834271Y-108218699D01*
X171867056Y-108274878D01*
X171877064Y-108291841D01*
X171930766Y-108381800D01*
X171708566Y-108381800D01*
X171616026Y-108383249D01*
X171540341Y-108387164D01*
X171490786Y-108392899D01*
X171476367Y-108397978D01*
X171482341Y-108421774D01*
X171506348Y-108473343D01*
X171544269Y-108544380D01*
X171578722Y-108604353D01*
X171691075Y-108794550D01*
X171030382Y-108799227D01*
X171030382Y-108678186D01*
X171152215Y-108677505D01*
X171259853Y-108675828D01*
X171346231Y-108673112D01*
X171404285Y-108669317D01*
X171426681Y-108664763D01*
X171424091Y-108640931D01*
X171404116Y-108593334D01*
X171372808Y-108533460D01*
X171336222Y-108472795D01*
X171300411Y-108422828D01*
X171297088Y-108418841D01*
X171281466Y-108405415D01*
X171256689Y-108395642D01*
X171216562Y-108388961D01*
X171154893Y-108384809D01*
X171065486Y-108382624D01*
X170972918Y-108382040D01*
X170972918Y-108255050D01*
X171058948Y-108253573D01*
X171127162Y-108249811D01*
X171167540Y-108243625D01*
X171173422Y-108240689D01*
X171181427Y-108231049D01*
X171183199Y-108218200D01*
X171175815Y-108195808D01*
X171156349Y-108157541D01*
X171121878Y-108097066D01*
X171069476Y-108008050D01*
X171053566Y-107981161D01*
X171001101Y-107895075D01*
X170954510Y-107823350D01*
X170918823Y-107773419D01*
X170899070Y-107752716D01*
X170898956Y-107752677D01*
X170879994Y-107766891D01*
X170847128Y-107810639D01*
X170805150Y-107875476D01*
X170758856Y-107952955D01*
X170713040Y-108034632D01*
X170672496Y-108112060D01*
X170642019Y-108176794D01*
X170626402Y-108220389D01*
X170626258Y-108233053D01*
X170651056Y-108240904D01*
X170708141Y-108247169D01*
X170787494Y-108251708D01*
X170879093Y-108254382D01*
X170972918Y-108255050D01*
X170972918Y-108382040D01*
X170942148Y-108381845D01*
X170888934Y-108381800D01*
X170512228Y-108381800D01*
X170436864Y-108510389D01*
X170401149Y-108576638D01*
X170378398Y-108629421D01*
X170373253Y-108657870D01*
X170373599Y-108658556D01*
X170396963Y-108663683D01*
X170455591Y-108668105D01*
X170542415Y-108671780D01*
X170650372Y-108674668D01*
X170772396Y-108676726D01*
X170901421Y-108677913D01*
X171030382Y-108678186D01*
X171030382Y-108799227D01*
X170906871Y-108800102D01*
X170728971Y-108801142D01*
X170564769Y-108801678D01*
X170418987Y-108801727D01*
X170296346Y-108801306D01*
X170201569Y-108800433D01*
X170139377Y-108799123D01*
X170114493Y-108797394D01*
X170114281Y-108797270D01*
X170120796Y-108776759D01*
X170145061Y-108728156D01*
X170182859Y-108659558D01*
X170213827Y-108606153D01*
X170258119Y-108527173D01*
X170290893Y-108460924D01*
X170308071Y-108416142D01*
X170308897Y-108402611D01*
X170283525Y-108393797D01*
X170225562Y-108386833D01*
X170224571Y-108386782D01*
X170224571Y-108254184D01*
X170292184Y-108254011D01*
X170357560Y-108248248D01*
X170406025Y-108237303D01*
X170420947Y-108228341D01*
X170437878Y-108202595D01*
X170472427Y-108146192D01*
X170521009Y-108065120D01*
X170580043Y-107965365D01*
X170645945Y-107852916D01*
X170658448Y-107831466D01*
X170724642Y-107718252D01*
X170784048Y-107617480D01*
X170833232Y-107534908D01*
X170868758Y-107476294D01*
X170887193Y-107447398D01*
X170888530Y-107445688D01*
X170902717Y-107458668D01*
X170934525Y-107503529D01*
X170980780Y-107575279D01*
X171038309Y-107668925D01*
X171103936Y-107779474D01*
X171137495Y-107837271D01*
X171372115Y-108244216D01*
X171494412Y-108250652D01*
X171584906Y-108253306D01*
X171638624Y-108247873D01*
X171660772Y-108231717D01*
X171656555Y-108202204D01*
X171642719Y-108175592D01*
X171623927Y-108143343D01*
X171586752Y-108079369D01*
X171534039Y-107988571D01*
X171468632Y-107875850D01*
X171393376Y-107746108D01*
X171311114Y-107604246D01*
X171265715Y-107525937D01*
X171181880Y-107382319D01*
X171104011Y-107250828D01*
X171034806Y-107135872D01*
X170976964Y-107041862D01*
X170933184Y-106973206D01*
X170906164Y-106934313D01*
X170899220Y-106927125D01*
X170880153Y-106941469D01*
X170845839Y-106986098D01*
X170801164Y-107054055D01*
X170751568Y-107137404D01*
X170703337Y-107221887D01*
X170639136Y-107333913D01*
X170564194Y-107464383D01*
X170483742Y-107604195D01*
X170403006Y-107744249D01*
X170378714Y-107786333D01*
X170308976Y-107908685D01*
X170247756Y-108019132D01*
X170197859Y-108112357D01*
X170162091Y-108183044D01*
X170143258Y-108225878D01*
X170141323Y-108236125D01*
X170169393Y-108248358D01*
X170224571Y-108254184D01*
X170224571Y-108386782D01*
X170144739Y-108382626D01*
X170085618Y-108381800D01*
X169997048Y-108380971D01*
X169926873Y-108378738D01*
X169884079Y-108375479D01*
X169875200Y-108372935D01*
X169885427Y-108353219D01*
X169885427Y-108353219D01*
G37*
X169885427Y-108353219D02*
X169914427Y-108301276D01*
X169959680Y-108221468D01*
X170018665Y-108118158D01*
X170088861Y-107995706D01*
X170167746Y-107858475D01*
X170252802Y-107710826D01*
X170341506Y-107557120D01*
X170431337Y-107401720D01*
X170519776Y-107248987D01*
X170604301Y-107103282D01*
X170682392Y-106968968D01*
X170751527Y-106850406D01*
X170809186Y-106751957D01*
X170852848Y-106677983D01*
X170879992Y-106632847D01*
X170887973Y-106620565D01*
X170901140Y-106635118D01*
X170933085Y-106682795D01*
X170981600Y-106759953D01*
X171044476Y-106862951D01*
X171119507Y-106988146D01*
X171204483Y-107131896D01*
X171297197Y-107290559D01*
X171362741Y-107403732D01*
X171461592Y-107574947D01*
X171555659Y-107737742D01*
X171642451Y-107887816D01*
X171719478Y-108020868D01*
X171784248Y-108132596D01*
X171834271Y-108218699D01*
X171867056Y-108274878D01*
X171877064Y-108291841D01*
X171930766Y-108381800D01*
X171708566Y-108381800D01*
X171616026Y-108383249D01*
X171540341Y-108387164D01*
X171490786Y-108392899D01*
X171476367Y-108397978D01*
X171482341Y-108421774D01*
X171506348Y-108473343D01*
X171544269Y-108544380D01*
X171578722Y-108604353D01*
X171691075Y-108794550D01*
X171030382Y-108799227D01*
X171030382Y-108678186D01*
X171152215Y-108677505D01*
X171259853Y-108675828D01*
X171346231Y-108673112D01*
X171404285Y-108669317D01*
X171426681Y-108664763D01*
X171424091Y-108640931D01*
X171404116Y-108593334D01*
X171372808Y-108533460D01*
X171336222Y-108472795D01*
X171300411Y-108422828D01*
X171297088Y-108418841D01*
X171281466Y-108405415D01*
X171256689Y-108395642D01*
X171216562Y-108388961D01*
X171154893Y-108384809D01*
X171065486Y-108382624D01*
X170972918Y-108382040D01*
X170972918Y-108255050D01*
X171058948Y-108253573D01*
X171127162Y-108249811D01*
X171167540Y-108243625D01*
X171173422Y-108240689D01*
X171181427Y-108231049D01*
X171183199Y-108218200D01*
X171175815Y-108195808D01*
X171156349Y-108157541D01*
X171121878Y-108097066D01*
X171069476Y-108008050D01*
X171053566Y-107981161D01*
X171001101Y-107895075D01*
X170954510Y-107823350D01*
X170918823Y-107773419D01*
X170899070Y-107752716D01*
X170898956Y-107752677D01*
X170879994Y-107766891D01*
X170847128Y-107810639D01*
X170805150Y-107875476D01*
X170758856Y-107952955D01*
X170713040Y-108034632D01*
X170672496Y-108112060D01*
X170642019Y-108176794D01*
X170626402Y-108220389D01*
X170626258Y-108233053D01*
X170651056Y-108240904D01*
X170708141Y-108247169D01*
X170787494Y-108251708D01*
X170879093Y-108254382D01*
X170972918Y-108255050D01*
X170972918Y-108382040D01*
X170942148Y-108381845D01*
X170888934Y-108381800D01*
X170512228Y-108381800D01*
X170436864Y-108510389D01*
X170401149Y-108576638D01*
X170378398Y-108629421D01*
X170373253Y-108657870D01*
X170373599Y-108658556D01*
X170396963Y-108663683D01*
X170455591Y-108668105D01*
X170542415Y-108671780D01*
X170650372Y-108674668D01*
X170772396Y-108676726D01*
X170901421Y-108677913D01*
X171030382Y-108678186D01*
X171030382Y-108799227D01*
X170906871Y-108800102D01*
X170728971Y-108801142D01*
X170564769Y-108801678D01*
X170418987Y-108801727D01*
X170296346Y-108801306D01*
X170201569Y-108800433D01*
X170139377Y-108799123D01*
X170114493Y-108797394D01*
X170114281Y-108797270D01*
X170120796Y-108776759D01*
X170145061Y-108728156D01*
X170182859Y-108659558D01*
X170213827Y-108606153D01*
X170258119Y-108527173D01*
X170290893Y-108460924D01*
X170308071Y-108416142D01*
X170308897Y-108402611D01*
X170283525Y-108393797D01*
X170225562Y-108386833D01*
X170224571Y-108386782D01*
X170224571Y-108254184D01*
X170292184Y-108254011D01*
X170357560Y-108248248D01*
X170406025Y-108237303D01*
X170420947Y-108228341D01*
X170437878Y-108202595D01*
X170472427Y-108146192D01*
X170521009Y-108065120D01*
X170580043Y-107965365D01*
X170645945Y-107852916D01*
X170658448Y-107831466D01*
X170724642Y-107718252D01*
X170784048Y-107617480D01*
X170833232Y-107534908D01*
X170868758Y-107476294D01*
X170887193Y-107447398D01*
X170888530Y-107445688D01*
X170902717Y-107458668D01*
X170934525Y-107503529D01*
X170980780Y-107575279D01*
X171038309Y-107668925D01*
X171103936Y-107779474D01*
X171137495Y-107837271D01*
X171372115Y-108244216D01*
X171494412Y-108250652D01*
X171584906Y-108253306D01*
X171638624Y-108247873D01*
X171660772Y-108231717D01*
X171656555Y-108202204D01*
X171642719Y-108175592D01*
X171623927Y-108143343D01*
X171586752Y-108079369D01*
X171534039Y-107988571D01*
X171468632Y-107875850D01*
X171393376Y-107746108D01*
X171311114Y-107604246D01*
X171265715Y-107525937D01*
X171181880Y-107382319D01*
X171104011Y-107250828D01*
X171034806Y-107135872D01*
X170976964Y-107041862D01*
X170933184Y-106973206D01*
X170906164Y-106934313D01*
X170899220Y-106927125D01*
X170880153Y-106941469D01*
X170845839Y-106986098D01*
X170801164Y-107054055D01*
X170751568Y-107137404D01*
X170703337Y-107221887D01*
X170639136Y-107333913D01*
X170564194Y-107464383D01*
X170483742Y-107604195D01*
X170403006Y-107744249D01*
X170378714Y-107786333D01*
X170308976Y-107908685D01*
X170247756Y-108019132D01*
X170197859Y-108112357D01*
X170162091Y-108183044D01*
X170143258Y-108225878D01*
X170141323Y-108236125D01*
X170169393Y-108248358D01*
X170224571Y-108254184D01*
X170224571Y-108386782D01*
X170144739Y-108382626D01*
X170085618Y-108381800D01*
X169997048Y-108380971D01*
X169926873Y-108378738D01*
X169884079Y-108375479D01*
X169875200Y-108372935D01*
X169885427Y-108353219D01*
G36*
X173283034Y-89670466D02*
G01*
X173283034Y-110307966D01*
X170887732Y-110307966D01*
X170887732Y-109937129D01*
X171170992Y-109918973D01*
X171446869Y-109862680D01*
X171711771Y-109769605D01*
X171962109Y-109641101D01*
X172194291Y-109478521D01*
X172404729Y-109283221D01*
X172589830Y-109056553D01*
X172645147Y-108974466D01*
X172738488Y-108804977D01*
X172818939Y-108612126D01*
X172883517Y-108407009D01*
X172929240Y-108200726D01*
X172953124Y-108004374D01*
X172952398Y-107831466D01*
X172947165Y-107770046D01*
X172940155Y-107686886D01*
X172934462Y-107618854D01*
X172906830Y-107439267D01*
X172854884Y-107245503D01*
X172783289Y-107054244D01*
X172765244Y-107013901D01*
X172626150Y-106761225D01*
X172456627Y-106535266D01*
X172260290Y-106337575D01*
X172040752Y-106169701D01*
X171801625Y-106033195D01*
X171546523Y-105929608D01*
X171462700Y-105907947D01*
X171462700Y-104719966D01*
X171462700Y-104529466D01*
X171102867Y-104529466D01*
X171102867Y-104385142D01*
X171097931Y-104290820D01*
X171085153Y-104195398D01*
X171071697Y-104135856D01*
X171020569Y-104026263D01*
X170945067Y-103943791D01*
X170852492Y-103889107D01*
X170750149Y-103862878D01*
X170645338Y-103865772D01*
X170545363Y-103898457D01*
X170457526Y-103961600D01*
X170389130Y-104055868D01*
X170381006Y-104072719D01*
X170363937Y-104118577D01*
X170352405Y-104173350D01*
X170345440Y-104245996D01*
X170342073Y-104345475D01*
X170341332Y-104439508D01*
X170340867Y-104719966D01*
X170340867Y-103386466D01*
X170887672Y-103386466D01*
X171035746Y-103385941D01*
X171169688Y-103384462D01*
X171283730Y-103382175D01*
X171372102Y-103379224D01*
X171429037Y-103375756D01*
X171448589Y-103372355D01*
X171453134Y-103347599D01*
X171457071Y-103287560D01*
X171460145Y-103199286D01*
X171462103Y-103089826D01*
X171462700Y-102980772D01*
X171462700Y-102603300D01*
X171272200Y-102603300D01*
X171272200Y-103174800D01*
X170340867Y-103174800D01*
X170340867Y-102158800D01*
X170737742Y-102158335D01*
X170882683Y-102157621D01*
X170992206Y-102155492D01*
X171073217Y-102151390D01*
X171132623Y-102144755D01*
X171177331Y-102135027D01*
X171214246Y-102121648D01*
X171219465Y-102119324D01*
X171310030Y-102062016D01*
X171386398Y-101983770D01*
X171438164Y-101896728D01*
X171452806Y-101847044D01*
X171463376Y-101789587D01*
X171472337Y-101750082D01*
X171473588Y-101746050D01*
X171477247Y-101698292D01*
X171468752Y-101626065D01*
X171450966Y-101544481D01*
X171426750Y-101468652D01*
X171416497Y-101444573D01*
X171374273Y-101371469D01*
X171320695Y-101314185D01*
X171250695Y-101271042D01*
X171159206Y-101240362D01*
X171041160Y-101220465D01*
X170891489Y-101209672D01*
X170885851Y-101209571D01*
X170885851Y-100677133D01*
X171034178Y-100676610D01*
X171168380Y-100675136D01*
X171282699Y-100672855D01*
X171371376Y-100669913D01*
X171428653Y-100666453D01*
X171448589Y-100663022D01*
X171457265Y-100634832D01*
X171462239Y-100580868D01*
X171462700Y-100557189D01*
X171462700Y-100465466D01*
X171058421Y-100465466D01*
X171071117Y-100223254D01*
X171266909Y-100086263D01*
X171462700Y-99949271D01*
X171462700Y-99836952D01*
X171460651Y-99774472D01*
X171455383Y-99733693D01*
X171450658Y-99724633D01*
X171446825Y-99726718D01*
X171446825Y-99322416D01*
X171456258Y-99303509D01*
X171461945Y-99255573D01*
X171462700Y-99226331D01*
X171462700Y-99130196D01*
X171325117Y-99068466D01*
X171187534Y-99006737D01*
X171188002Y-98486383D01*
X171320059Y-98433315D01*
X171452117Y-98380247D01*
X171458568Y-98279857D01*
X171458242Y-98214304D01*
X171447661Y-98181860D01*
X171441855Y-98179466D01*
X171417710Y-98187567D01*
X171361048Y-98210086D01*
X171278080Y-98244350D01*
X171175019Y-98287685D01*
X171058076Y-98337418D01*
X170933463Y-98390875D01*
X170807392Y-98445382D01*
X170686076Y-98498265D01*
X170575725Y-98546852D01*
X170482552Y-98588468D01*
X170412770Y-98620439D01*
X170376747Y-98637898D01*
X170340867Y-98661763D01*
X170340867Y-97692633D01*
X171463655Y-97692633D01*
X171457886Y-97306341D01*
X171452117Y-96920050D01*
X171362159Y-96913541D01*
X171282784Y-96907798D01*
X171282784Y-96505988D01*
X171340548Y-96439183D01*
X171402422Y-96348993D01*
X171440074Y-96245205D01*
X171456234Y-96118147D01*
X171456764Y-96027295D01*
X171451763Y-95930930D01*
X171441311Y-95865007D01*
X171422930Y-95817738D01*
X171407837Y-95794461D01*
X171319898Y-95704588D01*
X171220052Y-95653745D01*
X171111877Y-95643059D01*
X171009703Y-95668981D01*
X170956363Y-95697881D01*
X170913954Y-95739281D01*
X170877530Y-95801009D01*
X170842142Y-95890895D01*
X170814318Y-95978133D01*
X170778135Y-96091480D01*
X170747260Y-96169576D01*
X170717803Y-96218490D01*
X170685871Y-96244294D01*
X170647572Y-96253056D01*
X170637912Y-96253300D01*
X170576676Y-96235290D01*
X170534214Y-96186567D01*
X170512083Y-96115093D01*
X170511838Y-96028828D01*
X170535038Y-95935734D01*
X170563867Y-95874559D01*
X170593023Y-95821108D01*
X170609645Y-95785769D01*
X170611237Y-95777956D01*
X170592259Y-95764083D01*
X170552978Y-95734574D01*
X170544387Y-95728072D01*
X170499307Y-95697361D01*
X170468058Y-95682154D01*
X170465369Y-95681800D01*
X170442118Y-95700469D01*
X170412763Y-95749246D01*
X170381927Y-95817288D01*
X170354233Y-95893751D01*
X170340867Y-95943403D01*
X170340867Y-95131466D01*
X170887672Y-95131466D01*
X171035746Y-95130941D01*
X171169688Y-95129462D01*
X171283730Y-95127175D01*
X171372102Y-95124224D01*
X171429037Y-95120756D01*
X171448589Y-95117355D01*
X171457265Y-95089165D01*
X171462239Y-95035202D01*
X171462700Y-95011522D01*
X171462700Y-94919800D01*
X170901784Y-94919800D01*
X170901784Y-94390633D01*
X171057007Y-94372275D01*
X171191559Y-94320307D01*
X171302863Y-94239387D01*
X171388347Y-94134177D01*
X171445436Y-94009334D01*
X171471556Y-93869519D01*
X171464133Y-93719391D01*
X171420592Y-93563609D01*
X171392921Y-93501633D01*
X171324676Y-93364050D01*
X171076188Y-93358086D01*
X170827700Y-93352123D01*
X170827700Y-93840300D01*
X170997034Y-93840300D01*
X170997034Y-93543966D01*
X171102323Y-93543966D01*
X171167427Y-93546664D01*
X171205029Y-93559145D01*
X171229839Y-93587990D01*
X171239301Y-93605245D01*
X171280200Y-93723503D01*
X171285873Y-93844029D01*
X171257503Y-93957177D01*
X171196271Y-94053304D01*
X171182651Y-94067286D01*
X171097366Y-94133606D01*
X171005048Y-94168837D01*
X170893151Y-94178966D01*
X170768845Y-94160530D01*
X170664656Y-94109513D01*
X170584284Y-94032356D01*
X170531429Y-93935498D01*
X170509789Y-93825380D01*
X170523066Y-93708441D01*
X170564993Y-93607743D01*
X170619277Y-93512769D01*
X170553821Y-93454284D01*
X170508989Y-93417683D01*
X170476514Y-93397304D01*
X170470897Y-93395800D01*
X170452214Y-93412915D01*
X170421741Y-93457255D01*
X170394094Y-93504817D01*
X170341645Y-93642021D01*
X170340867Y-93647834D01*
X170340867Y-92824300D01*
X170887672Y-92824300D01*
X171035812Y-92823737D01*
X171169880Y-92822154D01*
X171284095Y-92819704D01*
X171372673Y-92816544D01*
X171429833Y-92812829D01*
X171449585Y-92809193D01*
X171457717Y-92780221D01*
X171459378Y-92726654D01*
X171458404Y-92708651D01*
X171452117Y-92623216D01*
X171224575Y-92617209D01*
X170997034Y-92611201D01*
X170997034Y-92106065D01*
X171224575Y-92100058D01*
X171452117Y-92094050D01*
X171458568Y-91993508D01*
X171465020Y-91892966D01*
X170340867Y-91892966D01*
X170340867Y-91406133D01*
X170531367Y-91406133D01*
X170531367Y-91067466D01*
X170982922Y-91067466D01*
X171117104Y-91066833D01*
X171236752Y-91065061D01*
X171335472Y-91062344D01*
X171406871Y-91058876D01*
X171444556Y-91054851D01*
X171448589Y-91053355D01*
X171457265Y-91025165D01*
X171462239Y-90971202D01*
X171462700Y-90947522D01*
X171462700Y-90855800D01*
X170531367Y-90855800D01*
X170531367Y-90495966D01*
X170340867Y-90495966D01*
X170340867Y-91406133D01*
X170340867Y-91892966D01*
X170340867Y-92104633D01*
X170806534Y-92104633D01*
X170806534Y-92612633D01*
X170340867Y-92612633D01*
X170340867Y-92824300D01*
X170340867Y-93647834D01*
X170321351Y-93793678D01*
X170334416Y-93945359D01*
X170351857Y-94010858D01*
X170416088Y-94140031D01*
X170512225Y-94247149D01*
X170633604Y-94327613D01*
X170773563Y-94376820D01*
X170901784Y-94390633D01*
X170901784Y-94919800D01*
X170340867Y-94919800D01*
X170340867Y-95131466D01*
X170340867Y-95943403D01*
X170334302Y-95967792D01*
X170328365Y-96003200D01*
X170328169Y-96137214D01*
X170357906Y-96253890D01*
X170413380Y-96348749D01*
X170490391Y-96417313D01*
X170584742Y-96455101D01*
X170692234Y-96457634D01*
X170743515Y-96446156D01*
X170819652Y-96410457D01*
X170880265Y-96350563D01*
X170929545Y-96260615D01*
X170971687Y-96134753D01*
X170974950Y-96122674D01*
X171007675Y-96008934D01*
X171037175Y-95930929D01*
X171067202Y-95882640D01*
X171101506Y-95858048D01*
X171143840Y-95851133D01*
X171144176Y-95851133D01*
X171212578Y-95868733D01*
X171260435Y-95916800D01*
X171286720Y-95988239D01*
X171290408Y-96075952D01*
X171270471Y-96172843D01*
X171225884Y-96271815D01*
X171208914Y-96298828D01*
X171147737Y-96389918D01*
X171215260Y-96447953D01*
X171282784Y-96505988D01*
X171282784Y-96907798D01*
X171272200Y-96907032D01*
X171272200Y-97502133D01*
X170340867Y-97502133D01*
X170340867Y-97692633D01*
X170340867Y-98661763D01*
X170338435Y-98663381D01*
X170323357Y-98696816D01*
X170323831Y-98754585D01*
X170330284Y-98840581D01*
X170880617Y-99081473D01*
X171023099Y-99143606D01*
X171152987Y-99199799D01*
X171265226Y-99247902D01*
X171354764Y-99285763D01*
X171416544Y-99311233D01*
X171445513Y-99322159D01*
X171446825Y-99322416D01*
X171446825Y-99726718D01*
X171429473Y-99736159D01*
X171381673Y-99767308D01*
X171314979Y-99812935D01*
X171257606Y-99853277D01*
X171162227Y-99920265D01*
X171095749Y-99964388D01*
X171053156Y-99988119D01*
X171029432Y-99993927D01*
X171019563Y-99984283D01*
X171018200Y-99971206D01*
X171004415Y-99938120D01*
X170969043Y-99888919D01*
X170938795Y-99854610D01*
X170875934Y-99798132D01*
X170813067Y-99767702D01*
X170757991Y-99755933D01*
X170634180Y-99755870D01*
X170524785Y-99792700D01*
X170435887Y-99863919D01*
X170408510Y-99899832D01*
X170387250Y-99933649D01*
X170371875Y-99965967D01*
X170361247Y-100004430D01*
X170354232Y-100056679D01*
X170349692Y-100130357D01*
X170346493Y-100233106D01*
X170344337Y-100331559D01*
X170337225Y-100677133D01*
X170885851Y-100677133D01*
X170885851Y-101209571D01*
X170705126Y-101206304D01*
X170697336Y-101206300D01*
X170340867Y-101206300D01*
X170340867Y-101417966D01*
X170718737Y-101417966D01*
X170854711Y-101418248D01*
X170955320Y-101419592D01*
X171027529Y-101422748D01*
X171078305Y-101428463D01*
X171114614Y-101437488D01*
X171143422Y-101450572D01*
X171168528Y-101466324D01*
X171236861Y-101535914D01*
X171275393Y-101626085D01*
X171282093Y-101725468D01*
X171254929Y-101822691D01*
X171237652Y-101853183D01*
X171203720Y-101892611D01*
X171156711Y-101922370D01*
X171091030Y-101943635D01*
X171001083Y-101957583D01*
X170881276Y-101965388D01*
X170726014Y-101968225D01*
X170689688Y-101968300D01*
X170340867Y-101968300D01*
X170340867Y-102158800D01*
X170340867Y-103174800D01*
X170340867Y-103386466D01*
X170340867Y-104719966D01*
X171462700Y-104719966D01*
X171462700Y-105907947D01*
X171279059Y-105860490D01*
X171002846Y-105827392D01*
X170721497Y-105831864D01*
X170438625Y-105875457D01*
X170240537Y-105930446D01*
X169974844Y-106039324D01*
X169734023Y-106179815D01*
X169519257Y-106348445D01*
X169331726Y-106541744D01*
X169172612Y-106756241D01*
X169043096Y-106988464D01*
X168944359Y-107234941D01*
X168877583Y-107492201D01*
X168843948Y-107756773D01*
X168844636Y-108025186D01*
X168880829Y-108293967D01*
X168953707Y-108559646D01*
X169064452Y-108818751D01*
X169186690Y-109027404D01*
X169360386Y-109251013D01*
X169565269Y-109449404D01*
X169795905Y-109618590D01*
X170046857Y-109754586D01*
X170312690Y-109853406D01*
X170313422Y-109853618D01*
X170600679Y-109915796D01*
X170887732Y-109937129D01*
X170887732Y-110307966D01*
X168520534Y-110307966D01*
X168520534Y-89670466D01*
X173283034Y-89670466D01*
X173283034Y-89670466D01*
G37*
X173283034Y-89670466D02*
X173283034Y-110307966D01*
X170887732Y-110307966D01*
X170887732Y-109937129D01*
X171170992Y-109918973D01*
X171446869Y-109862680D01*
X171711771Y-109769605D01*
X171962109Y-109641101D01*
X172194291Y-109478521D01*
X172404729Y-109283221D01*
X172589830Y-109056553D01*
X172645147Y-108974466D01*
X172738488Y-108804977D01*
X172818939Y-108612126D01*
X172883517Y-108407009D01*
X172929240Y-108200726D01*
X172953124Y-108004374D01*
X172952398Y-107831466D01*
X172947165Y-107770046D01*
X172940155Y-107686886D01*
X172934462Y-107618854D01*
X172906830Y-107439267D01*
X172854884Y-107245503D01*
X172783289Y-107054244D01*
X172765244Y-107013901D01*
X172626150Y-106761225D01*
X172456627Y-106535266D01*
X172260290Y-106337575D01*
X172040752Y-106169701D01*
X171801625Y-106033195D01*
X171546523Y-105929608D01*
X171462700Y-105907947D01*
X171462700Y-104719966D01*
X171462700Y-104529466D01*
X171102867Y-104529466D01*
X171102867Y-104385142D01*
X171097931Y-104290820D01*
X171085153Y-104195398D01*
X171071697Y-104135856D01*
X171020569Y-104026263D01*
X170945067Y-103943791D01*
X170852492Y-103889107D01*
X170750149Y-103862878D01*
X170645338Y-103865772D01*
X170545363Y-103898457D01*
X170457526Y-103961600D01*
X170389130Y-104055868D01*
X170381006Y-104072719D01*
X170363937Y-104118577D01*
X170352405Y-104173350D01*
X170345440Y-104245996D01*
X170342073Y-104345475D01*
X170341332Y-104439508D01*
X170340867Y-104719966D01*
X170340867Y-103386466D01*
X170887672Y-103386466D01*
X171035746Y-103385941D01*
X171169688Y-103384462D01*
X171283730Y-103382175D01*
X171372102Y-103379224D01*
X171429037Y-103375756D01*
X171448589Y-103372355D01*
X171453134Y-103347599D01*
X171457071Y-103287560D01*
X171460145Y-103199286D01*
X171462103Y-103089826D01*
X171462700Y-102980772D01*
X171462700Y-102603300D01*
X171272200Y-102603300D01*
X171272200Y-103174800D01*
X170340867Y-103174800D01*
X170340867Y-102158800D01*
X170737742Y-102158335D01*
X170882683Y-102157621D01*
X170992206Y-102155492D01*
X171073217Y-102151390D01*
X171132623Y-102144755D01*
X171177331Y-102135027D01*
X171214246Y-102121648D01*
X171219465Y-102119324D01*
X171310030Y-102062016D01*
X171386398Y-101983770D01*
X171438164Y-101896728D01*
X171452806Y-101847044D01*
X171463376Y-101789587D01*
X171472337Y-101750082D01*
X171473588Y-101746050D01*
X171477247Y-101698292D01*
X171468752Y-101626065D01*
X171450966Y-101544481D01*
X171426750Y-101468652D01*
X171416497Y-101444573D01*
X171374273Y-101371469D01*
X171320695Y-101314185D01*
X171250695Y-101271042D01*
X171159206Y-101240362D01*
X171041160Y-101220465D01*
X170891489Y-101209672D01*
X170885851Y-101209571D01*
X170885851Y-100677133D01*
X171034178Y-100676610D01*
X171168380Y-100675136D01*
X171282699Y-100672855D01*
X171371376Y-100669913D01*
X171428653Y-100666453D01*
X171448589Y-100663022D01*
X171457265Y-100634832D01*
X171462239Y-100580868D01*
X171462700Y-100557189D01*
X171462700Y-100465466D01*
X171058421Y-100465466D01*
X171071117Y-100223254D01*
X171266909Y-100086263D01*
X171462700Y-99949271D01*
X171462700Y-99836952D01*
X171460651Y-99774472D01*
X171455383Y-99733693D01*
X171450658Y-99724633D01*
X171446825Y-99726718D01*
X171446825Y-99322416D01*
X171456258Y-99303509D01*
X171461945Y-99255573D01*
X171462700Y-99226331D01*
X171462700Y-99130196D01*
X171325117Y-99068466D01*
X171187534Y-99006737D01*
X171188002Y-98486383D01*
X171320059Y-98433315D01*
X171452117Y-98380247D01*
X171458568Y-98279857D01*
X171458242Y-98214304D01*
X171447661Y-98181860D01*
X171441855Y-98179466D01*
X171417710Y-98187567D01*
X171361048Y-98210086D01*
X171278080Y-98244350D01*
X171175019Y-98287685D01*
X171058076Y-98337418D01*
X170933463Y-98390875D01*
X170807392Y-98445382D01*
X170686076Y-98498265D01*
X170575725Y-98546852D01*
X170482552Y-98588468D01*
X170412770Y-98620439D01*
X170376747Y-98637898D01*
X170340867Y-98661763D01*
X170340867Y-97692633D01*
X171463655Y-97692633D01*
X171457886Y-97306341D01*
X171452117Y-96920050D01*
X171362159Y-96913541D01*
X171282784Y-96907798D01*
X171282784Y-96505988D01*
X171340548Y-96439183D01*
X171402422Y-96348993D01*
X171440074Y-96245205D01*
X171456234Y-96118147D01*
X171456764Y-96027295D01*
X171451763Y-95930930D01*
X171441311Y-95865007D01*
X171422930Y-95817738D01*
X171407837Y-95794461D01*
X171319898Y-95704588D01*
X171220052Y-95653745D01*
X171111877Y-95643059D01*
X171009703Y-95668981D01*
X170956363Y-95697881D01*
X170913954Y-95739281D01*
X170877530Y-95801009D01*
X170842142Y-95890895D01*
X170814318Y-95978133D01*
X170778135Y-96091480D01*
X170747260Y-96169576D01*
X170717803Y-96218490D01*
X170685871Y-96244294D01*
X170647572Y-96253056D01*
X170637912Y-96253300D01*
X170576676Y-96235290D01*
X170534214Y-96186567D01*
X170512083Y-96115093D01*
X170511838Y-96028828D01*
X170535038Y-95935734D01*
X170563867Y-95874559D01*
X170593023Y-95821108D01*
X170609645Y-95785769D01*
X170611237Y-95777956D01*
X170592259Y-95764083D01*
X170552978Y-95734574D01*
X170544387Y-95728072D01*
X170499307Y-95697361D01*
X170468058Y-95682154D01*
X170465369Y-95681800D01*
X170442118Y-95700469D01*
X170412763Y-95749246D01*
X170381927Y-95817288D01*
X170354233Y-95893751D01*
X170340867Y-95943403D01*
X170340867Y-95131466D01*
X170887672Y-95131466D01*
X171035746Y-95130941D01*
X171169688Y-95129462D01*
X171283730Y-95127175D01*
X171372102Y-95124224D01*
X171429037Y-95120756D01*
X171448589Y-95117355D01*
X171457265Y-95089165D01*
X171462239Y-95035202D01*
X171462700Y-95011522D01*
X171462700Y-94919800D01*
X170901784Y-94919800D01*
X170901784Y-94390633D01*
X171057007Y-94372275D01*
X171191559Y-94320307D01*
X171302863Y-94239387D01*
X171388347Y-94134177D01*
X171445436Y-94009334D01*
X171471556Y-93869519D01*
X171464133Y-93719391D01*
X171420592Y-93563609D01*
X171392921Y-93501633D01*
X171324676Y-93364050D01*
X171076188Y-93358086D01*
X170827700Y-93352123D01*
X170827700Y-93840300D01*
X170997034Y-93840300D01*
X170997034Y-93543966D01*
X171102323Y-93543966D01*
X171167427Y-93546664D01*
X171205029Y-93559145D01*
X171229839Y-93587990D01*
X171239301Y-93605245D01*
X171280200Y-93723503D01*
X171285873Y-93844029D01*
X171257503Y-93957177D01*
X171196271Y-94053304D01*
X171182651Y-94067286D01*
X171097366Y-94133606D01*
X171005048Y-94168837D01*
X170893151Y-94178966D01*
X170768845Y-94160530D01*
X170664656Y-94109513D01*
X170584284Y-94032356D01*
X170531429Y-93935498D01*
X170509789Y-93825380D01*
X170523066Y-93708441D01*
X170564993Y-93607743D01*
X170619277Y-93512769D01*
X170553821Y-93454284D01*
X170508989Y-93417683D01*
X170476514Y-93397304D01*
X170470897Y-93395800D01*
X170452214Y-93412915D01*
X170421741Y-93457255D01*
X170394094Y-93504817D01*
X170341645Y-93642021D01*
X170340867Y-93647834D01*
X170340867Y-92824300D01*
X170887672Y-92824300D01*
X171035812Y-92823737D01*
X171169880Y-92822154D01*
X171284095Y-92819704D01*
X171372673Y-92816544D01*
X171429833Y-92812829D01*
X171449585Y-92809193D01*
X171457717Y-92780221D01*
X171459378Y-92726654D01*
X171458404Y-92708651D01*
X171452117Y-92623216D01*
X171224575Y-92617209D01*
X170997034Y-92611201D01*
X170997034Y-92106065D01*
X171224575Y-92100058D01*
X171452117Y-92094050D01*
X171458568Y-91993508D01*
X171465020Y-91892966D01*
X170340867Y-91892966D01*
X170340867Y-91406133D01*
X170531367Y-91406133D01*
X170531367Y-91067466D01*
X170982922Y-91067466D01*
X171117104Y-91066833D01*
X171236752Y-91065061D01*
X171335472Y-91062344D01*
X171406871Y-91058876D01*
X171444556Y-91054851D01*
X171448589Y-91053355D01*
X171457265Y-91025165D01*
X171462239Y-90971202D01*
X171462700Y-90947522D01*
X171462700Y-90855800D01*
X170531367Y-90855800D01*
X170531367Y-90495966D01*
X170340867Y-90495966D01*
X170340867Y-91406133D01*
X170340867Y-91892966D01*
X170340867Y-92104633D01*
X170806534Y-92104633D01*
X170806534Y-92612633D01*
X170340867Y-92612633D01*
X170340867Y-92824300D01*
X170340867Y-93647834D01*
X170321351Y-93793678D01*
X170334416Y-93945359D01*
X170351857Y-94010858D01*
X170416088Y-94140031D01*
X170512225Y-94247149D01*
X170633604Y-94327613D01*
X170773563Y-94376820D01*
X170901784Y-94390633D01*
X170901784Y-94919800D01*
X170340867Y-94919800D01*
X170340867Y-95131466D01*
X170340867Y-95943403D01*
X170334302Y-95967792D01*
X170328365Y-96003200D01*
X170328169Y-96137214D01*
X170357906Y-96253890D01*
X170413380Y-96348749D01*
X170490391Y-96417313D01*
X170584742Y-96455101D01*
X170692234Y-96457634D01*
X170743515Y-96446156D01*
X170819652Y-96410457D01*
X170880265Y-96350563D01*
X170929545Y-96260615D01*
X170971687Y-96134753D01*
X170974950Y-96122674D01*
X171007675Y-96008934D01*
X171037175Y-95930929D01*
X171067202Y-95882640D01*
X171101506Y-95858048D01*
X171143840Y-95851133D01*
X171144176Y-95851133D01*
X171212578Y-95868733D01*
X171260435Y-95916800D01*
X171286720Y-95988239D01*
X171290408Y-96075952D01*
X171270471Y-96172843D01*
X171225884Y-96271815D01*
X171208914Y-96298828D01*
X171147737Y-96389918D01*
X171215260Y-96447953D01*
X171282784Y-96505988D01*
X171282784Y-96907798D01*
X171272200Y-96907032D01*
X171272200Y-97502133D01*
X170340867Y-97502133D01*
X170340867Y-97692633D01*
X170340867Y-98661763D01*
X170338435Y-98663381D01*
X170323357Y-98696816D01*
X170323831Y-98754585D01*
X170330284Y-98840581D01*
X170880617Y-99081473D01*
X171023099Y-99143606D01*
X171152987Y-99199799D01*
X171265226Y-99247902D01*
X171354764Y-99285763D01*
X171416544Y-99311233D01*
X171445513Y-99322159D01*
X171446825Y-99322416D01*
X171446825Y-99726718D01*
X171429473Y-99736159D01*
X171381673Y-99767308D01*
X171314979Y-99812935D01*
X171257606Y-99853277D01*
X171162227Y-99920265D01*
X171095749Y-99964388D01*
X171053156Y-99988119D01*
X171029432Y-99993927D01*
X171019563Y-99984283D01*
X171018200Y-99971206D01*
X171004415Y-99938120D01*
X170969043Y-99888919D01*
X170938795Y-99854610D01*
X170875934Y-99798132D01*
X170813067Y-99767702D01*
X170757991Y-99755933D01*
X170634180Y-99755870D01*
X170524785Y-99792700D01*
X170435887Y-99863919D01*
X170408510Y-99899832D01*
X170387250Y-99933649D01*
X170371875Y-99965967D01*
X170361247Y-100004430D01*
X170354232Y-100056679D01*
X170349692Y-100130357D01*
X170346493Y-100233106D01*
X170344337Y-100331559D01*
X170337225Y-100677133D01*
X170885851Y-100677133D01*
X170885851Y-101209571D01*
X170705126Y-101206304D01*
X170697336Y-101206300D01*
X170340867Y-101206300D01*
X170340867Y-101417966D01*
X170718737Y-101417966D01*
X170854711Y-101418248D01*
X170955320Y-101419592D01*
X171027529Y-101422748D01*
X171078305Y-101428463D01*
X171114614Y-101437488D01*
X171143422Y-101450572D01*
X171168528Y-101466324D01*
X171236861Y-101535914D01*
X171275393Y-101626085D01*
X171282093Y-101725468D01*
X171254929Y-101822691D01*
X171237652Y-101853183D01*
X171203720Y-101892611D01*
X171156711Y-101922370D01*
X171091030Y-101943635D01*
X171001083Y-101957583D01*
X170881276Y-101965388D01*
X170726014Y-101968225D01*
X170689688Y-101968300D01*
X170340867Y-101968300D01*
X170340867Y-102158800D01*
X170340867Y-103174800D01*
X170340867Y-103386466D01*
X170340867Y-104719966D01*
X171462700Y-104719966D01*
X171462700Y-105907947D01*
X171279059Y-105860490D01*
X171002846Y-105827392D01*
X170721497Y-105831864D01*
X170438625Y-105875457D01*
X170240537Y-105930446D01*
X169974844Y-106039324D01*
X169734023Y-106179815D01*
X169519257Y-106348445D01*
X169331726Y-106541744D01*
X169172612Y-106756241D01*
X169043096Y-106988464D01*
X168944359Y-107234941D01*
X168877583Y-107492201D01*
X168843948Y-107756773D01*
X168844636Y-108025186D01*
X168880829Y-108293967D01*
X168953707Y-108559646D01*
X169064452Y-108818751D01*
X169186690Y-109027404D01*
X169360386Y-109251013D01*
X169565269Y-109449404D01*
X169795905Y-109618590D01*
X170046857Y-109754586D01*
X170312690Y-109853406D01*
X170313422Y-109853618D01*
X170600679Y-109915796D01*
X170887732Y-109937129D01*
X170887732Y-110307966D01*
X168520534Y-110307966D01*
X168520534Y-89670466D01*
X173283034Y-89670466D01*
D10*
X201168000Y-115316000D02*
X201168000Y-69596000D01*
X196088000Y-69596000D02*
X196088000Y-112776000D01*
X201168000Y-69596000D02*
X196088000Y-69596000D01*
X201168000Y-115316000D02*
X198628000Y-115316000D01*
X195808000Y-114046000D02*
X195808000Y-115596000D01*
X198628000Y-115316000D02*
X198628000Y-112776000D01*
X198628000Y-112776000D02*
X196088000Y-112776000D01*
X195808000Y-115596000D02*
X197358000Y-115596000D01*
X132588000Y-120396000D02*
X150368000Y-120396000D01*
X150368000Y-120396000D02*
X150368000Y-117856000D01*
X150368000Y-117856000D02*
X132588000Y-117856000D01*
X129768000Y-120676000D02*
X131318000Y-120676000D01*
X132588000Y-120396000D02*
X132588000Y-117856000D01*
X131318000Y-117576000D02*
X129768000Y-117576000D01*
X129768000Y-117576000D02*
X129768000Y-120676000D01*
X155448000Y-120396000D02*
X173228000Y-120396000D01*
X173228000Y-120396000D02*
X173228000Y-117856000D01*
X173228000Y-117856000D02*
X155448000Y-117856000D01*
X152628000Y-120676000D02*
X154178000Y-120676000D01*
X155448000Y-120396000D02*
X155448000Y-117856000D01*
X154178000Y-117576000D02*
X152628000Y-117576000D01*
X152628000Y-117576000D02*
X152628000Y-120676000D01*
X178308000Y-120396000D02*
X196088000Y-120396000D01*
X196088000Y-120396000D02*
X196088000Y-117856000D01*
X196088000Y-117856000D02*
X178308000Y-117856000D01*
X175488000Y-120676000D02*
X177038000Y-120676000D01*
X178308000Y-120396000D02*
X178308000Y-117856000D01*
X177038000Y-117576000D02*
X175488000Y-117576000D01*
X175488000Y-117576000D02*
X175488000Y-120676000D01*
X123444000Y-72136000D02*
X146304000Y-72136000D01*
X146304000Y-72136000D02*
X146304000Y-69596000D01*
X146304000Y-69596000D02*
X123444000Y-69596000D01*
X120624000Y-72416000D02*
X122174000Y-72416000D01*
X123444000Y-72136000D02*
X123444000Y-69596000D01*
X122174000Y-69316000D02*
X120624000Y-69316000D01*
X120624000Y-69316000D02*
X120624000Y-72416000D01*
X150368000Y-72136000D02*
X168148000Y-72136000D01*
X168148000Y-72136000D02*
X168148000Y-69596000D01*
X168148000Y-69596000D02*
X150368000Y-69596000D01*
X147548000Y-72416000D02*
X149098000Y-72416000D01*
X150368000Y-72136000D02*
X150368000Y-69596000D01*
X149098000Y-69316000D02*
X147548000Y-69316000D01*
X147548000Y-69316000D02*
X147548000Y-72416000D01*
X173228000Y-72136000D02*
X191008000Y-72136000D01*
X191008000Y-72136000D02*
X191008000Y-69596000D01*
X191008000Y-69596000D02*
X173228000Y-69596000D01*
X170408000Y-72416000D02*
X171958000Y-72416000D01*
X173228000Y-72136000D02*
X173228000Y-69596000D01*
X171958000Y-69316000D02*
X170408000Y-69316000D01*
X170408000Y-69316000D02*
X170408000Y-72416000D01*
X119634000Y-119126000D02*
G75*
G03X119634000Y-119126000I-2286000J0D01*
G01*
X171704000Y-114046000D02*
G75*
G03X171704000Y-114046000I-2286000J0D01*
G01*
X202184000Y-119126000D02*
G75*
G03X202184000Y-119126000I-2286000J0D01*
G01*
X120904000Y-70866000D02*
G75*
G03X120904000Y-70866000I-2286000J0D01*
G01*
X171704000Y-86106000D02*
G75*
G03X171704000Y-86106000I-2286000J0D01*
G01*
X195834000Y-70866000D02*
G75*
G03X195834000Y-70866000I-2286000J0D01*
G01*
D13*
X132755400Y-102302800D02*
X128915400Y-102302800D01*
X128915400Y-102302800D02*
X128915400Y-110142800D01*
X128915400Y-110142800D02*
X132755400Y-110142800D01*
X132755400Y-110142800D02*
X132755400Y-102302800D01*
X130835400Y-100042800D02*
X130835400Y-102302800D01*
X130835400Y-112402800D02*
X130835400Y-110142800D01*
X132755400Y-103562800D02*
X128915400Y-103562800D01*
X132755400Y-103682800D02*
X128915400Y-103682800D01*
X132755400Y-103442800D02*
X128915400Y-103442800D01*
X120179200Y-103924600D02*
X120179200Y-107884600D01*
X120179200Y-93944600D02*
X120179200Y-101814600D01*
X120179200Y-107884600D02*
X104249200Y-107884600D01*
X104249200Y-87884600D02*
X104249200Y-107884600D01*
X120179200Y-87884600D02*
X104249200Y-87884600D01*
X120179200Y-87884600D02*
X120179200Y-91844600D01*
X128939600Y-80788200D02*
X123739600Y-80788200D01*
X128939600Y-88468200D02*
X128939600Y-80788200D01*
X123739600Y-91068200D02*
X123739600Y-80788200D01*
X128939600Y-88468200D02*
X126339600Y-88468200D01*
X126339600Y-88468200D02*
X126339600Y-91068200D01*
X126339600Y-91068200D02*
X123739600Y-91068200D01*
X128939600Y-89738200D02*
X128939600Y-91068200D01*
X128939600Y-91068200D02*
X127609600Y-91068200D01*
X143214400Y-80737400D02*
X138014400Y-80737400D01*
X143214400Y-88417400D02*
X143214400Y-80737400D01*
X138014400Y-91017400D02*
X138014400Y-80737400D01*
X143214400Y-88417400D02*
X140614400Y-88417400D01*
X140614400Y-88417400D02*
X140614400Y-91017400D01*
X140614400Y-91017400D02*
X138014400Y-91017400D01*
X143214400Y-89687400D02*
X143214400Y-91017400D01*
X143214400Y-91017400D02*
X141884400Y-91017400D01*
X157540000Y-80712000D02*
X152340000Y-80712000D01*
X157540000Y-88392000D02*
X157540000Y-80712000D01*
X152340000Y-90992000D02*
X152340000Y-80712000D01*
X157540000Y-88392000D02*
X154940000Y-88392000D01*
X154940000Y-88392000D02*
X154940000Y-90992000D01*
X154940000Y-90992000D02*
X152340000Y-90992000D01*
X157540000Y-89662000D02*
X157540000Y-90992000D01*
X157540000Y-90992000D02*
X156210000Y-90992000D01*
X178705200Y-88096400D02*
X183905200Y-88096400D01*
X178705200Y-80416400D02*
X178705200Y-88096400D01*
X183905200Y-77816400D02*
X183905200Y-88096400D01*
X178705200Y-80416400D02*
X181305200Y-80416400D01*
X181305200Y-80416400D02*
X181305200Y-77816400D01*
X181305200Y-77816400D02*
X183905200Y-77816400D01*
X178705200Y-79146400D02*
X178705200Y-77816400D01*
X178705200Y-77816400D02*
X180035200Y-77816400D01*
X178654400Y-100136000D02*
X183854400Y-100136000D01*
X178654400Y-92456000D02*
X178654400Y-100136000D01*
X183854400Y-89856000D02*
X183854400Y-100136000D01*
X178654400Y-92456000D02*
X181254400Y-92456000D01*
X181254400Y-92456000D02*
X181254400Y-89856000D01*
X181254400Y-89856000D02*
X183854400Y-89856000D01*
X178654400Y-91186000D02*
X178654400Y-89856000D01*
X178654400Y-89856000D02*
X179984400Y-89856000D01*
X178629000Y-112074000D02*
X183829000Y-112074000D01*
X178629000Y-104394000D02*
X178629000Y-112074000D01*
X183829000Y-101794000D02*
X183829000Y-112074000D01*
X178629000Y-104394000D02*
X181229000Y-104394000D01*
X181229000Y-104394000D02*
X181229000Y-101794000D01*
X181229000Y-101794000D02*
X183829000Y-101794000D01*
X178629000Y-103124000D02*
X178629000Y-101794000D01*
X178629000Y-101794000D02*
X179959000Y-101794000D01*
X135086400Y-91042800D02*
X133756400Y-91042800D01*
X135086400Y-89712800D02*
X135086400Y-91042800D01*
X132486400Y-91042800D02*
X129886400Y-91042800D01*
X132486400Y-88442800D02*
X132486400Y-91042800D01*
X135086400Y-88442800D02*
X132486400Y-88442800D01*
X129886400Y-91042800D02*
X129886400Y-80762800D01*
X135086400Y-88442800D02*
X135086400Y-80762800D01*
X135086400Y-80762800D02*
X129886400Y-80762800D01*
X149361200Y-91017400D02*
X148031200Y-91017400D01*
X149361200Y-89687400D02*
X149361200Y-91017400D01*
X146761200Y-91017400D02*
X144161200Y-91017400D01*
X146761200Y-88417400D02*
X146761200Y-91017400D01*
X149361200Y-88417400D02*
X146761200Y-88417400D01*
X144161200Y-91017400D02*
X144161200Y-80737400D01*
X149361200Y-88417400D02*
X149361200Y-80737400D01*
X149361200Y-80737400D02*
X144161200Y-80737400D01*
X163712200Y-90966600D02*
X162382200Y-90966600D01*
X163712200Y-89636600D02*
X163712200Y-90966600D01*
X161112200Y-90966600D02*
X158512200Y-90966600D01*
X161112200Y-88366600D02*
X161112200Y-90966600D01*
X163712200Y-88366600D02*
X161112200Y-88366600D01*
X158512200Y-90966600D02*
X158512200Y-80686600D01*
X163712200Y-88366600D02*
X163712200Y-80686600D01*
X163712200Y-80686600D02*
X158512200Y-80686600D01*
X184852000Y-77816400D02*
X186182000Y-77816400D01*
X184852000Y-79146400D02*
X184852000Y-77816400D01*
X187452000Y-77816400D02*
X190052000Y-77816400D01*
X187452000Y-80416400D02*
X187452000Y-77816400D01*
X184852000Y-80416400D02*
X187452000Y-80416400D01*
X190052000Y-77816400D02*
X190052000Y-88096400D01*
X184852000Y-80416400D02*
X184852000Y-88096400D01*
X184852000Y-88096400D02*
X190052000Y-88096400D01*
X184801200Y-89856000D02*
X186131200Y-89856000D01*
X184801200Y-91186000D02*
X184801200Y-89856000D01*
X187401200Y-89856000D02*
X190001200Y-89856000D01*
X187401200Y-92456000D02*
X187401200Y-89856000D01*
X184801200Y-92456000D02*
X187401200Y-92456000D01*
X190001200Y-89856000D02*
X190001200Y-100136000D01*
X184801200Y-92456000D02*
X184801200Y-100136000D01*
X184801200Y-100136000D02*
X190001200Y-100136000D01*
X184801200Y-101794000D02*
X186131200Y-101794000D01*
X184801200Y-103124000D02*
X184801200Y-101794000D01*
X187401200Y-101794000D02*
X190001200Y-101794000D01*
X187401200Y-104394000D02*
X187401200Y-101794000D01*
X184801200Y-104394000D02*
X187401200Y-104394000D01*
X190001200Y-101794000D02*
X190001200Y-112074000D01*
X184801200Y-104394000D02*
X184801200Y-112074000D01*
X184801200Y-112074000D02*
X190001200Y-112074000D01*
X156073800Y-104428600D02*
X158733800Y-104428600D01*
X156073800Y-101828600D02*
X156073800Y-104428600D01*
X158733800Y-101828600D02*
X158733800Y-104428600D01*
X156073800Y-101828600D02*
X158733800Y-101828600D01*
X156073800Y-100558600D02*
X156073800Y-99228600D01*
X156073800Y-99228600D02*
X157403800Y-99228600D01*
D10*
X104296200Y-120067000D02*
X104296200Y-109467000D01*
X104296200Y-120067000D02*
X113296200Y-120067000D01*
X104296200Y-109467000D02*
X112296200Y-109467000D01*
X112296200Y-109467000D02*
X113296200Y-109467000D01*
X113296200Y-109467000D02*
X113296200Y-120067000D01*
D13*
X126862200Y-103063600D02*
X124242200Y-103063600D01*
X124242200Y-103063600D02*
X124242200Y-109483600D01*
X124242200Y-109483600D02*
X126862200Y-109483600D01*
X126862200Y-109483600D02*
X126862200Y-103063600D01*
X125552200Y-99633600D02*
X125552200Y-103063600D01*
X125552200Y-112913600D02*
X125552200Y-109483600D01*
X149265000Y-103114400D02*
X146645000Y-103114400D01*
X146645000Y-103114400D02*
X146645000Y-109534400D01*
X146645000Y-109534400D02*
X149265000Y-109534400D01*
X149265000Y-109534400D02*
X149265000Y-103114400D01*
X147955000Y-99684400D02*
X147955000Y-103114400D01*
X147955000Y-112964400D02*
X147955000Y-109534400D01*
X152044400Y-99633600D02*
X152044400Y-103063600D01*
X152044400Y-112913600D02*
X152044400Y-109483600D01*
X150734400Y-103063600D02*
X150734400Y-109483600D01*
X153354400Y-103063600D02*
X150734400Y-103063600D01*
X153354400Y-109483600D02*
X153354400Y-103063600D01*
X150734400Y-109483600D02*
X153354400Y-109483600D01*
X140242800Y-100803400D02*
G75*
G02X138242800Y-100803400I-1000000J0D01*
G01*
X138242800Y-100803400D02*
X136992800Y-100803400D01*
X136992800Y-100803400D02*
X136992800Y-111083400D01*
X136992800Y-111083400D02*
X141492800Y-111083400D01*
X141492800Y-111083400D02*
X141492800Y-100803400D01*
X141492800Y-100803400D02*
X140242800Y-100803400D01*
D10*
X195016380Y-93194095D02*
X194016380Y-93194095D01*
X194016380Y-92813142D01*
X194064000Y-92717904D01*
X194111619Y-92670285D01*
X194206857Y-92622666D01*
X194349714Y-92622666D01*
X194444952Y-92670285D01*
X194492571Y-92717904D01*
X194540190Y-92813142D01*
X194540190Y-93194095D01*
X195016380Y-91670285D02*
X195016380Y-92241714D01*
X195016380Y-91956000D02*
X194016380Y-91956000D01*
X194159238Y-92051238D01*
X194254476Y-92146476D01*
X194302095Y-92241714D01*
X139469904Y-116784380D02*
X139469904Y-115784380D01*
X139850857Y-115784380D01*
X139946095Y-115832000D01*
X139993714Y-115879619D01*
X140041333Y-115974857D01*
X140041333Y-116117714D01*
X139993714Y-116212952D01*
X139946095Y-116260571D01*
X139850857Y-116308190D01*
X139469904Y-116308190D01*
X140422285Y-115879619D02*
X140469904Y-115832000D01*
X140565142Y-115784380D01*
X140803238Y-115784380D01*
X140898476Y-115832000D01*
X140946095Y-115879619D01*
X140993714Y-115974857D01*
X140993714Y-116070095D01*
X140946095Y-116212952D01*
X140374666Y-116784380D01*
X140993714Y-116784380D01*
X162329904Y-117038380D02*
X162329904Y-116038380D01*
X162710857Y-116038380D01*
X162806095Y-116086000D01*
X162853714Y-116133619D01*
X162901333Y-116228857D01*
X162901333Y-116371714D01*
X162853714Y-116466952D01*
X162806095Y-116514571D01*
X162710857Y-116562190D01*
X162329904Y-116562190D01*
X163234666Y-116038380D02*
X163853714Y-116038380D01*
X163520380Y-116419333D01*
X163663238Y-116419333D01*
X163758476Y-116466952D01*
X163806095Y-116514571D01*
X163853714Y-116609809D01*
X163853714Y-116847904D01*
X163806095Y-116943142D01*
X163758476Y-116990761D01*
X163663238Y-117038380D01*
X163377523Y-117038380D01*
X163282285Y-116990761D01*
X163234666Y-116943142D01*
X185189904Y-116784380D02*
X185189904Y-115784380D01*
X185570857Y-115784380D01*
X185666095Y-115832000D01*
X185713714Y-115879619D01*
X185761333Y-115974857D01*
X185761333Y-116117714D01*
X185713714Y-116212952D01*
X185666095Y-116260571D01*
X185570857Y-116308190D01*
X185189904Y-116308190D01*
X186618476Y-116117714D02*
X186618476Y-116784380D01*
X186380380Y-115736761D02*
X186142285Y-116451047D01*
X186761333Y-116451047D01*
X132865904Y-74112380D02*
X132865904Y-73112380D01*
X133246857Y-73112380D01*
X133342095Y-73160000D01*
X133389714Y-73207619D01*
X133437333Y-73302857D01*
X133437333Y-73445714D01*
X133389714Y-73540952D01*
X133342095Y-73588571D01*
X133246857Y-73636190D01*
X132865904Y-73636190D01*
X134342095Y-73112380D02*
X133865904Y-73112380D01*
X133818285Y-73588571D01*
X133865904Y-73540952D01*
X133961142Y-73493333D01*
X134199238Y-73493333D01*
X134294476Y-73540952D01*
X134342095Y-73588571D01*
X134389714Y-73683809D01*
X134389714Y-73921904D01*
X134342095Y-74017142D01*
X134294476Y-74064761D01*
X134199238Y-74112380D01*
X133961142Y-74112380D01*
X133865904Y-74064761D01*
X133818285Y-74017142D01*
X157249904Y-74112380D02*
X157249904Y-73112380D01*
X157630857Y-73112380D01*
X157726095Y-73160000D01*
X157773714Y-73207619D01*
X157821333Y-73302857D01*
X157821333Y-73445714D01*
X157773714Y-73540952D01*
X157726095Y-73588571D01*
X157630857Y-73636190D01*
X157249904Y-73636190D01*
X158678476Y-73112380D02*
X158488000Y-73112380D01*
X158392761Y-73160000D01*
X158345142Y-73207619D01*
X158249904Y-73350476D01*
X158202285Y-73540952D01*
X158202285Y-73921904D01*
X158249904Y-74017142D01*
X158297523Y-74064761D01*
X158392761Y-74112380D01*
X158583238Y-74112380D01*
X158678476Y-74064761D01*
X158726095Y-74017142D01*
X158773714Y-73921904D01*
X158773714Y-73683809D01*
X158726095Y-73588571D01*
X158678476Y-73540952D01*
X158583238Y-73493333D01*
X158392761Y-73493333D01*
X158297523Y-73540952D01*
X158249904Y-73588571D01*
X158202285Y-73683809D01*
X180109904Y-74112380D02*
X180109904Y-73112380D01*
X180490857Y-73112380D01*
X180586095Y-73160000D01*
X180633714Y-73207619D01*
X180681333Y-73302857D01*
X180681333Y-73445714D01*
X180633714Y-73540952D01*
X180586095Y-73588571D01*
X180490857Y-73636190D01*
X180109904Y-73636190D01*
X181014666Y-73112380D02*
X181681333Y-73112380D01*
X181252761Y-74112380D01*
X129966980Y-101982495D02*
X128966980Y-101982495D01*
X128966980Y-101744400D01*
X129014600Y-101601542D01*
X129109838Y-101506304D01*
X129205076Y-101458685D01*
X129395552Y-101411066D01*
X129538409Y-101411066D01*
X129728885Y-101458685D01*
X129824123Y-101506304D01*
X129919361Y-101601542D01*
X129966980Y-101744400D01*
X129966980Y-101982495D01*
X129966980Y-100458685D02*
X129966980Y-101030114D01*
X129966980Y-100744400D02*
X128966980Y-100744400D01*
X129109838Y-100839638D01*
X129205076Y-100934876D01*
X129252695Y-101030114D01*
X128367780Y-107889466D02*
X128367780Y-108460895D01*
X128367780Y-108175180D02*
X127367780Y-108175180D01*
X127510638Y-108270419D01*
X127605876Y-108365657D01*
X127653495Y-108460895D01*
X128367780Y-107460895D02*
X127367780Y-107460895D01*
X128367780Y-106889466D01*
X127367780Y-106889466D01*
X128367780Y-106365657D02*
X128367780Y-106175180D01*
X128320161Y-106079942D01*
X128272542Y-106032323D01*
X128129685Y-105937085D01*
X127939209Y-105889466D01*
X127558257Y-105889466D01*
X127463019Y-105937085D01*
X127415400Y-105984704D01*
X127367780Y-106079942D01*
X127367780Y-106270419D01*
X127415400Y-106365657D01*
X127463019Y-106413276D01*
X127558257Y-106460895D01*
X127796352Y-106460895D01*
X127891590Y-106413276D01*
X127939209Y-106365657D01*
X127986828Y-106270419D01*
X127986828Y-106079942D01*
X127939209Y-105984704D01*
X127891590Y-105937085D01*
X127796352Y-105889466D01*
X128367780Y-104937085D02*
X128367780Y-105508514D01*
X128367780Y-105222800D02*
X127367780Y-105222800D01*
X127510638Y-105318038D01*
X127605876Y-105413276D01*
X127653495Y-105508514D01*
X127701114Y-104079942D02*
X128367780Y-104079942D01*
X127320161Y-104318038D02*
X128034447Y-104556133D01*
X128034447Y-103937085D01*
X133487780Y-98864704D02*
X132487780Y-98864704D01*
X133487780Y-98293276D02*
X132916352Y-98721847D01*
X132487780Y-98293276D02*
X133059209Y-98864704D01*
X118832380Y-86591733D02*
X119546666Y-86591733D01*
X119689523Y-86639352D01*
X119784761Y-86734590D01*
X119832380Y-86877447D01*
X119832380Y-86972685D01*
X119832380Y-85591733D02*
X119832380Y-86163161D01*
X119832380Y-85877447D02*
X118832380Y-85877447D01*
X118975238Y-85972685D01*
X119070476Y-86067923D01*
X119118095Y-86163161D01*
X123440866Y-91679780D02*
X123440866Y-92394066D01*
X123393247Y-92536923D01*
X123298009Y-92632161D01*
X123155152Y-92679780D01*
X123059914Y-92679780D01*
X123869438Y-91775019D02*
X123917057Y-91727400D01*
X124012295Y-91679780D01*
X124250390Y-91679780D01*
X124345628Y-91727400D01*
X124393247Y-91775019D01*
X124440866Y-91870257D01*
X124440866Y-91965495D01*
X124393247Y-92108352D01*
X123821819Y-92679780D01*
X124440866Y-92679780D01*
X124244361Y-80192961D02*
X124387219Y-80240580D01*
X124625314Y-80240580D01*
X124720552Y-80192961D01*
X124768171Y-80145342D01*
X124815790Y-80050104D01*
X124815790Y-79954866D01*
X124768171Y-79859628D01*
X124720552Y-79812009D01*
X124625314Y-79764390D01*
X124434838Y-79716771D01*
X124339600Y-79669152D01*
X124291980Y-79621533D01*
X124244361Y-79526295D01*
X124244361Y-79431057D01*
X124291980Y-79335819D01*
X124339600Y-79288200D01*
X124434838Y-79240580D01*
X124672933Y-79240580D01*
X124815790Y-79288200D01*
X125101504Y-79240580D02*
X125672933Y-79240580D01*
X125387219Y-80240580D02*
X125387219Y-79240580D01*
X126006266Y-79716771D02*
X126339600Y-79716771D01*
X126482457Y-80240580D02*
X126006266Y-80240580D01*
X126006266Y-79240580D01*
X126482457Y-79240580D01*
X126911028Y-80240580D02*
X126911028Y-79240580D01*
X127291980Y-79240580D01*
X127387219Y-79288200D01*
X127434838Y-79335819D01*
X127482457Y-79431057D01*
X127482457Y-79573914D01*
X127434838Y-79669152D01*
X127387219Y-79716771D01*
X127291980Y-79764390D01*
X126911028Y-79764390D01*
X128434838Y-80240580D02*
X127863409Y-80240580D01*
X128149123Y-80240580D02*
X128149123Y-79240580D01*
X128053885Y-79383438D01*
X127958647Y-79478676D01*
X127863409Y-79526295D01*
X140281066Y-91469780D02*
X140281066Y-92184066D01*
X140233447Y-92326923D01*
X140138209Y-92422161D01*
X139995352Y-92469780D01*
X139900114Y-92469780D01*
X140662019Y-91469780D02*
X141281066Y-91469780D01*
X140947733Y-91850733D01*
X141090590Y-91850733D01*
X141185828Y-91898352D01*
X141233447Y-91945971D01*
X141281066Y-92041209D01*
X141281066Y-92279304D01*
X141233447Y-92374542D01*
X141185828Y-92422161D01*
X141090590Y-92469780D01*
X140804876Y-92469780D01*
X140709638Y-92422161D01*
X140662019Y-92374542D01*
X138519161Y-80142161D02*
X138662019Y-80189780D01*
X138900114Y-80189780D01*
X138995352Y-80142161D01*
X139042971Y-80094542D01*
X139090590Y-79999304D01*
X139090590Y-79904066D01*
X139042971Y-79808828D01*
X138995352Y-79761209D01*
X138900114Y-79713590D01*
X138709638Y-79665971D01*
X138614400Y-79618352D01*
X138566780Y-79570733D01*
X138519161Y-79475495D01*
X138519161Y-79380257D01*
X138566780Y-79285019D01*
X138614400Y-79237400D01*
X138709638Y-79189780D01*
X138947733Y-79189780D01*
X139090590Y-79237400D01*
X139376304Y-79189780D02*
X139947733Y-79189780D01*
X139662019Y-80189780D02*
X139662019Y-79189780D01*
X140281066Y-79665971D02*
X140614400Y-79665971D01*
X140757257Y-80189780D02*
X140281066Y-80189780D01*
X140281066Y-79189780D01*
X140757257Y-79189780D01*
X141185828Y-80189780D02*
X141185828Y-79189780D01*
X141566780Y-79189780D01*
X141662019Y-79237400D01*
X141709638Y-79285019D01*
X141757257Y-79380257D01*
X141757257Y-79523114D01*
X141709638Y-79618352D01*
X141662019Y-79665971D01*
X141566780Y-79713590D01*
X141185828Y-79713590D01*
X142138209Y-79285019D02*
X142185828Y-79237400D01*
X142281066Y-79189780D01*
X142519161Y-79189780D01*
X142614400Y-79237400D01*
X142662019Y-79285019D01*
X142709638Y-79380257D01*
X142709638Y-79475495D01*
X142662019Y-79618352D01*
X142090590Y-80189780D01*
X142709638Y-80189780D01*
X154606666Y-91444380D02*
X154606666Y-92158666D01*
X154559047Y-92301523D01*
X154463809Y-92396761D01*
X154320952Y-92444380D01*
X154225714Y-92444380D01*
X155511428Y-91777714D02*
X155511428Y-92444380D01*
X155273333Y-91396761D02*
X155035238Y-92111047D01*
X155654285Y-92111047D01*
X152844761Y-80116761D02*
X152987619Y-80164380D01*
X153225714Y-80164380D01*
X153320952Y-80116761D01*
X153368571Y-80069142D01*
X153416190Y-79973904D01*
X153416190Y-79878666D01*
X153368571Y-79783428D01*
X153320952Y-79735809D01*
X153225714Y-79688190D01*
X153035238Y-79640571D01*
X152940000Y-79592952D01*
X152892380Y-79545333D01*
X152844761Y-79450095D01*
X152844761Y-79354857D01*
X152892380Y-79259619D01*
X152940000Y-79212000D01*
X153035238Y-79164380D01*
X153273333Y-79164380D01*
X153416190Y-79212000D01*
X153701904Y-79164380D02*
X154273333Y-79164380D01*
X153987619Y-80164380D02*
X153987619Y-79164380D01*
X154606666Y-79640571D02*
X154940000Y-79640571D01*
X155082857Y-80164380D02*
X154606666Y-80164380D01*
X154606666Y-79164380D01*
X155082857Y-79164380D01*
X155511428Y-80164380D02*
X155511428Y-79164380D01*
X155892380Y-79164380D01*
X155987619Y-79212000D01*
X156035238Y-79259619D01*
X156082857Y-79354857D01*
X156082857Y-79497714D01*
X156035238Y-79592952D01*
X155987619Y-79640571D01*
X155892380Y-79688190D01*
X155511428Y-79688190D01*
X156416190Y-79164380D02*
X157035238Y-79164380D01*
X156701904Y-79545333D01*
X156844761Y-79545333D01*
X156940000Y-79592952D01*
X156987619Y-79640571D01*
X157035238Y-79735809D01*
X157035238Y-79973904D01*
X156987619Y-80069142D01*
X156940000Y-80116761D01*
X156844761Y-80164380D01*
X156559047Y-80164380D01*
X156463809Y-80116761D01*
X156416190Y-80069142D01*
X176896780Y-78920933D02*
X177611066Y-78920933D01*
X177753923Y-78968552D01*
X177849161Y-79063790D01*
X177896780Y-79206647D01*
X177896780Y-79301885D01*
X176896780Y-77968552D02*
X176896780Y-78444742D01*
X177372971Y-78492361D01*
X177325352Y-78444742D01*
X177277733Y-78349504D01*
X177277733Y-78111409D01*
X177325352Y-78016171D01*
X177372971Y-77968552D01*
X177468209Y-77920933D01*
X177706304Y-77920933D01*
X177801542Y-77968552D01*
X177849161Y-78016171D01*
X177896780Y-78111409D01*
X177896780Y-78349504D01*
X177849161Y-78444742D01*
X177801542Y-78492361D01*
X177849161Y-88277438D02*
X177896780Y-88134580D01*
X177896780Y-87896485D01*
X177849161Y-87801247D01*
X177801542Y-87753628D01*
X177706304Y-87706009D01*
X177611066Y-87706009D01*
X177515828Y-87753628D01*
X177468209Y-87801247D01*
X177420590Y-87896485D01*
X177372971Y-88086961D01*
X177325352Y-88182200D01*
X177277733Y-88229819D01*
X177182495Y-88277438D01*
X177087257Y-88277438D01*
X176992019Y-88229819D01*
X176944400Y-88182200D01*
X176896780Y-88086961D01*
X176896780Y-87848866D01*
X176944400Y-87706009D01*
X176896780Y-87420295D02*
X176896780Y-86848866D01*
X177896780Y-87134580D02*
X176896780Y-87134580D01*
X177372971Y-86515533D02*
X177372971Y-86182200D01*
X177896780Y-86039342D02*
X177896780Y-86515533D01*
X176896780Y-86515533D01*
X176896780Y-86039342D01*
X177896780Y-85610771D02*
X176896780Y-85610771D01*
X176896780Y-85229819D01*
X176944400Y-85134580D01*
X176992019Y-85086961D01*
X177087257Y-85039342D01*
X177230114Y-85039342D01*
X177325352Y-85086961D01*
X177372971Y-85134580D01*
X177420590Y-85229819D01*
X177420590Y-85610771D01*
X177230114Y-84182200D02*
X177896780Y-84182200D01*
X176849161Y-84420295D02*
X177563447Y-84658390D01*
X177563447Y-84039342D01*
X176871380Y-90757333D02*
X177585666Y-90757333D01*
X177728523Y-90804952D01*
X177823761Y-90900190D01*
X177871380Y-91043047D01*
X177871380Y-91138285D01*
X176871380Y-89852571D02*
X176871380Y-90043047D01*
X176919000Y-90138285D01*
X176966619Y-90185904D01*
X177109476Y-90281142D01*
X177299952Y-90328761D01*
X177680904Y-90328761D01*
X177776142Y-90281142D01*
X177823761Y-90233523D01*
X177871380Y-90138285D01*
X177871380Y-89947809D01*
X177823761Y-89852571D01*
X177776142Y-89804952D01*
X177680904Y-89757333D01*
X177442809Y-89757333D01*
X177347571Y-89804952D01*
X177299952Y-89852571D01*
X177252333Y-89947809D01*
X177252333Y-90138285D01*
X177299952Y-90233523D01*
X177347571Y-90281142D01*
X177442809Y-90328761D01*
X177722161Y-100291638D02*
X177769780Y-100148780D01*
X177769780Y-99910685D01*
X177722161Y-99815447D01*
X177674542Y-99767828D01*
X177579304Y-99720209D01*
X177484066Y-99720209D01*
X177388828Y-99767828D01*
X177341209Y-99815447D01*
X177293590Y-99910685D01*
X177245971Y-100101161D01*
X177198352Y-100196400D01*
X177150733Y-100244019D01*
X177055495Y-100291638D01*
X176960257Y-100291638D01*
X176865019Y-100244019D01*
X176817400Y-100196400D01*
X176769780Y-100101161D01*
X176769780Y-99863066D01*
X176817400Y-99720209D01*
X176769780Y-99434495D02*
X176769780Y-98863066D01*
X177769780Y-99148780D02*
X176769780Y-99148780D01*
X177245971Y-98529733D02*
X177245971Y-98196400D01*
X177769780Y-98053542D02*
X177769780Y-98529733D01*
X176769780Y-98529733D01*
X176769780Y-98053542D01*
X177769780Y-97624971D02*
X176769780Y-97624971D01*
X176769780Y-97244019D01*
X176817400Y-97148780D01*
X176865019Y-97101161D01*
X176960257Y-97053542D01*
X177103114Y-97053542D01*
X177198352Y-97101161D01*
X177245971Y-97148780D01*
X177293590Y-97244019D01*
X177293590Y-97624971D01*
X176769780Y-96148780D02*
X176769780Y-96624971D01*
X177245971Y-96672590D01*
X177198352Y-96624971D01*
X177150733Y-96529733D01*
X177150733Y-96291638D01*
X177198352Y-96196400D01*
X177245971Y-96148780D01*
X177341209Y-96101161D01*
X177579304Y-96101161D01*
X177674542Y-96148780D01*
X177722161Y-96196400D01*
X177769780Y-96291638D01*
X177769780Y-96529733D01*
X177722161Y-96624971D01*
X177674542Y-96672590D01*
X176922180Y-102644533D02*
X177636466Y-102644533D01*
X177779323Y-102692152D01*
X177874561Y-102787390D01*
X177922180Y-102930247D01*
X177922180Y-103025485D01*
X176922180Y-102263580D02*
X176922180Y-101596914D01*
X177922180Y-102025485D01*
X177849161Y-111442238D02*
X177896780Y-111299380D01*
X177896780Y-111061285D01*
X177849161Y-110966047D01*
X177801542Y-110918428D01*
X177706304Y-110870809D01*
X177611066Y-110870809D01*
X177515828Y-110918428D01*
X177468209Y-110966047D01*
X177420590Y-111061285D01*
X177372971Y-111251761D01*
X177325352Y-111347000D01*
X177277733Y-111394619D01*
X177182495Y-111442238D01*
X177087257Y-111442238D01*
X176992019Y-111394619D01*
X176944400Y-111347000D01*
X176896780Y-111251761D01*
X176896780Y-111013666D01*
X176944400Y-110870809D01*
X176896780Y-110585095D02*
X176896780Y-110013666D01*
X177896780Y-110299380D02*
X176896780Y-110299380D01*
X177372971Y-109680333D02*
X177372971Y-109347000D01*
X177896780Y-109204142D02*
X177896780Y-109680333D01*
X176896780Y-109680333D01*
X176896780Y-109204142D01*
X177896780Y-108775571D02*
X176896780Y-108775571D01*
X176896780Y-108394619D01*
X176944400Y-108299380D01*
X176992019Y-108251761D01*
X177087257Y-108204142D01*
X177230114Y-108204142D01*
X177325352Y-108251761D01*
X177372971Y-108299380D01*
X177420590Y-108394619D01*
X177420590Y-108775571D01*
X176896780Y-107347000D02*
X176896780Y-107537476D01*
X176944400Y-107632714D01*
X176992019Y-107680333D01*
X177134876Y-107775571D01*
X177325352Y-107823190D01*
X177706304Y-107823190D01*
X177801542Y-107775571D01*
X177849161Y-107727952D01*
X177896780Y-107632714D01*
X177896780Y-107442238D01*
X177849161Y-107347000D01*
X177801542Y-107299380D01*
X177706304Y-107251761D01*
X177468209Y-107251761D01*
X177372971Y-107299380D01*
X177325352Y-107347000D01*
X177277733Y-107442238D01*
X177277733Y-107632714D01*
X177325352Y-107727952D01*
X177372971Y-107775571D01*
X177468209Y-107823190D01*
X134896266Y-91679780D02*
X134896266Y-92394066D01*
X134848647Y-92536923D01*
X134753409Y-92632161D01*
X134610552Y-92679780D01*
X134515314Y-92679780D01*
X135515314Y-92108352D02*
X135420076Y-92060733D01*
X135372457Y-92013114D01*
X135324838Y-91917876D01*
X135324838Y-91870257D01*
X135372457Y-91775019D01*
X135420076Y-91727400D01*
X135515314Y-91679780D01*
X135705790Y-91679780D01*
X135801028Y-91727400D01*
X135848647Y-91775019D01*
X135896266Y-91870257D01*
X135896266Y-91917876D01*
X135848647Y-92013114D01*
X135801028Y-92060733D01*
X135705790Y-92108352D01*
X135515314Y-92108352D01*
X135420076Y-92155971D01*
X135372457Y-92203590D01*
X135324838Y-92298828D01*
X135324838Y-92489304D01*
X135372457Y-92584542D01*
X135420076Y-92632161D01*
X135515314Y-92679780D01*
X135705790Y-92679780D01*
X135801028Y-92632161D01*
X135848647Y-92584542D01*
X135896266Y-92489304D01*
X135896266Y-92298828D01*
X135848647Y-92203590D01*
X135801028Y-92155971D01*
X135705790Y-92108352D01*
X131010209Y-80215180D02*
X131010209Y-79215180D01*
X131248304Y-79215180D01*
X131391161Y-79262800D01*
X131486400Y-79358038D01*
X131534019Y-79453276D01*
X131581638Y-79643752D01*
X131581638Y-79786609D01*
X131534019Y-79977085D01*
X131486400Y-80072323D01*
X131391161Y-80167561D01*
X131248304Y-80215180D01*
X131010209Y-80215180D01*
X132010209Y-80215180D02*
X132010209Y-79215180D01*
X133057828Y-80215180D02*
X132724495Y-79738990D01*
X132486400Y-80215180D02*
X132486400Y-79215180D01*
X132867352Y-79215180D01*
X132962590Y-79262800D01*
X133010209Y-79310419D01*
X133057828Y-79405657D01*
X133057828Y-79548514D01*
X133010209Y-79643752D01*
X132962590Y-79691371D01*
X132867352Y-79738990D01*
X132486400Y-79738990D01*
X134010209Y-80215180D02*
X133438780Y-80215180D01*
X133724495Y-80215180D02*
X133724495Y-79215180D01*
X133629257Y-79358038D01*
X133534019Y-79453276D01*
X133438780Y-79500895D01*
X146427866Y-91469780D02*
X146427866Y-92184066D01*
X146380247Y-92326923D01*
X146285009Y-92422161D01*
X146142152Y-92469780D01*
X146046914Y-92469780D01*
X146951676Y-92469780D02*
X147142152Y-92469780D01*
X147237390Y-92422161D01*
X147285009Y-92374542D01*
X147380247Y-92231685D01*
X147427866Y-92041209D01*
X147427866Y-91660257D01*
X147380247Y-91565019D01*
X147332628Y-91517400D01*
X147237390Y-91469780D01*
X147046914Y-91469780D01*
X146951676Y-91517400D01*
X146904057Y-91565019D01*
X146856438Y-91660257D01*
X146856438Y-91898352D01*
X146904057Y-91993590D01*
X146951676Y-92041209D01*
X147046914Y-92088828D01*
X147237390Y-92088828D01*
X147332628Y-92041209D01*
X147380247Y-91993590D01*
X147427866Y-91898352D01*
X145285009Y-80189780D02*
X145285009Y-79189780D01*
X145523104Y-79189780D01*
X145665961Y-79237400D01*
X145761200Y-79332638D01*
X145808819Y-79427876D01*
X145856438Y-79618352D01*
X145856438Y-79761209D01*
X145808819Y-79951685D01*
X145761200Y-80046923D01*
X145665961Y-80142161D01*
X145523104Y-80189780D01*
X145285009Y-80189780D01*
X146285009Y-80189780D02*
X146285009Y-79189780D01*
X147332628Y-80189780D02*
X146999295Y-79713590D01*
X146761200Y-80189780D02*
X146761200Y-79189780D01*
X147142152Y-79189780D01*
X147237390Y-79237400D01*
X147285009Y-79285019D01*
X147332628Y-79380257D01*
X147332628Y-79523114D01*
X147285009Y-79618352D01*
X147237390Y-79665971D01*
X147142152Y-79713590D01*
X146761200Y-79713590D01*
X147713580Y-79285019D02*
X147761200Y-79237400D01*
X147856438Y-79189780D01*
X148094533Y-79189780D01*
X148189771Y-79237400D01*
X148237390Y-79285019D01*
X148285009Y-79380257D01*
X148285009Y-79475495D01*
X148237390Y-79618352D01*
X147665961Y-80189780D01*
X148285009Y-80189780D01*
X160302676Y-91418980D02*
X160302676Y-92133266D01*
X160255057Y-92276123D01*
X160159819Y-92371361D01*
X160016961Y-92418980D01*
X159921723Y-92418980D01*
X161302676Y-92418980D02*
X160731247Y-92418980D01*
X161016961Y-92418980D02*
X161016961Y-91418980D01*
X160921723Y-91561838D01*
X160826485Y-91657076D01*
X160731247Y-91704695D01*
X161921723Y-91418980D02*
X162016961Y-91418980D01*
X162112200Y-91466600D01*
X162159819Y-91514219D01*
X162207438Y-91609457D01*
X162255057Y-91799933D01*
X162255057Y-92038028D01*
X162207438Y-92228504D01*
X162159819Y-92323742D01*
X162112200Y-92371361D01*
X162016961Y-92418980D01*
X161921723Y-92418980D01*
X161826485Y-92371361D01*
X161778866Y-92323742D01*
X161731247Y-92228504D01*
X161683628Y-92038028D01*
X161683628Y-91799933D01*
X161731247Y-91609457D01*
X161778866Y-91514219D01*
X161826485Y-91466600D01*
X161921723Y-91418980D01*
X159636009Y-80138980D02*
X159636009Y-79138980D01*
X159874104Y-79138980D01*
X160016961Y-79186600D01*
X160112200Y-79281838D01*
X160159819Y-79377076D01*
X160207438Y-79567552D01*
X160207438Y-79710409D01*
X160159819Y-79900885D01*
X160112200Y-79996123D01*
X160016961Y-80091361D01*
X159874104Y-80138980D01*
X159636009Y-80138980D01*
X160636009Y-80138980D02*
X160636009Y-79138980D01*
X161683628Y-80138980D02*
X161350295Y-79662790D01*
X161112200Y-80138980D02*
X161112200Y-79138980D01*
X161493152Y-79138980D01*
X161588390Y-79186600D01*
X161636009Y-79234219D01*
X161683628Y-79329457D01*
X161683628Y-79472314D01*
X161636009Y-79567552D01*
X161588390Y-79615171D01*
X161493152Y-79662790D01*
X161112200Y-79662790D01*
X162016961Y-79138980D02*
X162636009Y-79138980D01*
X162302676Y-79519933D01*
X162445533Y-79519933D01*
X162540771Y-79567552D01*
X162588390Y-79615171D01*
X162636009Y-79710409D01*
X162636009Y-79948504D01*
X162588390Y-80043742D01*
X162540771Y-80091361D01*
X162445533Y-80138980D01*
X162159819Y-80138980D01*
X162064580Y-80091361D01*
X162016961Y-80043742D01*
X190815980Y-79168523D02*
X191530266Y-79168523D01*
X191673123Y-79216142D01*
X191768361Y-79311380D01*
X191815980Y-79454238D01*
X191815980Y-79549476D01*
X191815980Y-78168523D02*
X191815980Y-78739952D01*
X191815980Y-78454238D02*
X190815980Y-78454238D01*
X190958838Y-78549476D01*
X191054076Y-78644714D01*
X191101695Y-78739952D01*
X191815980Y-77216142D02*
X191815980Y-77787571D01*
X191815980Y-77501857D02*
X190815980Y-77501857D01*
X190958838Y-77597095D01*
X191054076Y-77692333D01*
X191101695Y-77787571D01*
X191841380Y-88217190D02*
X190841380Y-88217190D01*
X190841380Y-87979095D01*
X190889000Y-87836238D01*
X190984238Y-87741000D01*
X191079476Y-87693380D01*
X191269952Y-87645761D01*
X191412809Y-87645761D01*
X191603285Y-87693380D01*
X191698523Y-87741000D01*
X191793761Y-87836238D01*
X191841380Y-87979095D01*
X191841380Y-88217190D01*
X191841380Y-87217190D02*
X190841380Y-87217190D01*
X191841380Y-86169571D02*
X191365190Y-86502904D01*
X191841380Y-86741000D02*
X190841380Y-86741000D01*
X190841380Y-86360047D01*
X190889000Y-86264809D01*
X190936619Y-86217190D01*
X191031857Y-86169571D01*
X191174714Y-86169571D01*
X191269952Y-86217190D01*
X191317571Y-86264809D01*
X191365190Y-86360047D01*
X191365190Y-86741000D01*
X191174714Y-85312428D02*
X191841380Y-85312428D01*
X190793761Y-85550523D02*
X191508047Y-85788619D01*
X191508047Y-85169571D01*
X190790580Y-91284323D02*
X191504866Y-91284323D01*
X191647723Y-91331942D01*
X191742961Y-91427180D01*
X191790580Y-91570038D01*
X191790580Y-91665276D01*
X191790580Y-90284323D02*
X191790580Y-90855752D01*
X191790580Y-90570038D02*
X190790580Y-90570038D01*
X190933438Y-90665276D01*
X191028676Y-90760514D01*
X191076295Y-90855752D01*
X190885819Y-89903371D02*
X190838200Y-89855752D01*
X190790580Y-89760514D01*
X190790580Y-89522419D01*
X190838200Y-89427180D01*
X190885819Y-89379561D01*
X190981057Y-89331942D01*
X191076295Y-89331942D01*
X191219152Y-89379561D01*
X191790580Y-89950990D01*
X191790580Y-89331942D01*
X191866780Y-99774190D02*
X190866780Y-99774190D01*
X190866780Y-99536095D01*
X190914400Y-99393238D01*
X191009638Y-99298000D01*
X191104876Y-99250380D01*
X191295352Y-99202761D01*
X191438209Y-99202761D01*
X191628685Y-99250380D01*
X191723923Y-99298000D01*
X191819161Y-99393238D01*
X191866780Y-99536095D01*
X191866780Y-99774190D01*
X191866780Y-98774190D02*
X190866780Y-98774190D01*
X191866780Y-97726571D02*
X191390590Y-98059904D01*
X191866780Y-98298000D02*
X190866780Y-98298000D01*
X190866780Y-97917047D01*
X190914400Y-97821809D01*
X190962019Y-97774190D01*
X191057257Y-97726571D01*
X191200114Y-97726571D01*
X191295352Y-97774190D01*
X191342971Y-97821809D01*
X191390590Y-97917047D01*
X191390590Y-98298000D01*
X190866780Y-96821809D02*
X190866780Y-97298000D01*
X191342971Y-97345619D01*
X191295352Y-97298000D01*
X191247733Y-97202761D01*
X191247733Y-96964666D01*
X191295352Y-96869428D01*
X191342971Y-96821809D01*
X191438209Y-96774190D01*
X191676304Y-96774190D01*
X191771542Y-96821809D01*
X191819161Y-96869428D01*
X191866780Y-96964666D01*
X191866780Y-97202761D01*
X191819161Y-97298000D01*
X191771542Y-97345619D01*
X190815980Y-103501723D02*
X191530266Y-103501723D01*
X191673123Y-103549342D01*
X191768361Y-103644580D01*
X191815980Y-103787438D01*
X191815980Y-103882676D01*
X191815980Y-102501723D02*
X191815980Y-103073152D01*
X191815980Y-102787438D02*
X190815980Y-102787438D01*
X190958838Y-102882676D01*
X191054076Y-102977914D01*
X191101695Y-103073152D01*
X190815980Y-102168390D02*
X190815980Y-101549342D01*
X191196933Y-101882676D01*
X191196933Y-101739819D01*
X191244552Y-101644580D01*
X191292171Y-101596961D01*
X191387409Y-101549342D01*
X191625504Y-101549342D01*
X191720742Y-101596961D01*
X191768361Y-101644580D01*
X191815980Y-101739819D01*
X191815980Y-102025533D01*
X191768361Y-102120771D01*
X191720742Y-102168390D01*
X191714380Y-112347190D02*
X190714380Y-112347190D01*
X190714380Y-112109095D01*
X190762000Y-111966238D01*
X190857238Y-111871000D01*
X190952476Y-111823380D01*
X191142952Y-111775761D01*
X191285809Y-111775761D01*
X191476285Y-111823380D01*
X191571523Y-111871000D01*
X191666761Y-111966238D01*
X191714380Y-112109095D01*
X191714380Y-112347190D01*
X191714380Y-111347190D02*
X190714380Y-111347190D01*
X191714380Y-110299571D02*
X191238190Y-110632904D01*
X191714380Y-110871000D02*
X190714380Y-110871000D01*
X190714380Y-110490047D01*
X190762000Y-110394809D01*
X190809619Y-110347190D01*
X190904857Y-110299571D01*
X191047714Y-110299571D01*
X191142952Y-110347190D01*
X191190571Y-110394809D01*
X191238190Y-110490047D01*
X191238190Y-110871000D01*
X190714380Y-109442428D02*
X190714380Y-109632904D01*
X190762000Y-109728142D01*
X190809619Y-109775761D01*
X190952476Y-109871000D01*
X191142952Y-109918619D01*
X191523904Y-109918619D01*
X191619142Y-109871000D01*
X191666761Y-109823380D01*
X191714380Y-109728142D01*
X191714380Y-109537666D01*
X191666761Y-109442428D01*
X191619142Y-109394809D01*
X191523904Y-109347190D01*
X191285809Y-109347190D01*
X191190571Y-109394809D01*
X191142952Y-109442428D01*
X191095333Y-109537666D01*
X191095333Y-109728142D01*
X191142952Y-109823380D01*
X191190571Y-109871000D01*
X191285809Y-109918619D01*
X156594276Y-97680980D02*
X156594276Y-98395266D01*
X156546657Y-98538123D01*
X156451419Y-98633361D01*
X156308561Y-98680980D01*
X156213323Y-98680980D01*
X157594276Y-98680980D02*
X157022847Y-98680980D01*
X157308561Y-98680980D02*
X157308561Y-97680980D01*
X157213323Y-97823838D01*
X157118085Y-97919076D01*
X157022847Y-97966695D01*
X158451419Y-98014314D02*
X158451419Y-98680980D01*
X158213323Y-97633361D02*
X157975228Y-98347647D01*
X158594276Y-98347647D01*
X105448580Y-115376523D02*
X106162866Y-115376523D01*
X106305723Y-115424142D01*
X106400961Y-115519380D01*
X106448580Y-115662238D01*
X106448580Y-115757476D01*
X106448580Y-114376523D02*
X106448580Y-114947952D01*
X106448580Y-114662238D02*
X105448580Y-114662238D01*
X105591438Y-114757476D01*
X105686676Y-114852714D01*
X105734295Y-114947952D01*
X105448580Y-113471761D02*
X105448580Y-113947952D01*
X105924771Y-113995571D01*
X105877152Y-113947952D01*
X105829533Y-113852714D01*
X105829533Y-113614619D01*
X105877152Y-113519380D01*
X105924771Y-113471761D01*
X106020009Y-113424142D01*
X106258104Y-113424142D01*
X106353342Y-113471761D01*
X106400961Y-113519380D01*
X106448580Y-113614619D01*
X106448580Y-113852714D01*
X106400961Y-113947952D01*
X106353342Y-113995571D01*
X124937780Y-101792066D02*
X124461590Y-102125400D01*
X124937780Y-102363495D02*
X123937780Y-102363495D01*
X123937780Y-101982542D01*
X123985400Y-101887304D01*
X124033019Y-101839685D01*
X124128257Y-101792066D01*
X124271114Y-101792066D01*
X124366352Y-101839685D01*
X124413971Y-101887304D01*
X124461590Y-101982542D01*
X124461590Y-102363495D01*
X124937780Y-100839685D02*
X124937780Y-101411114D01*
X124937780Y-101125400D02*
X123937780Y-101125400D01*
X124080638Y-101220638D01*
X124175876Y-101315876D01*
X124223495Y-101411114D01*
X122789819Y-107511695D02*
X122742200Y-107464076D01*
X122694580Y-107368838D01*
X122694580Y-107130742D01*
X122742200Y-107035504D01*
X122789819Y-106987885D01*
X122885057Y-106940266D01*
X122980295Y-106940266D01*
X123123152Y-106987885D01*
X123694580Y-107559314D01*
X123694580Y-106940266D01*
X122789819Y-106559314D02*
X122742200Y-106511695D01*
X122694580Y-106416457D01*
X122694580Y-106178361D01*
X122742200Y-106083123D01*
X122789819Y-106035504D01*
X122885057Y-105987885D01*
X122980295Y-105987885D01*
X123123152Y-106035504D01*
X123694580Y-106606933D01*
X123694580Y-105987885D01*
X122694580Y-105368838D02*
X122694580Y-105273600D01*
X122742200Y-105178361D01*
X122789819Y-105130742D01*
X122885057Y-105083123D01*
X123075533Y-105035504D01*
X123313628Y-105035504D01*
X123504104Y-105083123D01*
X123599342Y-105130742D01*
X123646961Y-105178361D01*
X123694580Y-105273600D01*
X123694580Y-105368838D01*
X123646961Y-105464076D01*
X123599342Y-105511695D01*
X123504104Y-105559314D01*
X123313628Y-105606933D01*
X123075533Y-105606933D01*
X122885057Y-105559314D01*
X122789819Y-105511695D01*
X122742200Y-105464076D01*
X122694580Y-105368838D01*
X147518380Y-101842866D02*
X147042190Y-102176200D01*
X147518380Y-102414295D02*
X146518380Y-102414295D01*
X146518380Y-102033342D01*
X146566000Y-101938104D01*
X146613619Y-101890485D01*
X146708857Y-101842866D01*
X146851714Y-101842866D01*
X146946952Y-101890485D01*
X146994571Y-101938104D01*
X147042190Y-102033342D01*
X147042190Y-102414295D01*
X146613619Y-101461914D02*
X146566000Y-101414295D01*
X146518380Y-101319057D01*
X146518380Y-101080961D01*
X146566000Y-100985723D01*
X146613619Y-100938104D01*
X146708857Y-100890485D01*
X146804095Y-100890485D01*
X146946952Y-100938104D01*
X147518380Y-101509533D01*
X147518380Y-100890485D01*
X145430714Y-107252971D02*
X146097380Y-107252971D01*
X145049761Y-107491066D02*
X145764047Y-107729161D01*
X145764047Y-107110114D01*
X146002142Y-106729161D02*
X146049761Y-106681542D01*
X146097380Y-106729161D01*
X146049761Y-106776780D01*
X146002142Y-106729161D01*
X146097380Y-106729161D01*
X145097380Y-106348209D02*
X145097380Y-105681542D01*
X146097380Y-106110114D01*
X146097380Y-105300590D02*
X145097380Y-105300590D01*
X145716428Y-105205352D02*
X146097380Y-104919638D01*
X145430714Y-104919638D02*
X145811666Y-105300590D01*
X151455380Y-101665066D02*
X150979190Y-101998400D01*
X151455380Y-102236495D02*
X150455380Y-102236495D01*
X150455380Y-101855542D01*
X150503000Y-101760304D01*
X150550619Y-101712685D01*
X150645857Y-101665066D01*
X150788714Y-101665066D01*
X150883952Y-101712685D01*
X150931571Y-101760304D01*
X150979190Y-101855542D01*
X150979190Y-102236495D01*
X150455380Y-101331733D02*
X150455380Y-100712685D01*
X150836333Y-101046019D01*
X150836333Y-100903161D01*
X150883952Y-100807923D01*
X150931571Y-100760304D01*
X151026809Y-100712685D01*
X151264904Y-100712685D01*
X151360142Y-100760304D01*
X151407761Y-100807923D01*
X151455380Y-100903161D01*
X151455380Y-101188876D01*
X151407761Y-101284114D01*
X151360142Y-101331733D01*
X153902019Y-107511695D02*
X153854400Y-107464076D01*
X153806780Y-107368838D01*
X153806780Y-107130742D01*
X153854400Y-107035504D01*
X153902019Y-106987885D01*
X153997257Y-106940266D01*
X154092495Y-106940266D01*
X154235352Y-106987885D01*
X154806780Y-107559314D01*
X154806780Y-106940266D01*
X153902019Y-106559314D02*
X153854400Y-106511695D01*
X153806780Y-106416457D01*
X153806780Y-106178361D01*
X153854400Y-106083123D01*
X153902019Y-106035504D01*
X153997257Y-105987885D01*
X154092495Y-105987885D01*
X154235352Y-106035504D01*
X154806780Y-106606933D01*
X154806780Y-105987885D01*
X153806780Y-105368838D02*
X153806780Y-105273600D01*
X153854400Y-105178361D01*
X153902019Y-105130742D01*
X153997257Y-105083123D01*
X154187733Y-105035504D01*
X154425828Y-105035504D01*
X154616304Y-105083123D01*
X154711542Y-105130742D01*
X154759161Y-105178361D01*
X154806780Y-105273600D01*
X154806780Y-105368838D01*
X154759161Y-105464076D01*
X154711542Y-105511695D01*
X154616304Y-105559314D01*
X154425828Y-105606933D01*
X154187733Y-105606933D01*
X153997257Y-105559314D01*
X153902019Y-105511695D01*
X153854400Y-105464076D01*
X153806780Y-105368838D01*
X138480895Y-99255780D02*
X138480895Y-100065304D01*
X138528514Y-100160542D01*
X138576133Y-100208161D01*
X138671371Y-100255780D01*
X138861847Y-100255780D01*
X138957085Y-100208161D01*
X139004704Y-100160542D01*
X139052323Y-100065304D01*
X139052323Y-99255780D01*
X140052323Y-100255780D02*
X139480895Y-100255780D01*
X139766609Y-100255780D02*
X139766609Y-99255780D01*
X139671371Y-99398638D01*
X139576133Y-99493876D01*
X139480895Y-99541495D01*
X137480895Y-111535780D02*
X137290419Y-111535780D01*
X137195180Y-111583400D01*
X137147561Y-111631019D01*
X137052323Y-111773876D01*
X137004704Y-111964352D01*
X137004704Y-112345304D01*
X137052323Y-112440542D01*
X137099942Y-112488161D01*
X137195180Y-112535780D01*
X137385657Y-112535780D01*
X137480895Y-112488161D01*
X137528514Y-112440542D01*
X137576133Y-112345304D01*
X137576133Y-112107209D01*
X137528514Y-112011971D01*
X137480895Y-111964352D01*
X137385657Y-111916733D01*
X137195180Y-111916733D01*
X137099942Y-111964352D01*
X137052323Y-112011971D01*
X137004704Y-112107209D01*
X138004704Y-112535780D02*
X138004704Y-111535780D01*
X138576133Y-112535780D01*
X138576133Y-111535780D01*
X139576133Y-112535780D02*
X139004704Y-112535780D01*
X139290419Y-112535780D02*
X139290419Y-111535780D01*
X139195180Y-111678638D01*
X139099942Y-111773876D01*
X139004704Y-111821495D01*
X139909466Y-111535780D02*
X140528514Y-111535780D01*
X140195180Y-111916733D01*
X140338038Y-111916733D01*
X140433276Y-111964352D01*
X140480895Y-112011971D01*
X140528514Y-112107209D01*
X140528514Y-112345304D01*
X140480895Y-112440542D01*
X140433276Y-112488161D01*
X140338038Y-112535780D01*
X140052323Y-112535780D01*
X139957085Y-112488161D01*
X139909466Y-112440542D01*
X141099942Y-111964352D02*
X141004704Y-111916733D01*
X140957085Y-111869114D01*
X140909466Y-111773876D01*
X140909466Y-111726257D01*
X140957085Y-111631019D01*
X141004704Y-111583400D01*
X141099942Y-111535780D01*
X141290419Y-111535780D01*
X141385657Y-111583400D01*
X141433276Y-111631019D01*
X141480895Y-111726257D01*
X141480895Y-111773876D01*
X141433276Y-111869114D01*
X141385657Y-111916733D01*
X141290419Y-111964352D01*
X141099942Y-111964352D01*
X141004704Y-112011971D01*
X140957085Y-112059590D01*
X140909466Y-112154828D01*
X140909466Y-112345304D01*
X140957085Y-112440542D01*
X141004704Y-112488161D01*
X141099942Y-112535780D01*
X141290419Y-112535780D01*
X141385657Y-112488161D01*
X141433276Y-112440542D01*
X141480895Y-112345304D01*
X141480895Y-112154828D01*
X141433276Y-112059590D01*
X141385657Y-112011971D01*
X141290419Y-111964352D01*
M02*
