M48
; DRILL file {KiCad (5.1.0)-1} date 4/26/2019 12:14:05 PM
; FORMAT={-:-/ absolute / inch / decimal}
; #@! TF.CreationDate,2019-04-26T12:14:05-04:00
; #@! TF.GenerationSoftware,Kicad,Pcbnew,(5.1.0)-1
FMAT,2
INCH
T1C0.0315
T2C0.0394
T3C0.0400
T4C0.0472
T5C0.0512
T6C0.1200
%
G90
G05
T1
X4.943Y-3.884
X4.943Y-4.484
X5.332Y-4.021
X5.332Y-4.121
X5.332Y-4.221
X5.332Y-4.321
X5.632Y-4.021
X5.632Y-4.121
X5.632Y-4.221
X5.632Y-4.321
X5.986Y-3.884
X5.986Y-4.484
X5.825Y-3.886
X5.825Y-4.486
T2
X5.723Y-3.331
X5.723Y-3.531
X5.733Y-3.231
X5.733Y-3.431
X5.823Y-3.331
X5.823Y-3.531
X5.833Y-3.231
X5.833Y-3.431
X6.197Y-3.959
X6.197Y-4.059
X7.081Y-3.69
X7.081Y-3.89
X7.091Y-3.59
X7.091Y-3.79
X7.181Y-3.69
X7.181Y-3.89
X7.191Y-3.59
X7.191Y-3.79
X6.288Y-3.329
X6.288Y-3.529
X6.298Y-3.229
X6.298Y-3.429
X6.388Y-3.329
X6.388Y-3.529
X6.398Y-3.229
X6.398Y-3.429
X7.083Y-3.216
X7.083Y-3.416
X7.093Y-3.116
X7.093Y-3.316
X7.183Y-3.216
X7.183Y-3.416
X7.193Y-3.116
X7.193Y-3.316
X7.325Y-3.216
X7.325Y-3.416
X7.335Y-3.116
X7.335Y-3.316
X7.425Y-3.216
X7.425Y-3.416
X7.435Y-3.116
X7.435Y-3.316
X4.919Y-3.333
X4.919Y-3.533
X4.929Y-3.233
X4.929Y-3.433
X5.019Y-3.333
X5.019Y-3.533
X5.029Y-3.233
X5.029Y-3.433
X6.045Y-3.33
X6.045Y-3.53
X6.055Y-3.23
X6.055Y-3.43
X6.145Y-3.33
X6.145Y-3.53
X6.155Y-3.23
X6.155Y-3.43
X5.161Y-3.332
X5.161Y-3.532
X5.171Y-3.232
X5.171Y-3.432
X5.261Y-3.332
X5.261Y-3.532
X5.271Y-3.232
X5.271Y-3.432
X7.323Y-4.16
X7.323Y-4.36
X7.333Y-4.06
X7.333Y-4.26
X7.423Y-4.16
X7.423Y-4.36
X7.433Y-4.06
X7.433Y-4.26
X7.08Y-4.16
X7.08Y-4.36
X7.09Y-4.06
X7.09Y-4.26
X7.18Y-4.16
X7.18Y-4.36
X7.19Y-4.06
X7.19Y-4.26
X5.481Y-3.331
X5.481Y-3.531
X5.491Y-3.231
X5.491Y-3.431
X5.581Y-3.331
X5.581Y-3.531
X5.591Y-3.231
X5.591Y-3.431
X7.323Y-3.69
X7.323Y-3.89
X7.333Y-3.59
X7.333Y-3.79
X7.423Y-3.69
X7.423Y-3.89
X7.433Y-3.59
X7.433Y-3.79
T3
X6.07Y-4.69
X6.17Y-4.69
X6.27Y-4.69
X6.37Y-4.69
X6.47Y-4.69
X6.57Y-4.69
X6.67Y-4.69
X6.77Y-4.69
X6.77Y-2.79
X6.87Y-2.79
X6.97Y-2.79
X7.07Y-2.79
X7.17Y-2.79
X7.27Y-2.79
X7.37Y-2.79
X7.47Y-2.79
X5.17Y-4.69
X5.27Y-4.69
X5.37Y-4.69
X5.47Y-4.69
X5.57Y-4.69
X5.67Y-4.69
X5.77Y-4.69
X5.87Y-4.69
X5.87Y-2.79
X5.97Y-2.79
X6.07Y-2.79
X6.17Y-2.79
X6.27Y-2.79
X6.37Y-2.79
X6.47Y-2.79
X6.57Y-2.79
X4.81Y-2.79
X4.91Y-2.79
X5.01Y-2.79
X5.11Y-2.79
X5.21Y-2.79
X5.31Y-2.79
X5.41Y-2.79
X5.51Y-2.79
X5.61Y-2.79
X5.71Y-2.79
X7.77Y-2.79
X7.77Y-2.89
X7.77Y-2.99
X7.77Y-3.09
X7.77Y-3.19
X7.77Y-3.29
X7.77Y-3.39
X7.77Y-3.49
X7.77Y-3.59
X7.77Y-3.69
X7.77Y-3.79
X7.77Y-3.89
X7.77Y-3.99
X7.77Y-4.09
X7.77Y-4.19
X7.77Y-4.29
X7.77Y-4.39
X7.77Y-4.49
X7.87Y-2.79
X7.87Y-2.89
X7.87Y-2.99
X7.87Y-3.09
X7.87Y-3.19
X7.87Y-3.29
X7.87Y-3.39
X7.87Y-3.49
X7.87Y-3.59
X7.87Y-3.69
X7.87Y-3.79
X7.87Y-3.89
X7.87Y-3.99
X7.87Y-4.09
X7.87Y-4.19
X7.87Y-4.29
X7.87Y-4.39
X7.87Y-4.49
X6.97Y-4.69
X7.07Y-4.69
X7.17Y-4.69
X7.27Y-4.69
X7.37Y-4.69
X7.47Y-4.69
X7.57Y-4.69
X7.67Y-4.69
T4
X5.151Y-3.882
X5.151Y-4.482
T5
X4.2043Y-3.7553
X4.2043Y-3.9521
X4.598Y-3.5584
X4.598Y-3.8537
X4.598Y-4.149
X4.6964Y-3.6569
X4.6964Y-4.0506
X4.303Y-4.4081
X4.303Y-4.605
T6
X6.67Y-3.39
X6.67Y-4.49
X7.62Y-2.79
X7.87Y-4.69
X4.62Y-4.69
X4.67Y-2.79
T0
M30
